<svg id="Component_36_2" data-name="Component 36 – 2" xmlns="http://www.w3.org/2000/svg" xmlns:xlink="http://www.w3.org/1999/xlink" width="304.118" height="177.583" viewBox="0 0 304.118 177.583">
  <defs>
    <linearGradient id="linear-gradient" x1="-0.149" y1="0.282" x2="1.149" y2="0.718" gradientUnits="objectBoundingBox">
      <stop offset="0" stop-color="#ed1c24"/>
      <stop offset="0.001" stop-color="#fb9a2b"/>
      <stop offset="0.071" stop-color="#fa952b"/>
      <stop offset="0.14" stop-color="#f58729"/>
      <stop offset="0.208" stop-color="#f17928"/>
      <stop offset="0.275" stop-color="#ef7428"/>
      <stop offset="0.337" stop-color="#ee7027"/>
      <stop offset="0.415" stop-color="#ec6c26"/>
      <stop offset="0.584" stop-color="#e96326"/>
      <stop offset="0.743" stop-color="#e96126"/>
      <stop offset="0.886" stop-color="#e85f26"/>
      <stop offset="1" stop-color="#e75d25"/>
    </linearGradient>
  </defs>
  <g id="OBJECTS" transform="translate(-13.754 -40.723)">
    <g id="Group_340" data-name="Group 340" transform="translate(13.754 40.723)">
      <g id="Group_339" data-name="Group 339">
        <g id="Group_338" data-name="Group 338">
          <path id="Path_1475" data-name="Path 1475" d="M138.593,140.142a6.706,6.706,0,0,0-10.17-3.943c-4.177,2.824-7.186,8.541-10.092,9.189-4.242.946-16.984-6.872-16.984-6.872l2.3,6.984s10.922,10.516,15.85,10.233c3.35-.192,9.576-5.758,15.063-7.916a6.6,6.6,0,0,0,4.036-7.674C138.582,140.1,138.6,140.188,138.593,140.142Z" transform="translate(-40.258 -69.276)" fill="#e64b55"/>
          <g id="Group_327" data-name="Group 327" transform="translate(32.768 145.505)">
            <path id="Path_1476" data-name="Path 1476" d="M104,273.955s-4.752-19.83-32.021-24.479c-9.4-1.6-19.512,13.416-.442,14.789C79.42,264.833,90.021,263.262,104,273.955Z" transform="translate(-60.738 -249.357)" fill="#9a9cde"/>
            <path id="Path_1477" data-name="Path 1477" d="M73.049,259.048s27.073,1.543,39.263,25.076" transform="translate(-64.463 -252.289)" fill="none" stroke="#8e90ce" stroke-miterlimit="10" stroke-width="1.056"/>
          </g>
          <g id="Group_328" data-name="Group 328" transform="translate(212.057 56.282)">
            <path id="Path_1478" data-name="Path 1478" d="M401.581,123.248c-3.685,2.027-5.144,6.45-5.144,6.45s4.517,1.137,8.2-.889,5.989-4.915,5.144-6.45S405.267,121.22,401.581,123.248Z" transform="translate(-341.603 -121.423)" fill="#acaffa"/>
            <path id="Path_1479" data-name="Path 1479" d="M389.032,137.092a9.579,9.579,0,0,0-4.8,3.983,9.574,9.574,0,0,0,6.208.6c3.04-.933,5.189-2.716,4.8-3.983S392.072,136.159,389.032,137.092Z" transform="translate(-337.91 -125.996)" fill="#acaffa"/>
            <path id="Path_1480" data-name="Path 1480" d="M386.812,129.808a9.575,9.575,0,0,0-.529,6.215,9.573,9.573,0,0,0,4.785-4c1.467-2.821,1.7-5.6.529-6.215S388.28,126.987,386.812,129.808Z" transform="translate(-338.441 -122.714)" fill="#acaffa"/>
            <path id="Path_1481" data-name="Path 1481" d="M380.45,146.042c-3.8.545-6.463,3.852-6.463,3.852s3.489,2.422,7.285,1.877,6.69-2.27,6.463-3.852S384.246,145.5,380.45,146.042Z" transform="translate(-334.81 -128.822)" fill="#acaffa"/>
            <path id="Path_1482" data-name="Path 1482" d="M374.115,137.355c-1.384,3.577.192,7.521.192,7.521s3.821-1.856,5.2-5.433,1.3-6.945-.193-7.522S375.5,133.777,374.115,137.355Z" transform="translate(-334.677 -124.574)" fill="#acaffa"/>
            <path id="Path_1483" data-name="Path 1483" d="M374.106,156.695c-3.821-.342-7.175,2.264-7.175,2.264s2.839,3.159,6.66,3.5,7.033-.672,7.175-2.264S377.926,157.036,374.106,156.695Z" transform="translate(-332.675 -132.086)" fill="#acaffa"/>
            <path id="Path_1484" data-name="Path 1484" d="M366.083,168.279c-4.058-.539-7.754,2.085-7.754,2.085s2.882,3.5,6.94,4.038,7.53-.394,7.755-2.085S370.141,168.818,366.083,168.279Z" transform="translate(-330.072 -135.579)" fill="#acaffa"/>
            <path id="Path_1485" data-name="Path 1485" d="M358.848,179.866c-3.982-.949-7.926,1.285-7.926,1.285s2.512,3.774,6.494,4.723,7.531.375,7.926-1.285S362.83,180.817,358.848,179.866Z" transform="translate(-327.831 -139.036)" fill="#acaffa"/>
            <path id="Path_1486" data-name="Path 1486" d="M350.875,193.236c-4.083-.282-7.607,2.57-7.607,2.57s3.1,3.31,7.181,3.592,7.49-.868,7.607-2.57S354.959,193.517,350.875,193.236Z" transform="translate(-325.515 -143.146)" fill="#acaffa"/>
            <path id="Path_1487" data-name="Path 1487" d="M365.567,146.3c1.205,3.641-.566,7.5-.566,7.5s-3.724-2.043-4.928-5.685-.952-7,.566-7.5S364.362,142.659,365.567,146.3Z" transform="translate(-330.37 -127.212)" fill="#acaffa"/>
            <path id="Path_1488" data-name="Path 1488" d="M353.992,157.786c2.02,3.56.971,7.971.971,7.971s-4.323-1.363-6.343-4.924-2.455-7.129-.971-7.971S351.971,154.225,353.992,157.786Z" transform="translate(-326.574 -130.882)" fill="#acaffa"/>
            <path id="Path_1489" data-name="Path 1489" d="M345.746,169.046c2.371,3.336,1.777,7.831,1.777,7.831s-4.44-.916-6.812-4.253-3.167-6.842-1.777-7.831S343.375,165.71,345.746,169.046Z" transform="translate(-323.997 -134.468)" fill="#acaffa"/>
            <path id="Path_1490" data-name="Path 1490" d="M339.885,183.3c1.791,3.681.466,8.016.466,8.016s-4.228-1.633-6.02-5.314-2-7.27-.467-8.016S338.094,179.62,339.885,183.3Z" transform="translate(-322.359 -138.497)" fill="#acaffa"/>
            <path id="Path_1491" data-name="Path 1491" d="M344,207.225c-4.054.566-6.914,4.083-6.914,4.083s3.713,2.6,7.768,2.034,7.149-2.394,6.914-4.083S348.057,206.66,344,207.225Z" transform="translate(-323.646 -147.335)" fill="#acaffa"/>
            <path id="Path_1492" data-name="Path 1492" d="M331.15,200.352c2.512,3.233,2.109,7.748,2.109,7.748s-4.475-.725-6.987-3.958-3.456-6.7-2.109-7.748S328.638,197.12,331.15,200.352Z" transform="translate(-319.549 -144.017)" fill="#acaffa"/>
            <path id="Path_1493" data-name="Path 1493" d="M339.083,222.618c-3.991.909-6.541,4.657-6.541,4.657s3.921,2.275,7.913,1.366,6.92-2.993,6.541-4.657S343.075,221.71,339.083,222.618Z" transform="translate(-322.27 -151.916)" fill="#acaffa"/>
            <path id="Path_1494" data-name="Path 1494" d="M325.6,217.166c2.777,3.007,2.76,7.541,2.76,7.541s-4.52-.342-7.3-3.349-4.014-6.383-2.76-7.541S322.823,214.159,325.6,217.166Z" transform="translate(-317.813 -149.262)" fill="#acaffa"/>
            <path id="Path_1495" data-name="Path 1495" d="M379.86,130.055s-20.945,9.119-36.9,38.249A133.059,133.059,0,0,0,327.1,226.286" transform="translate(-320.622 -124.035)" fill="none" stroke="#acaffa" stroke-miterlimit="10" stroke-width="1.657"/>
          </g>
          <g id="Group_330" data-name="Group 330" transform="translate(214.69 111.789)">
            <path id="Path_1496" data-name="Path 1496" d="M374.715,201.474c-23.919,4.581-25.026,15.854-42.24,15.665s-8.859,36.779-8.859,36.779,18.563-24.191,46.142-25.074C399.2,227.9,398.634,196.893,374.715,201.474Z" transform="translate(-321.588 -201.012)" fill="#9a9cde"/>
            <g id="Group_329" data-name="Group 329" transform="translate(1.613 11.191)">
              <path id="Path_1497" data-name="Path 1497" d="M377.238,217.058a71.621,71.621,0,0,1-18.908,9.985,63.916,63.916,0,0,1-10.382,2.8l-1.322.256-1.334.184-2.66.368a19.493,19.493,0,0,0-5.028,1.3,18.349,18.349,0,0,0-8.02,6.422,27.778,27.778,0,0,0-4.171,9.588,34.24,34.24,0,0,0-.8,10.523,22.173,22.173,0,0,0,2.946,10.117,16.531,16.531,0,0,1-2.345-4.805,28.234,28.234,0,0,1-1.108-5.264,34.7,34.7,0,0,1,.531-10.744,27.145,27.145,0,0,1,4.18-9.962,19.325,19.325,0,0,1,8.4-6.837,20.488,20.488,0,0,1,5.305-1.324l2.642-.342,1.317-.169,1.306-.241a72.65,72.65,0,0,0,10.293-2.624,79.113,79.113,0,0,0,9.871-3.988A73,73,0,0,0,377.238,217.058Z" transform="translate(-323.901 -217.058)" fill="#8e90ce"/>
            </g>
          </g>
          <g id="Group_331" data-name="Group 331" transform="translate(219.667 137.575)">
            <path id="Path_1498" data-name="Path 1498" d="M336.189,263.61s5.789-21.363,35.525-25.535c10.249-1.439,20.742,15.181.008,16.06C363.153,254.5,351.7,252.456,336.189,263.61Z" transform="translate(-330.983 -237.986)" fill="#bfc0f3"/>
            <path id="Path_1499" data-name="Path 1499" d="M372.128,248.564s-29.424.808-43.4,25.952" transform="translate(-328.725 -241.187)" fill="none" stroke="#b1b3e3" stroke-miterlimit="10" stroke-width="1.146"/>
          </g>
          <g id="Group_332" data-name="Group 332" transform="translate(68.314 67.758)">
            <path id="Path_1500" data-name="Path 1500" d="M178.355,140.473c-3.193,2.421-3.954,6.793-3.954,6.793s4.415.446,7.608-1.975,4.964-5.463,3.954-6.793S181.549,138.052,178.355,140.473Z" transform="translate(-130.676 -137.879)" fill="#acaffa"/>
            <path id="Path_1501" data-name="Path 1501" d="M168.223,155.426a9.119,9.119,0,0,0-3.972,4.42,9.124,9.124,0,0,0,5.935-.292c2.736-1.3,4.514-3.279,3.973-4.419S170.959,154.125,168.223,155.426Z" transform="translate(-127.605 -142.865)" fill="#acaffa"/>
            <path id="Path_1502" data-name="Path 1502" d="M165.276,149.082a9.126,9.126,0,0,0,.363,5.932,9.121,9.121,0,0,0,3.956-4.434c.992-2.862.829-5.518-.363-5.931S166.267,146.22,165.276,149.082Z" transform="translate(-127.805 -139.911)" fill="#acaffa"/>
            <path id="Path_1503" data-name="Path 1503" d="M161.343,164.994a11.008,11.008,0,0,0-5.558,4.526,11.005,11.005,0,0,0,7.128.759c3.5-1.041,5.991-3.067,5.558-4.526S164.845,163.954,161.343,164.994Z" transform="translate(-125.044 -145.901)" fill="#acaffa"/>
            <path id="Path_1504" data-name="Path 1504" d="M154.408,157.942A11,11,0,0,0,155.632,165a11.008,11.008,0,0,0,4.153-5.842c.808-3.563.26-6.725-1.225-7.062S155.217,154.378,154.408,157.942Z" transform="translate(-124.569 -142.173)" fill="#acaffa"/>
            <path id="Path_1505" data-name="Path 1505" d="M156.736,176.067a11,11,0,0,0-6.449,3.129,11,11,0,0,0,6.762,2.376c3.647-.208,6.536-1.608,6.449-3.128S160.384,175.859,156.736,176.067Z" transform="translate(-123.38 -149.426)" fill="#acaffa"/>
            <path id="Path_1506" data-name="Path 1506" d="M150.772,188.09c-3.9.054-7.02,3.04-7.02,3.04s3.2,2.9,7.1,2.843,7.043-1.415,7.02-3.039S154.672,188.036,150.772,188.09Z" transform="translate(-121.403 -153.071)" fill="#acaffa"/>
            <path id="Path_1507" data-name="Path 1507" d="M145.521,200.059c-3.885-.342-7.293,2.311-7.293,2.311s2.891,3.209,6.775,3.552,7.15-.691,7.293-2.311S149.406,200.4,145.521,200.059Z" transform="translate(-119.731 -156.684)" fill="#acaffa"/>
            <path id="Path_1508" data-name="Path 1508" d="M139.922,213.686c-3.888.3-6.814,3.477-6.814,3.477s3.379,2.69,7.267,2.391,6.939-1.857,6.814-3.477S143.811,213.387,139.922,213.686Z" transform="translate(-118.182 -160.802)" fill="#acaffa"/>
            <path id="Path_1509" data-name="Path 1509" d="M147.27,167.774a11,11,0,0,1,.507,7.15,11.007,11.007,0,0,1-5.434-4.675c-1.64-3.265-1.867-6.466-.507-7.15S145.63,164.508,147.27,167.774Z" transform="translate(-120.554 -145.471)" fill="#acaffa"/>
            <path id="Path_1510" data-name="Path 1510" d="M137.909,180.208c2.4,3.076,2.02,7.378,2.02,7.378s-4.264-.685-6.662-3.761-3.3-6.379-2.02-7.379S135.511,177.132,137.909,180.208Z" transform="translate(-117.443 -149.462)" fill="#acaffa"/>
            <path id="Path_1511" data-name="Path 1511" d="M131.683,191.965c2.7,2.816,2.76,7.135,2.76,7.135s-4.311-.248-7.01-3.064-3.933-6.01-2.76-7.134S128.985,189.149,131.683,191.965Z" transform="translate(-115.496 -153.198)" fill="#acaffa"/>
            <path id="Path_1512" data-name="Path 1512" d="M128.162,206.212c2.2,3.221,1.551,7.491,1.551,7.491s-4.212-.953-6.411-4.174-2.892-6.575-1.551-7.491S125.964,202.99,128.162,206.212Z" transform="translate(-114.539 -157.222)" fill="#acaffa"/>
            <path id="Path_1513" data-name="Path 1513" d="M135.483,227.679c-3.742,1.095-5.95,4.807-5.95,4.807s3.861,1.935,7.6.84,6.408-3.247,5.95-4.807S139.227,226.583,135.483,227.679Z" transform="translate(-117.1 -164.861)" fill="#acaffa"/>
            <path id="Path_1514" data-name="Path 1514" d="M122.259,223.494c2.815,2.7,3.062,7.01,3.062,7.01s-4.318-.064-7.134-2.762-4.187-5.837-3.062-7.01S119.445,220.8,122.259,223.494Z" transform="translate(-112.622 -162.815)" fill="#acaffa"/>
            <path id="Path_1515" data-name="Path 1515" d="M133.031,242.831c-3.636,1.409-5.52,5.3-5.52,5.3s4.012,1.6,7.647.19,6.108-3.781,5.521-5.3S136.667,241.421,133.031,242.831Z" transform="translate(-116.488 -169.332)" fill="#acaffa"/>
            <path id="Path_1516" data-name="Path 1516" d="M119.353,240.107c3.034,2.449,3.647,6.725,3.647,6.725s-4.309.3-7.343-2.145-4.667-5.46-3.647-6.725S116.318,237.657,119.353,240.107Z" transform="translate(-111.706 -167.993)" fill="#acaffa"/>
            <path id="Path_1517" data-name="Path 1517" d="M163.795,147.416s-18.478,11.5-29.476,41.166a126.753,126.753,0,0,0-6.918,56.852" transform="translate(-116.231 -140.765)" fill="none" stroke="#acaffa" stroke-miterlimit="10" stroke-width="1.579"/>
          </g>
          <g id="Group_333" data-name="Group 333" transform="translate(215.255 50.577)">
            <path id="Path_1518" data-name="Path 1518" d="M322.9,165.448s-4.325-28.478,12.546-48.282c7.654-8.983,29.252-1.8,11.71,14.08C339.9,137.808,328.371,144.361,322.9,165.448Z" transform="translate(-322.398 -113.244)" fill="#9a9cde"/>
            <path id="Path_1519" data-name="Path 1519" d="M343.359,125.241s-25.215,22.151-19.151,54.388" transform="translate(-322.661 -116.874)" fill="none" stroke="#8e90ce" stroke-miterlimit="10" stroke-width="1.307"/>
          </g>
          <g id="Group_334" data-name="Group 334" transform="translate(0 88.099)">
            <path id="Path_1520" data-name="Path 1520" d="M89.381,238.845S93,196.377,41.96,169.208c-17.594-9.364-47.539,13.778-10.61,29.05C46.614,204.571,68.678,208.429,89.381,238.845Z" transform="translate(-13.754 -167.045)" fill="#9a9cde"/>
            <path id="Path_1521" data-name="Path 1521" d="M40.374,186.527s52.7,20.877,61.4,75.586" transform="translate(-21.809 -172.94)" fill="none" stroke="#8e90ce" stroke-miterlimit="10" stroke-width="2.207"/>
          </g>
          <path id="Path_1522" data-name="Path 1522" d="M266.176,40.723H147.25a6.652,6.652,0,0,0-6.653,6.653V209.75a6.653,6.653,0,0,0,6.653,6.653H266.176a6.653,6.653,0,0,0,6.653-6.653V47.376A6.653,6.653,0,0,0,266.176,40.723Z" transform="translate(-52.134 -40.723)" fill="url(#linear-gradient)"/>
          <g id="Group_335" data-name="Group 335" transform="translate(225.173 103.123)">
            <path id="Path_1523" data-name="Path 1523" d="M365.942,196.043c-.362,2.546-3.563,5.641-3.563,5.641s-3.01-2.428-2.729-4.985,1.958-4.47,3.746-4.274A2.915,2.915,0,0,1,365.942,196.043Z" transform="translate(-343.582 -189.744)" fill="#194664"/>
            <path id="Path_1524" data-name="Path 1524" d="M438.493,280.638c.944-1.9,2.207-1.171,4.457.116s3.678,2.533,3.348,3.113c-.309.54-1.541.527-4.084.031C439.158,283.3,437.878,281.873,438.493,280.638Z" transform="translate(-367.399 -216.09)" fill="#00558c"/>
            <path id="Path_1525" data-name="Path 1525" d="M434.251,280.934l4.217-.044a1.028,1.028,0,0,1,.961,1.025h0a1.027,1.027,0,0,1-.971,1.025l-4.206.4Z" transform="translate(-366.161 -216.516)" fill="#ffb49b"/>
            <path id="Path_1526" data-name="Path 1526" d="M349.8,290.181c.376,2.084-1.071,2.257-3.643,2.569s-4.464.165-4.544-.5c-.075-.619.921-1.342,3.258-2.463C347.68,288.443,349.56,288.824,349.8,290.181Z" transform="translate(-338.13 -218.955)" fill="#00558c"/>
            <path id="Path_1527" data-name="Path 1527" d="M349.919,283.66l.552,4.181a1.027,1.027,0,0,1-.9,1.078h0a1.028,1.028,0,0,1-1.135-.84l-.907-4.128Z" transform="translate(-339.92 -217.354)" fill="#ffb49b"/>
            <path id="Path_1528" data-name="Path 1528" d="M337.1,248.161c-2.753,6.234,7.123,25.946,7.123,25.946a5.191,5.191,0,0,0,3.277-.459s-1.131-14.6-.421-16.451c.769-2,15.689,2.873,19.26-.3,2.245-1.993-.542-8.868-5.884-10.468C356.793,245.333,340.005,241.595,337.1,248.161Z" transform="translate(-336.619 -205.467)" fill="#5046af"/>
            <path id="Path_1529" data-name="Path 1529" d="M367.923,256.091c1.363,5.575,6.042,17.989,10.573,20.377,8.124,4.281,36.6-4.3,36.6-4.3a4.687,4.687,0,0,0-.025-3.717s-25.869.463-28.523-2.149c-2.443-2.4,1.038-10.629-1.322-16.68-2.292-5.872-8.531-6.816-8.531-6.816h0a9.373,9.373,0,0,0-9.257,10.872C367.566,254.475,367.727,255.284,367.923,256.091Z" transform="translate(-345.906 -204.992)" fill="#6e64c3"/>
            <path id="Path_1530" data-name="Path 1530" d="M351.154,238.443s-6.117-12.768-5.812-19.2c.189-3.964,1.377-11.341,8.84-12.473,4.978-.755,15.361,4.378,15.783,10.793.349,5.3.934,11.887-2.95,18.479C367.013,236.047,359.186,241.355,351.154,238.443Z" transform="translate(-339.255 -194.068)" fill="#fff"/>
            <path id="Path_1531" data-name="Path 1531" d="M364.581,219.2c1.26,3.716,3.3,7.155,4.788,10.783.973,2.37,1.921,4.749,2.917,7.1.269-.161.417-.262.417-.262,3.884-6.592,3.9-13.237,3.548-18.539-.249-3.793-6.443-8.55-8.619-9.023C365.139,212.24,363.232,215.219,364.581,219.2Z" transform="translate(-344.945 -194.842)" fill="#73c8f0"/>
            <path id="Path_1532" data-name="Path 1532" d="M359.429,234.548c-1.288-3.618-2.979-7.05-4.47-10.583-1.933-4.577-4.507-10.062-4.523-15.232-4.148,2.591-4.943,7.954-5.095,11.13-.305,6.429,5.812,19.2,5.812,19.2a16.347,16.347,0,0,0,9.881.206C360.509,237.689,359.986,236.113,359.429,234.548Z" transform="translate(-339.255 -194.682)" fill="#73c8f0"/>
            <path id="Path_1533" data-name="Path 1533" d="M359.667,209.9h0a2.642,2.642,0,0,0,2.241-2.988l-1.235-8.628-5.229.748,1.235,8.628A2.641,2.641,0,0,0,359.667,209.9Z" transform="translate(-342.315 -191.52)" fill="#ffa587"/>
            <path id="Path_1534" data-name="Path 1534" d="M356.912,209.3l-.7-4.859,5.132-.734.139.974c.356,2.488-1.151,5.745-3.562,6.344A2.623,2.623,0,0,1,356.912,209.3Z" transform="translate(-342.549 -193.161)" fill="#f5876e"/>
            <path id="Path_1535" data-name="Path 1535" d="M355.121,207.877h0c2.289-.328,4.964-3.534,4.636-5.823l-.676-4.724-8.289,1.186.677,4.724C351.8,205.528,354.12,208.02,355.121,207.877Z" transform="translate(-340.908 -191.232)" fill="#ffb49b"/>
            <path id="Path_1536" data-name="Path 1536" d="M364.77,200a1.86,1.86,0,0,1-1.565,2.114l-.531-3.7A1.861,1.861,0,0,1,364.77,200Z" transform="translate(-344.503 -191.552)" fill="#ffa587"/>
            <path id="Path_1537" data-name="Path 1537" d="M350.666,197.628l8.235-1.178s.34,2.164.446,2.894a1.371,1.371,0,0,1-.032.548,2.073,2.073,0,0,1-.518-.185,1.836,1.836,0,0,0-1.114-.172,3.612,3.612,0,0,1-2.343-.478,3.987,3.987,0,0,0-3.194-.429,4.581,4.581,0,0,1-.7.158,4.976,4.976,0,0,1-.607.042Z" transform="translate(-340.869 -190.966)" fill="#ffa587"/>
            <path id="Path_1538" data-name="Path 1538" d="M356.2,245.57l-4.319-.546a7.471,7.471,0,0,1-3.66-1.6l-.017.019a.78.78,0,0,0,.053,1.094c.421.388.906.885.826,1.05-.123.255-.6-.213-1.073-.16a1.063,1.063,0,0,0-.8.5,4.558,4.558,0,0,0-.59,3.674.633.633,0,0,0,.833.413l4.489-1.186,3.718-.831Z" transform="translate(-339.597 -205.181)" fill="#ffb49b"/>
            <path id="Path_1539" data-name="Path 1539" d="M356.147,245.99l2.814.356-.541,2.428-2.84.635A24.861,24.861,0,0,1,356.147,245.99Z" transform="translate(-342.357 -205.956)" fill="#ffa587"/>
            <path id="Path_1540" data-name="Path 1540" d="M367.562,214.241a2.961,2.961,0,0,1,3.91,1.025c3,4.758,10.11,16.572,9.906,21.5-.2,4.854-9.91,8.061-17.826,8.38a6.09,6.09,0,0,1-6.3-6.467c0-.052.008-.105.011-.158a6.085,6.085,0,0,1,6.27-5.571c3.53.1,7.713-.026,8.4-1.173.712-1.181-3.481-9.417-5.652-13.516a2.958,2.958,0,0,1,1.207-3.982Z" transform="translate(-342.858 -196.242)" fill="#8ed1f0"/>
            <path id="Path_1541" data-name="Path 1541" d="M353.274,209.505s.808-2.587-1.029-3.846c-1.2-.82-1.462-2.7-1.716-4.483h0a5.431,5.431,0,0,0-1.315,3.6l.007.594a6.044,6.044,0,0,0,1.123,3.438l.752,1.054-.61,1.967,2.239,1.564Z" transform="translate(-340.43 -192.396)" fill="#ffa587"/>
            <path id="Path_1542" data-name="Path 1542" d="M351.6,215.93a5.272,5.272,0,0,1,2.805,6.253c-2.055,7.592-6.181,20.717-9.96,19.862-2.966-.672-1.273-13.609.182-22.144a5.024,5.024,0,0,1,6.871-4.016Z" transform="translate(-338.492 -196.723)" fill="#8ed1f0"/>
            <path id="Path_1543" data-name="Path 1543" d="M356.588,188.634a4.556,4.556,0,0,0-2.558.365,5.909,5.909,0,0,1-2.509.6,3.769,3.769,0,0,0-3.064,2.138,5.291,5.291,0,0,0-.205,3.244,1.637,1.637,0,0,0,2.107,1.25c.126-.04.253-.082.383-.128a6.24,6.24,0,0,1,3.988.015,4.719,4.719,0,0,0,.776.177,3.888,3.888,0,1,0,1.083-7.66Z" transform="translate(-340.093 -188.587)" fill="#194664"/>
          </g>
          <g id="Group_336" data-name="Group 336" transform="translate(16.766 48.802)">
            <path id="Path_1544" data-name="Path 1544" d="M38.227,285.766c-1.165,1.307.211,2.529,1.858,3.832a2.715,2.715,0,0,0,1.686.585h2.845a.435.435,0,0,0,.407-.585c-.4-1.068-1.986-1.278-2.29-1.689C40.978,285.535,39.1,284.789,38.227,285.766Z" transform="translate(-37.793 -163.543)" fill="#41378c"/>
            <path id="Path_1545" data-name="Path 1545" d="M42.089,280.83l-1.449,2.814c-.466.884-.356,1.456.06,1.758h0a.973.973,0,0,0,1.329-.173l2.658-3.005Z" transform="translate(-38.563 -162.176)" fill="#ffb49b"/>
            <path id="Path_1546" data-name="Path 1546" d="M96.247,290.453c-.483,1.951.877,2.2,3.295,2.657s4.218.43,4.335-.193c.109-.581-.791-1.329-2.935-2.534C98.366,288.936,96.561,289.182,96.247,290.453Z" transform="translate(-55.451 -164.768)" fill="#41378c"/>
            <path id="Path_1547" data-name="Path 1547" d="M98.41,285.43l-.2,3.159a.974.974,0,0,0,.755,1.1h0a.973.973,0,0,0,1.148-.69l1.23-3.819Z" transform="translate(-56.071 -163.492)" fill="#ffb49b"/>
            <path id="Path_1548" data-name="Path 1548" d="M109.828,175.689s6.532,3.8,6.158,13.084c-.356,8.814-12.654,58.934-14.084,63.729a.537.537,0,0,1-.527.389,6.374,6.374,0,0,1-3.129-.9.552.552,0,0,1-.262-.5l2.489-55.659a43.858,43.858,0,0,1,6.583-21.222l.032-.051Z" transform="translate(-56.006 -130.021)" fill="#ab51a6"/>
            <path id="Path_1549" data-name="Path 1549" d="M90.933,177.925l-5.411.232a18.7,18.7,0,0,0-17.43,14.534L66.77,198.5c-8.432,17.751-23.325,46.472-25.507,50.672a.8.8,0,0,0,.14.942,7.461,7.461,0,0,0,2.824,1.757,1.049,1.049,0,0,0,1.147-.331c3.128-3.81,22.143-26.975,25.883-31.61C97.076,187.929,90.933,177.925,90.933,177.925Z" transform="translate(-38.815 -131.039)" fill="#be5ab9"/>
            <path id="Path_1550" data-name="Path 1550" d="M49.794,137.469a3.218,3.218,0,0,0,2.223-2.115,9.241,9.241,0,0,1,.409-1.06,9.434,9.434,0,0,1,5.3-5.012c5.436-1.965,5.275-4.669,8.3-5.95a5.4,5.4,0,0,0,2.492-2.191,9.485,9.485,0,0,1,1.774-2.167c3.007-2.74,7.666-3.643,10.28-2.078,2.666,1.6,3.907,2.527,5.071,5.384.728,1.787,1.509,8.075.264,10.512-.829,1.624-3.066.031-4.24.511a9.213,9.213,0,0,0-4.182,3.51,10.286,10.286,0,0,1-2.543,2.668,7.884,7.884,0,0,1-5.8,1.725,4.821,4.821,0,0,0-4.112,1.559,8.194,8.194,0,0,1-8.752,2.585,3.233,3.233,0,0,0-2.81.359,4.553,4.553,0,1,1-3.673-8.24Z" transform="translate(-40.432 -112.342)" fill="#ffdc64"/>
            <path id="Path_1551" data-name="Path 1551" d="M104.736,167.06s2.471-13.921.092-19.549c-1.467-3.47-5.638-9.609-12.658-8.172-4.682.959-12.286.139-10.833,12.007.613,5.005,3.373,13.676,8.994,18.277C90.33,169.624,98.534,172.287,104.736,167.06Z" transform="translate(-50.914 -119.299)" fill="#e64b55"/>
            <path id="Path_1552" data-name="Path 1552" d="M94.9,140.462h0a2.507,2.507,0,0,1-2.959-1.953L90.285,130.4l4.913-1,1.659,8.106A2.507,2.507,0,0,1,94.9,140.462Z" transform="translate(-53.676 -116.356)" fill="#ffa587"/>
            <path id="Path_1553" data-name="Path 1553" d="M96,135.805h0a3.118,3.118,0,0,0,.482-.143L95.2,129.4l-4.913,1,.188.915C90.973,133.758,93.556,136.305,96,135.805Z" transform="translate(-53.676 -116.355)" fill="#f5876e"/>
            <path id="Path_1554" data-name="Path 1554" d="M96.109,131.472h0c-2.15.44-5.566-1.569-6.007-3.719,0,0-.852-3.417-.476-4.485a5.059,5.059,0,0,1,6.973-3c1.095.666,1.315,3.717,1.289,5.887C97.863,128.354,97.05,131.28,96.109,131.472Z" transform="translate(-53.448 -113.442)" fill="#ffb49b"/>
            <path id="Path_1555" data-name="Path 1555" d="M87.426,127.912A1.766,1.766,0,0,0,89.5,129.3l-.712-3.48A1.767,1.767,0,0,0,87.426,127.912Z" transform="translate(-52.8 -115.273)" fill="#ffa587"/>
            <path id="Path_1556" data-name="Path 1556" d="M97.233,121.731l-6.944,1.343.3,1.444c-.662.174-1.2-.022-1.064.665a9.55,9.55,0,0,0,.327,1.34,1.961,1.961,0,0,0,.4-.331,1.74,1.74,0,0,1,.942-.511,3.424,3.424,0,0,0,1.94-1.177,4.827,4.827,0,0,1,2.717-1.406C97.233,122.76,97.233,121.731,97.233,121.731Z" transform="translate(-53.438 -114.036)" fill="#ffa587"/>
            <path id="Path_1557" data-name="Path 1557" d="M92.059,110.8a4.282,4.282,0,0,0-2.791,2.133,5.425,5.425,0,0,1-2.758,2.336l-.04.017a3.466,3.466,0,0,0-2.08,3.222,3.593,3.593,0,0,0,.051.534,3.8,3.8,0,0,1-.059,1.723,1.679,1.679,0,0,0-.037.817,1.864,1.864,0,0,0,2.244,1.379,1.974,1.974,0,0,0,1.067-.6,1.735,1.735,0,0,1,.937-.508,3.413,3.413,0,0,0,1.933-1.172,3.768,3.768,0,0,1,2.706-1.4,4.3,4.3,0,0,0,4-5.279A4.432,4.432,0,0,0,92.059,110.8Z" transform="translate(-51.869 -110.698)" fill="#ffdc64"/>
            <path id="Path_1558" data-name="Path 1558" d="M138.383,155.564l3.568-2.081a2.4,2.4,0,0,0,1.126-1.545c.239-1.051.879-2.54,1.253-2.485.695.1-.4,2.316.239,2.606.19.086,4.579-3.463,4.827-2.947.192.4-2.457,2.079-2.34,2.241s4.6-2.4,4.763-2.02-3.876,2.775-3.594,2.929c.414.225,3.6-2.021,4.083-1.536.325.325-4.127,2.731-4.083,2.99.054.322,3.074-1.208,3.143-.81.1.551-5.319,2.659-5.319,2.659l-6.872,2.684Z" transform="translate(-68.23 -122.305)" fill="#ffb49b"/>
            <path id="Path_1559" data-name="Path 1559" d="M125.741,152.894c-3.02-3.168-6.994-.407-10.43.914L104.475,157.1s-8.817-7.139-12.145-9.4a2.972,2.972,0,0,0-3.548.153h0a2.807,2.807,0,0,0-.456,3.876c5.384,7.093,13.934,14.9,17.908,14.5,3.939-.4,16.956-1.571,20.025-5.746a6.05,6.05,0,0,0-.517-7.591Z" transform="translate(-52.909 -121.738)" fill="#ff6473"/>
          </g>
          <g id="Group_337" data-name="Group 337" transform="translate(80.035 138.25)">
            <path id="Path_1560" data-name="Path 1560" d="M128.688,270.391s-.949-18.129,10.859-29.5c5.356-5.16,18.457.682,6.472,9.555C141.066,254.11,133.428,257.505,128.688,270.391Z" transform="translate(-128.56 -238.954)" fill="#9a9cde"/>
            <path id="Path_1561" data-name="Path 1561" d="M144.025,246.4s-17.187,12.33-15.38,32.924" transform="translate(-128.512 -241.208)" fill="none" stroke="#8e90ce" stroke-miterlimit="10" stroke-width="0.823"/>
          </g>
        </g>
      </g>
    </g>
  </g>
  <text id="ACTIVATE_ACCOUNT" data-name="ACTIVATE
ACCOUNT" transform="translate(156 83.505)" fill="#fff" font-size="20" font-family="Roboto-Bold, Roboto" font-weight="700"><tspan x="-46.357" y="0">ACTIVATE</tspan><tspan x="-46.548" y="26">ACCOUNT</tspan></text>
</svg>
