<svg xmlns="http://www.w3.org/2000/svg" width="33.797" height="25.348" viewBox="0 0 33.797 25.348">
  <path id="id-card" d="M29.925,0H3.873A3.876,3.876,0,0,0,0,3.873v17.6a3.876,3.876,0,0,0,3.873,3.873H29.925A3.876,3.876,0,0,0,33.8,21.475V3.873A3.876,3.876,0,0,0,29.925,0ZM10.562,5.633a3.521,3.521,0,1,1-3.52,3.521,3.525,3.525,0,0,1,3.52-3.521ZM16.9,18.659a1.057,1.057,0,0,1-1.056,1.056H5.281a1.057,1.057,0,0,1-1.056-1.056v-.7A3.876,3.876,0,0,1,8.1,14.082h4.929A3.876,3.876,0,0,1,16.9,17.955Zm11.618,1.056H20.771a1.056,1.056,0,1,1,0-2.112h7.745a1.056,1.056,0,0,1,0,2.112Zm0-5.633H20.771a1.056,1.056,0,1,1,0-2.112h7.745a1.056,1.056,0,0,1,0,2.112Zm0-5.633H20.771a1.056,1.056,0,1,1,0-2.112h7.745a1.056,1.056,0,0,1,0,2.112Zm0,0" fill="#eabd5b"/>
</svg>
