<svg xmlns="http://www.w3.org/2000/svg" width="24.613" height="29.228" viewBox="0 0 24.613 29.228">
  <path id="Icon_material-directions-bus" data-name="Icon material-directions-bus" d="M6,24.536a4.593,4.593,0,0,0,1.538,3.415v2.738a1.543,1.543,0,0,0,1.538,1.538h1.538a1.543,1.543,0,0,0,1.538-1.538V29.151H24.46v1.538A1.543,1.543,0,0,0,26,32.228h1.538a1.543,1.543,0,0,0,1.538-1.538V27.951a4.593,4.593,0,0,0,1.538-3.415V9.153C30.613,3.769,25.106,3,18.306,3S6,3.769,6,9.153Zm5.384,1.538a2.307,2.307,0,1,1,2.307-2.307A2.3,2.3,0,0,1,11.384,26.075Zm13.845,0a2.307,2.307,0,1,1,2.307-2.307A2.3,2.3,0,0,1,25.229,26.075Zm2.307-9.23H9.077V9.153h18.46Z" transform="translate(-6 -3)" fill="#eabd5b"/>
</svg>
