<svg xmlns="http://www.w3.org/2000/svg" width="29.755" height="29.755" viewBox="0 0 29.755 29.755">
  <path id="Icon_material-shopping-cart" data-name="Icon material-shopping-cart" d="M10.426,26.8A2.975,2.975,0,1,0,13.4,29.779,2.972,2.972,0,0,0,10.426,26.8ZM1.5,3V5.975H4.475L9.831,17.267,7.823,20.912a2.876,2.876,0,0,0-.372,1.428,2.984,2.984,0,0,0,2.975,2.975H28.279V22.341H11.051a.368.368,0,0,1-.372-.372l.045-.179,1.339-2.425H23.147a2.961,2.961,0,0,0,2.6-1.532l5.326-9.655a1.453,1.453,0,0,0,.179-.714,1.492,1.492,0,0,0-1.488-1.488h-22L6.365,3ZM25.3,26.8a2.975,2.975,0,1,0,2.975,2.975A2.972,2.972,0,0,0,25.3,26.8Z" transform="translate(-1.5 -3)" fill="#eabd5b"/>
</svg>
