<svg xmlns="http://www.w3.org/2000/svg" width="59.121" height="24.009" viewBox="0 0 59.121 24.009">
  <g id="cibil-logo-lt" transform="translate(-13.208 -10.409)">
    <g id="Group_278" data-name="Group 278" transform="translate(13.291 29.235)">
      <path id="Path_1311" data-name="Path 1311" d="M13.721,132.866v-4.875c.612,0,1.274-.007,1.885,0a1.615,1.615,0,1,1,0,3.226H14.069v1.649h-.348Zm1.885-1.976a1.291,1.291,0,1,0,0-2.58H14.069v2.58h1.537Z" transform="translate(-13.721 -127.738)" fill="#6d6e71"/>
      <path id="Path_1312" data-name="Path 1312" d="M39.773,140.514c-.585,0-1.189-.305-1.189-.945,0-.73.64-1.086,1.315-1.086a3.161,3.161,0,0,1,1.232.251v-.584c0-.653-.6-.8-1.134-.8a2.212,2.212,0,0,0-1.078.259l-.077-.279a2.567,2.567,0,0,1,1.2-.278c.723,0,1.405.271,1.405,1.105v1.531c0,.4-.022.633.423.577l.014.229c-.571.09-.723-.111-.7-.639A1.526,1.526,0,0,1,39.773,140.514Zm1.357-1.494a2.505,2.505,0,0,0-1.19-.265c-.5,0-1.029.238-1.029.786,0,.514.451.688.917.688a1.258,1.258,0,0,0,1.3-.821v-.389Z" transform="translate(-34.55 -135.331)" fill="#6d6e71"/>
      <path id="Path_1313" data-name="Path 1313" d="M63.146,137.089a1.481,1.481,0,0,1,.843.257l-.12.293a1.279,1.279,0,0,0-.766-.231.931.931,0,0,0-.981.913v2.169H61.79v-2.58c0-.327-.008-.536-.432-.479l-.013-.3c.534-.09.751.112.751.5A1.122,1.122,0,0,1,63.146,137.089Z" transform="translate(-53.619 -135.362)" fill="#6d6e71"/>
      <path id="Path_1314" data-name="Path 1314" d="M80.317,132.117h1.3v.285h-1.3v1.808c0,.695.217.982.653.988a2.4,2.4,0,0,0,.765-.16l.05.285a2.564,2.564,0,0,1-.835.161c-.627,0-.966-.383-.966-1.267V132.4l-.766-.021v-.264h.766l.027-1.022h.306v1.022Z" transform="translate(-68.592 -130.341)" fill="#6d6e71"/>
      <path id="Path_1315" data-name="Path 1315" d="M110.807,140.514a1.732,1.732,0,1,1,1.76-1.738A1.681,1.681,0,0,1,110.807,140.514Zm0-.3a1.383,1.383,0,0,0,1.427-1.441,1.426,1.426,0,0,0-2.852,0A1.378,1.378,0,0,0,110.807,140.217Z" transform="translate(-93.582 -135.331)" fill="#6d6e71"/>
      <path id="Path_1316" data-name="Path 1316" d="M134.134,128.518h-.786v-.293h.786v-.605c0-1.2.946-1.37,1.843-.988l-.069.271c-.689-.3-1.439-.256-1.439.725v.6h1.294v.293h-1.294v3.059h-.335v-3.059Z" transform="translate(-113.94 -126.45)" fill="#6d6e71"/>
      <path id="Path_1317" data-name="Path 1317" d="M158.427,128.364v-.321h3.546v.321h-1.6v4.548h-.347v-4.548Z" transform="translate(-134.95 -127.785)" fill="#6d6e71"/>
      <path id="Path_1318" data-name="Path 1318" d="M180.67,137.089a1.474,1.474,0,0,1,.842.257l-.118.293a1.282,1.282,0,0,0-.765-.231.93.93,0,0,0-.981.913v2.169h-.334v-2.58c0-.327-.007-.536-.431-.479l-.014-.3c.535-.09.751.112.751.5A1.122,1.122,0,0,1,180.67,137.089Z" transform="translate(-152.076 -135.362)" fill="#6d6e71"/>
      <path id="Path_1319" data-name="Path 1319" d="M198.366,140.514c-.585,0-1.189-.305-1.189-.945,0-.73.639-1.086,1.314-1.086a3.156,3.156,0,0,1,1.231.251v-.584c0-.653-.6-.8-1.134-.8a2.211,2.211,0,0,0-1.078.259l-.076-.279a2.564,2.564,0,0,1,1.2-.278c.724,0,1.406.271,1.406,1.105v1.531c0,.4-.021.633.423.577l.013.229c-.569.09-.723-.111-.7-.639A1.523,1.523,0,0,1,198.366,140.514Zm1.356-1.494a2.5,2.5,0,0,0-1.189-.265c-.5,0-1.03.238-1.03.786,0,.514.452.688.919.688a1.258,1.258,0,0,0,1.3-.821Z" transform="translate(-167.414 -135.331)" fill="#6d6e71"/>
      <path id="Path_1320" data-name="Path 1320" d="M222.886,140.459v-2.038a1,1,0,0,0-1.092-1.057,1.062,1.062,0,0,0-1.141,1.113v1.982h-.333v-2.482c0-.537-.057-.647-.426-.592l-.006-.291c.507-.077.744.034.744.57a1.379,1.379,0,0,1,1.238-.612,1.273,1.273,0,0,1,1.35,1.37v2.038Z" transform="translate(-186.44 -135.331)" fill="#6d6e71"/>
      <path id="Path_1321" data-name="Path 1321" d="M245.884,139.528c.057.487.607.71,1.149.71s1.113-.2,1.113-.682c0-.62-.661-.62-1.106-.675-.669-.076-1.384-.194-1.384-.884s.667-.946,1.357-.946,1.355.286,1.355.883h-.306c0-.417-.521-.6-1.044-.6-.507,0-1.091.188-1.057.661,0,.516.731.556,1.119.612.7.1,1.406.16,1.385.953,0,.669-.682.959-1.44.959-.709,0-1.391-.277-1.467-.987h.326Z" transform="translate(-207.946 -135.332)" fill="#6d6e71"/>
      <path id="Path_1322" data-name="Path 1322" d="M269,131.244v-3.2h.349v3.193a1.476,1.476,0,0,0,2.948,0v-3.193h.341v3.2a1.822,1.822,0,0,1-3.638,0Z" transform="translate(-227.587 -127.785)" fill="#6d6e71"/>
      <path id="Path_1323" data-name="Path 1323" d="M299.562,140.459v-2.038a1,1,0,0,0-1.092-1.057,1.061,1.061,0,0,0-1.14,1.113v1.982H297v-2.482c0-.537-.055-.647-.424-.592l-.007-.291c.508-.077.745.034.745.57a1.376,1.376,0,0,1,1.238-.612,1.272,1.272,0,0,1,1.35,1.37v2.038Z" transform="translate(-250.677 -135.331)" fill="#6d6e71"/>
      <path id="Path_1324" data-name="Path 1324" d="M323.76,128.686a.229.229,0,0,1,.223.237.223.223,0,0,1-.217.237.229.229,0,0,1-.243-.237A.223.223,0,0,1,323.76,128.686Zm.153,4.765h-.326V130.1h.326Z" transform="translate(-273.262 -128.323)" fill="#6d6e71"/>
      <path id="Path_1325" data-name="Path 1325" d="M333.39,140.514a1.732,1.732,0,1,1,1.758-1.738A1.681,1.681,0,0,1,333.39,140.514Zm0-.3a1.382,1.382,0,0,0,1.424-1.441,1.426,1.426,0,0,0-2.851,0A1.378,1.378,0,0,0,333.39,140.217Z" transform="translate(-280.053 -135.331)" fill="#6d6e71"/>
      <path id="Path_1326" data-name="Path 1326" d="M359.828,140.459v-2.038a1,1,0,0,0-1.091-1.057,1.062,1.062,0,0,0-1.141,1.113v1.982h-.334v-2.482c0-.537-.056-.647-.425-.592l-.006-.291c.507-.077.744.034.744.57a1.376,1.376,0,0,1,1.238-.612,1.272,1.272,0,0,1,1.349,1.37v2.038Z" transform="translate(-301.166 -135.331)" fill="#6d6e71"/>
    </g>
    <g id="Group_279" data-name="Group 279" transform="translate(13.208 10.409)">
      <path id="Path_1327" data-name="Path 1327" d="M21.528,10.409a7.272,7.272,0,0,1,7.385,5.469H26.3a4.866,4.866,0,0,0-4.791-2.992c-3.342,0-5.564,2.43-5.564,5.914a5.529,5.529,0,0,0,5.564,5.84,4.811,4.811,0,0,0,4.86-3.271h2.642c-.818,4-4.184,5.75-7.5,5.75a7.99,7.99,0,0,1-8.3-8.319,8.041,8.041,0,0,1,8.32-8.391" transform="translate(-13.208 -10.409)" fill="#00a2d1"/>
      <path id="Path_1328" data-name="Path 1328" d="M122.507,25.717v2.2h-7.9v-2.2H117.2V13.728h-2.385V11.552H122.3v2.176h-2.384V25.717Z" transform="translate(-98.158 -11.367)" fill="#00a2d1"/>
      <path id="Path_1329" data-name="Path 1329" d="M183.953,19.322a3.744,3.744,0,0,1,2.641,3.786c0,2.922-2.01,4.815-5.189,4.815H174.09V11.563h6.637c2.968,0,5.14,1.519,5.14,4.6a3.332,3.332,0,0,1-1.915,3.154m-7.151-5.4v4.511h3.739c1.566,0,2.641-.607,2.665-2.2,0-1.612-1.076-2.313-2.665-2.313H176.8Zm0,6.73v4.885h4.442a2.432,2.432,0,0,0,2.663-2.43,2.393,2.393,0,0,0-.841-1.938,3.4,3.4,0,0,0-2.128-.517Z" transform="translate(-147.989 -11.376)" fill="#00a2d1"/>
      <path id="Path_1330" data-name="Path 1330" d="M265.813,25.717v2.2h-7.9v-2.2h2.594V13.728h-2.383V11.552H265.6v2.176H263.22V25.717Z" transform="translate(-218.215 -11.367)" fill="#00a2d1"/>
      <path id="Path_1331" data-name="Path 1331" d="M320.138,25.458h7.035v2.455H317.4V11.552h2.734Z" transform="translate(-268.052 -11.367)" fill="#00a2d1"/>
    </g>
  </g>
</svg>
