<svg width="490" height="357" viewBox="0 0 490 357" fill="none" xmlns="http://www.w3.org/2000/svg">
<path d="M382.4 356.75H277.4V250.65H312.1C320.9 250.65 326.1 240.65 320.9 233.45L253.4 140.05C249.1 134.05 240.2 134.05 235.9 140.05L168.4 233.45C163.2 240.65 168.3 250.65 177.2 250.65H211.9V356.75H94.3C41.8 353.85 0 304.75 0 251.55C0 214.85 19.9 182.85 49.4 165.55C46.7 158.25 45.3 150.45 45.3 142.25C45.3 104.75 75.6 74.45 113.1 74.45C121.2 74.45 129 75.85 136.3 78.55C158 32.55 204.8 0.650024 259.2 0.650024C329.6 0.750024 387.6 54.65 394.2 123.35C448.3 132.65 489.4 182.75 489.4 239.45C489.4 300.05 442.2 352.55 382.4 356.75Z" fill="#EBBD5A"/>
</svg>
