<svg id="Component_1_2" data-name="Component 1 – 2" xmlns="http://www.w3.org/2000/svg" width="58.385" height="58.357" viewBox="0 0 58.385 58.357">
  <path id="Subtraction_1" data-name="Subtraction 1" d="M55.706,58.357H2.653a2.653,2.653,0,1,1,0-5.306H55.707a2.653,2.653,0,0,1,0,5.306Zm-3.316-6.9H5.969a2.654,2.654,0,0,1,0-5.308h.663V22.277H5.969a1.325,1.325,0,1,1,0-2.65H52.39a1.325,1.325,0,1,1,0,2.65h-.661V46.152h.661a2.654,2.654,0,0,1,0,5.308ZM38.464,22.277V46.151h7.957V22.277Zm-13.265,0V46.151h7.958V22.277Zm-13.262,0V46.151h7.957V22.277Zm43.795-5.035H2.653a2.653,2.653,0,0,1-1.088-5.072L28.094.233a2.661,2.661,0,0,1,2.177,0L56.593,12.077a2.654,2.654,0,0,1-.861,5.164Zm-29.082-8a.223.223,0,0,0-.223.223v.985a.223.223,0,0,0,.072.164l3.067,2.831a.224.224,0,0,0,.151.059h1.535a.223.223,0,0,0,.151-.387l-2.8-2.588A2.533,2.533,0,0,0,31.17,8.149h.981a.223.223,0,0,0,.223-.223V7.182a.223.223,0,0,0-.223-.222H31.06a2.545,2.545,0,0,0-.265-.595h1.355a.223.223,0,0,0,.223-.223V5.4a.223.223,0,0,0-.223-.223h-5.5a.223.223,0,0,0-.223.223V6.23a.223.223,0,0,0,.223.223h1.585a1.338,1.338,0,0,1,1.133.507H26.65a.223.223,0,0,0-.223.222v.743a.223.223,0,0,0,.223.223H29.6a1.292,1.292,0,0,1-1.39,1.09Z" transform="translate(0 0)" fill="#eabd5b"/>
</svg>
