<svg xmlns="http://www.w3.org/2000/svg" width="32.1" height="34.312" viewBox="0 0 32.1 34.312">
  <g id="test" transform="translate(-16.5)">
    <path id="Path_1221" data-name="Path 1221" d="M264.475,274a7.975,7.975,0,1,0,8.042,7.975A7.984,7.984,0,0,0,264.475,274Zm2.448,7.01-2.681,3.217a1.005,1.005,0,0,1-1.671-.194l-1.072-2.145a1.005,1.005,0,0,1,1.8-.9l.385.77,1.7-2.036a1.005,1.005,0,1,1,1.544,1.287Z" transform="translate(-223.916 -255.638)" fill="#eabd5b"/>
    <path id="Path_1222" data-name="Path 1222" d="M40.125,5.727,36.047,1.509,36.041,1.5A5.059,5.059,0,0,0,32.456,0H19.516A3.019,3.019,0,0,0,16.5,3.016V29.085A3.019,3.019,0,0,0,19.516,32.1H32.409a9.981,9.981,0,0,1,8.15-15.749q.509,0,1.005.05V9.247a5,5,0,0,0-1.438-3.52ZM27.155,22.45H21.794a1.005,1.005,0,0,1,0-2.01h5.361a1.005,1.005,0,1,1,0,2.01Zm0-5.361H21.794a1.005,1.005,0,1,1,0-2.01h5.361a1.005,1.005,0,1,1,0,2.01Zm0-5.361H21.794a1.005,1.005,0,1,1,0-2.01h5.361a1.005,1.005,0,1,1,0,2.01Zm6.433,5.361H32.517a1.005,1.005,0,0,1,0-2.01h1.072a1.005,1.005,0,1,1,0,2.01Zm0-5.361H32.517a1.005,1.005,0,0,1,0-2.01h1.072a1.005,1.005,0,1,1,0,2.01Z" transform="translate(0 0)" fill="#eabd5b"/>
  </g>
</svg>
