<svg xmlns="http://www.w3.org/2000/svg" width="33.145" height="28.985" viewBox="0 0 33.145 28.985">
  <g id="presentation" transform="translate(0)">
    <path id="Path_1570" data-name="Path 1570" d="M210.414,0H195.852A3.051,3.051,0,0,0,192.8,3.051v7.173l2.378,1.182,1.188-2.377a2.913,2.913,0,1,1,5.211,2.606l-2.117,4.236a4.424,4.424,0,0,1-.152,1.673h1.4L197.02,27.682a.971.971,0,1,0,1.825.664l3.928-10.8h.68l3.968,10.805a.971.971,0,0,0,1.823-.669l-3.722-10.136h4.892a3.051,3.051,0,0,0,3.051-3.051V3.051A3.051,3.051,0,0,0,210.414,0Zm-2.081,13.383h-4.357a.971.971,0,0,1,0-1.942h4.357a.971.971,0,1,1,0,1.942Zm0-3.641h-4.357a.971.971,0,0,1,0-1.942h4.357a.971.971,0,1,1,0,1.942Zm0-3.64h-10.4a.971.971,0,0,1,0-1.942h10.4a.971.971,0,1,1,0,1.942Zm0,0" transform="translate(-180.32)" fill="#eabd5b"/>
    <path id="Path_1571" data-name="Path 1571" d="M17.085,45.185a2.511,2.511,0,0,0,.026-1.541l2.41-4.819a.971.971,0,0,0-1.737-.869l-2.055,4.11-4.6-2.288a8.328,8.328,0,0,0-4.1-1.32H6.172a4.23,4.23,0,1,0-3.08-1.331,4.219,4.219,0,0,0,3.08,1.331,6.2,6.2,0,0,0-4.362,1.807A6.123,6.123,0,0,0,0,44.63v3.12a3.056,3.056,0,0,0,2.08,2.893v5.428a.971.971,0,0,0,.971.971h6.24a.971.971,0,0,0,.971-.971V45.161l3.109,1.554a2.66,2.66,0,0,0,3.71-1.519l0-.011Zm0,0" transform="translate(0 -28.058)" fill="#eabd5b"/>
  </g>
</svg>
