<svg xmlns="http://www.w3.org/2000/svg" xmlns:xlink="http://www.w3.org/1999/xlink" width="177" height="186" viewBox="0 0 177 186">
  <defs>
    <filter id="Rectangle_147" x="0" y="-3" width="186" height="198" filterUnits="userSpaceOnUse">
      <feOffset input="SourceAlpha"/>
      <feGaussianBlur stdDeviation="3" result="blur"/>
      <feFlood flood-opacity="0.059"/>
      <feComposite operator="in" in2="blur"/>
      <feComposite in="SourceGraphic"/>
    </filter>
    <clipPath id="clip-path">
      <g transform="matrix(1, 0, 0, 1, 0, 0)" filter="url(#Rectangle_147)">
        <rect id="Rectangle_147-2" data-name="Rectangle 147" width="168" height="180" rx="6" transform="translate(1130 -1366)" fill="#111214"/>
      </g>
    </clipPath>
    <clipPath id="clip-path-2">
      <path id="Path_1345" data-name="Path 1345" d="M191.281,14.568H32.463c-9.041,0-16.4,7.847-16.4,17.492V201.493c0,9.645,7.355,17.492,16.4,17.492H191.281c9.041,0,16.4-7.846,16.4-17.492V32.06C207.678,22.415,200.322,14.568,191.281,14.568Z" transform="translate(-16.067 -14.568)"/>
    </clipPath>
    <linearGradient id="linear-gradient" x1="0.5" y1="1" x2="0.5" gradientUnits="objectBoundingBox">
      <stop offset="0" stop-color="#fff" stop-opacity="0.102"/>
      <stop offset="0.72" stop-color="#fff"/>
      <stop offset="1" stop-color="#fff" stop-opacity="0.239"/>
    </linearGradient>
    <linearGradient id="linear-gradient-2" x1="0.5" y1="0.675" x2="0.5" y2="-0.072" gradientUnits="objectBoundingBox">
      <stop offset="0" stop-color="#fff"/>
      <stop offset="1" stop-color="#fff" stop-opacity="0"/>
    </linearGradient>
    <radialGradient id="radial-gradient" cx="0.5" cy="0.5" r="4.605" gradientTransform="translate(0.475 -1.118) scale(0.109 0.109)" gradientUnits="objectBoundingBox">
      <stop offset="0" stop-color="#fff"/>
      <stop offset="0.007" stop-color="#fff" stop-opacity="0.992"/>
      <stop offset="1" stop-color="#fff" stop-opacity="0"/>
    </radialGradient>
    <radialGradient id="radial-gradient-2" cx="0.5" cy="0.5" r="6.478" gradientTransform="translate(0.511 -4.878) scale(0.077 0.077)" xlink:href="#radial-gradient"/>
    <radialGradient id="radial-gradient-3" cx="0.5" cy="0.5" r="3.886" gradientTransform="translate(0.241 -2.428) scale(0.129 0.129)" xlink:href="#radial-gradient"/>
    <linearGradient id="linear-gradient-3" x1="0.5" y1="0.435" x2="0.5" y2="-0.005" gradientUnits="objectBoundingBox">
      <stop offset="0.403" stop-color="#ff0505"/>
      <stop offset="0.563" stop-color="#fc0505"/>
      <stop offset="0.671" stop-color="#f30505"/>
      <stop offset="0.765" stop-color="#e40404"/>
      <stop offset="0.85" stop-color="#ce0404"/>
      <stop offset="0.928" stop-color="#b30303"/>
      <stop offset="1" stop-color="#920202"/>
    </linearGradient>
    <filter id="Path_1245" x="0" y="0" width="102.567" height="102.568" filterUnits="userSpaceOnUse">
      <feOffset dy="3" input="SourceAlpha"/>
      <feGaussianBlur stdDeviation="3" result="blur-2"/>
      <feFlood flood-opacity="0.58"/>
      <feComposite operator="in" in2="blur-2"/>
      <feComposite in="SourceGraphic"/>
    </filter>
    <linearGradient id="linear-gradient-4" x1="1.342" y1="0.5" x2="8.496" y2="0.5" gradientUnits="objectBoundingBox">
      <stop offset="0" stop-color="#fbfbfb"/>
      <stop offset="1" stop-color="#ebebeb"/>
    </linearGradient>
    <linearGradient id="linear-gradient-5" x1="0.891" y1="0.5" x2="10.575" y2="0.5" xlink:href="#linear-gradient-4"/>
    <linearGradient id="linear-gradient-6" x1="0.274" y1="0.5" x2="6.607" y2="0.5" xlink:href="#linear-gradient-4"/>
    <linearGradient id="linear-gradient-7" x1="-0.185" y1="0.5" x2="7.987" y2="0.5" xlink:href="#linear-gradient-4"/>
    <linearGradient id="linear-gradient-8" x1="-0.643" y1="0.5" x2="7.273" y2="0.5" xlink:href="#linear-gradient-4"/>
    <linearGradient id="linear-gradient-9" x1="-1.147" y1="0.5" x2="6.369" y2="0.5" xlink:href="#linear-gradient-4"/>
    <linearGradient id="linear-gradient-10" x1="-1.434" y1="0.5" x2="5.562" y2="0.5" xlink:href="#linear-gradient-4"/>
    <linearGradient id="linear-gradient-11" x1="-2.935" y1="0.5" x2="6.749" y2="0.5" xlink:href="#linear-gradient-4"/>
    <linearGradient id="linear-gradient-12" x1="-3.505" y1="0.5" x2="6.179" y2="0.5" xlink:href="#linear-gradient-4"/>
    <linearGradient id="linear-gradient-13" x1="-3.251" y1="0.5" x2="4.665" y2="0.5" xlink:href="#linear-gradient-4"/>
    <filter id="Icon_material-lock" x="44.133" y="41.425" width="97.828" height="109.65" filterUnits="userSpaceOnUse">
      <feOffset input="SourceAlpha"/>
      <feGaussianBlur stdDeviation="10" result="blur-3"/>
      <feFlood flood-opacity="0.58"/>
      <feComposite operator="in" in2="blur-3"/>
      <feComposite in="SourceGraphic"/>
    </filter>
  </defs>
  <g id="Group_288" data-name="Group 288" transform="translate(-182 -292)">
    <g id="Component_34_1" data-name="Component 34 – 1" transform="translate(191 298)">
      <g id="Mask_Group_1" data-name="Mask Group 1" transform="translate(-1130 1366)" clip-path="url(#clip-path)">
        <g id="OBJECTS" transform="translate(1102.461 -1392.606)">
          <g id="Group_284" data-name="Group 284" transform="translate(16.067 14.568)">
            <g id="Group_283" data-name="Group 283">
              <g id="Group_282" data-name="Group 282" clip-path="url(#clip-path-2)">
                <path id="Path_1342" data-name="Path 1342" d="M191.657,218.651H32.839c-8.71,0-15.771-7.533-15.771-16.825V32.394c0-9.292,7.061-16.826,15.771-16.826H191.657c8.71,0,15.771,7.533,15.771,16.826V201.826C207.428,211.119,200.367,218.651,191.657,218.651Z" transform="translate(-16.443 -14.901)" opacity="0.41" fill="url(#linear-gradient)"/>
                <path id="Path_1343" data-name="Path 1343" d="M191.657,218.651H32.839c-8.71,0-15.771-7.533-15.771-16.825V32.394c0-9.292,7.061-16.826,15.771-16.826H191.657c8.71,0,15.771,7.533,15.771,16.826V201.826C207.428,211.119,200.367,218.651,191.657,218.651Z" transform="translate(-16.443 -14.901)" fill="none" stroke="#707070" stroke-miterlimit="10" stroke-width="2"/>
                <path id="Path_1344" data-name="Path 1344" d="M166.4,75.116a205.123,205.123,0,0,1,41.024,4.127V32.394c0-9.292-7.061-16.826-15.771-16.826H32.839c-8.71,0-15.771,7.533-15.771,16.826V138.568C56,99.239,108.559,75.116,166.4,75.116Z" transform="translate(-16.443 -14.901)" opacity="0.2" fill="url(#linear-gradient-2)"/>
                <ellipse id="Ellipse_81" data-name="Ellipse 81" cx="83.799" cy="9.705" rx="83.799" ry="9.705" transform="translate(-4.822 194.044)" opacity="0.72" fill="url(#radial-gradient)"/>
                <ellipse id="Ellipse_82" data-name="Ellipse 82" cx="51.267" cy="4.222" rx="51.267" ry="4.222" transform="translate(27.709 199.528)" opacity="0.61" fill="url(#radial-gradient-2)"/>
                <ellipse id="Ellipse_83" data-name="Ellipse 83" cx="38.847" cy="5.333" rx="38.847" ry="5.333" transform="translate(0.625 -4.667)" opacity="0.61" fill="url(#radial-gradient-3)"/>
              </g>
            </g>
          </g>
        </g>
      </g>
    </g>
    <g id="element-locked-01" transform="translate(179.476 287.631)">
      <g id="Group_272" data-name="Group 272" transform="translate(11.524 10.369)">
        <g transform="matrix(1, 0, 0, 1, -9, -6)" filter="url(#Path_1245)">
          <path id="Path_1245-2" data-name="Path 1245" d="M11.524,94.937,96.091,10.369H59.242L11.524,58.087Z" transform="translate(-2.52 -4.37)" fill-rule="evenodd" fill="url(#linear-gradient-3)"/>
        </g>
        <g id="Group_271" data-name="Group 271" transform="translate(7.698 9.363)">
          <g id="Group_268" data-name="Group 268" transform="translate(0.47 0.223)">
            <path id="Path_1248" data-name="Path 1248" d="M31.383,83.955a3.532,3.532,0,0,1-1.014.733,2.33,2.33,0,0,1-1.008.231,2.686,2.686,0,0,1-1.012-.226,4.72,4.72,0,0,1-1.006-.579,9.316,9.316,0,0,1-1.014-.891l-2.244-2.243a9.338,9.338,0,0,1-.891-1.014,4.8,4.8,0,0,1-.58-1.006,2.672,2.672,0,0,1-.223-1.009,2.362,2.362,0,0,1,.232-1.006,3.987,3.987,0,0,1,1.844-1.8,2.1,2.1,0,0,1,1.118-.161,3.134,3.134,0,0,1,1.093.374,5.757,5.757,0,0,1,1.118.831c.059.052.147.138.264.255l-1.124,1.124-.25-.25c-.158-.153-.3-.279-.415-.38a4.123,4.123,0,0,0-.389-.292,1.349,1.349,0,0,0-.4-.189,1.383,1.383,0,0,0-.386-.044.894.894,0,0,0-.407.116,1.868,1.868,0,0,0-.415.323,1.6,1.6,0,0,0-.38.555,1.125,1.125,0,0,0-.078.531,1.369,1.369,0,0,0,.2.54,3.859,3.859,0,0,0,.377.531q.205.24.529.564l2.81,2.81a6.872,6.872,0,0,0,.534.486,3.381,3.381,0,0,0,.548.36,1.793,1.793,0,0,0,.562.2,1.157,1.157,0,0,0,.547-.05,1.346,1.346,0,0,0,.531-.342,1.262,1.262,0,0,0,.333-.527,1.117,1.117,0,0,0,.038-.529,1.673,1.673,0,0,0-.219-.545,3.824,3.824,0,0,0-.375-.528q-.2-.237-.492-.527l-.281-.281,1.124-1.124.281.281a6.674,6.674,0,0,1,.964,1.179,3.425,3.425,0,0,1,.468,1.161,2.149,2.149,0,0,1-.112,1.188A3.414,3.414,0,0,1,31.383,83.955Z" transform="translate(-22.391 -35.999)"/>
            <path id="Path_1249" data-name="Path 1249" d="M38.772,77.117a2.623,2.623,0,0,1-2.59,2.59,3.569,3.569,0,0,1-1.911-1.128l-1.686-1.686a3.562,3.562,0,0,1-1.127-1.909,2.621,2.621,0,0,1,2.59-2.591,3.563,3.563,0,0,1,1.909,1.129l1.686,1.685A3.569,3.569,0,0,1,38.772,77.117ZM36.838,78.19a.822.822,0,0,0,.244-.173.8.8,0,0,0,.173-.244.727.727,0,0,0,.064-.235.526.526,0,0,0-.05-.248c-.039-.092-.077-.17-.112-.235a1.445,1.445,0,0,0-.185-.246c-.088-.1-.158-.177-.21-.234s-.133-.138-.242-.246l-1.686-1.686q-.162-.161-.246-.241c-.056-.053-.134-.123-.233-.21a1.474,1.474,0,0,0-.247-.184,2.413,2.413,0,0,0-.235-.112.526.526,0,0,0-.249-.05.753.753,0,0,0-.235.064.8.8,0,0,0-.244.173.784.784,0,0,0-.173.244.738.738,0,0,0-.064.235.525.525,0,0,0,.051.249c.039.092.077.171.111.235a1.405,1.405,0,0,0,.185.246c.087.1.158.177.211.233s.133.138.241.246L35.4,77.455c.109.109.19.189.247.242s.133.123.232.21a1.475,1.475,0,0,0,.247.184,2.449,2.449,0,0,0,.235.111.507.507,0,0,0,.248.05A.72.72,0,0,0,36.838,78.19Z" transform="translate(-24.639 -35.356)"/>
            <path id="Path_1250" data-name="Path 1250" d="M41.68,73.945l-5.62-5.62L37.184,67.2l.636.637a2.53,2.53,0,0,1,.685-2.117,1.2,1.2,0,0,1,.77-.414,1.386,1.386,0,0,1,.819.309,2.968,2.968,0,0,1,.044-1.15,2.222,2.222,0,0,1,.619-1,1.491,1.491,0,0,1,.281-.224,1.575,1.575,0,0,1,.264-.127.573.573,0,0,1,.268-.026,2.271,2.271,0,0,1,.255.044.934.934,0,0,1,.265.125c.1.066.188.123.253.169s.153.122.268.225.2.183.264.246l.276.276.062.062L47.3,68.326,46.174,69.45l-4.1-4.1-.07-.07c-.1-.1-.173-.17-.228-.219a1.5,1.5,0,0,0-.21-.153.324.324,0,0,0-.447.047,1.307,1.307,0,0,0-.275.411,2.048,2.048,0,0,0-.133.4c-.02.106-.04.243-.058.412l4.4,4.4L43.926,71.7l-4.078-4.079-.079-.078-.185-.185a1.54,1.54,0,0,0-.175-.145.719.719,0,0,0-.189-.105.361.361,0,0,0-.171,0,.339.339,0,0,0-.18.1,1.887,1.887,0,0,0-.487,1.2l4.421,4.42Z" transform="translate(-25.786 -33.049)"/>
            <path id="Path_1251" data-name="Path 1251" d="M43.417,59.343l-1.124-1.124L43.417,57.1l1.124,1.124Zm6.462,6.462-5.619-5.62,1.124-1.123L51,64.682Z" transform="translate(-27.334 -31.561)"/>
            <path id="Path_1252" data-name="Path 1252" d="M53.456,62.92,47.837,57.3l1.124-1.124.606.606c.015-.319.035-.571.06-.758a2.515,2.515,0,0,1,.208-.665,2.349,2.349,0,0,1,.487-.7,1.038,1.038,0,0,1,.848-.32,1.364,1.364,0,0,1,.869.422l4.79,4.79L55.7,60.671l-4.214-4.214a1.18,1.18,0,0,0-.512-.345.521.521,0,0,0-.472.2,1.074,1.074,0,0,0-.228.346,1.545,1.545,0,0,0-.1.323c-.013.081-.027.2-.042.362l4.447,4.447Z" transform="translate(-28.711 -30.875)"/>
            <path id="Path_1253" data-name="Path 1253" d="M62.951,56.747c-.141.141-.256.254-.345.34s-.213.2-.371.35a4.761,4.761,0,0,1-.415.349c-.118.086-.256.183-.413.29a1.879,1.879,0,0,1-.425.228,2.34,2.34,0,0,1-.392.1.757.757,0,0,1-.382-.026.856.856,0,0,1-.329-.211,1.712,1.712,0,0,1-.516-.985,2.372,2.372,0,0,1,.112-1.1,1.626,1.626,0,0,1-.581.209.524.524,0,0,1-.472-.138,1.093,1.093,0,0,1-.141-.176,2.073,2.073,0,0,1-.112-.191,1.283,1.283,0,0,1-.086-.226c-.026-.091-.047-.163-.062-.216a2.136,2.136,0,0,1-.047-.235c-.016-.1-.028-.174-.033-.213s-.014-.109-.024-.213-.019-.163-.022-.177a3.58,3.58,0,0,1-2.248-1.124,3.909,3.909,0,0,1-.855-1.225,2.277,2.277,0,0,1-.159-1.3,2.226,2.226,0,0,1,.654-1.2,2.154,2.154,0,0,1,.633-.455,1.655,1.655,0,0,1,.6-.159,2.481,2.481,0,0,1,.642.066,1.593,1.593,0,0,1,.289-1.608l.026-.026.033-.032.029-.029.918.918-.071.071q-.188.189-.281.29a1.418,1.418,0,0,0-.178.252.608.608,0,0,0-.086.293,3.041,3.041,0,0,1,.592.316,3.607,3.607,0,0,1,.584.465,4,4,0,0,1,.862,1.218,2.208,2.208,0,0,1,.159,1.291,2.266,2.266,0,0,1-.67,1.214l-.632.5a.767.767,0,0,1,.032.121c.014.06.026.109.036.145a.715.715,0,0,0,.052.126.493.493,0,0,0,.086.122.326.326,0,0,0,.3.083,1.064,1.064,0,0,0,.419-.187c.153-.1.3-.208.425-.316s.272-.23.426-.368.263-.232.327-.279q.286-.215.528-.365a3.419,3.419,0,0,1,.533-.265,1.625,1.625,0,0,1,.546-.126,1.337,1.337,0,0,1,.534.1,1.537,1.537,0,0,1,.528.357,1.887,1.887,0,0,1,.442.658,1.62,1.62,0,0,1,.111.686,2.147,2.147,0,0,1-.173.7,3.459,3.459,0,0,1-.389.682A5.389,5.389,0,0,1,62.951,56.747ZM58.53,52.888q.7-.7-.492-1.9a4.36,4.36,0,0,0-.476-.415,2.7,2.7,0,0,0-.505-.294.974.974,0,0,0-.527-.088.773.773,0,0,0-.458.235.788.788,0,0,0-.239.462.955.955,0,0,0,.09.525,2.783,2.783,0,0,0,.3.5,4.135,4.135,0,0,0,.414.477Q57.826,53.59,58.53,52.888Zm3.591,3.029c.079-.079.148-.151.209-.217s.126-.144.2-.235a1.52,1.52,0,0,0,.171-.255,1.337,1.337,0,0,0,.1-.244.456.456,0,0,0,.009-.241.446.446,0,0,0-.122-.208q-.47-.469-1.475.325l-1.036.818a1.392,1.392,0,0,0,.063.647,1.485,1.485,0,0,0,.367.608.239.239,0,0,0,.17.073A.439.439,0,0,0,61,56.921c.08-.046.159-.095.237-.149a2.256,2.256,0,0,0,.256-.213c.094-.087.173-.164.238-.228s.138-.141.221-.231S62.089,55.949,62.121,55.917Z" transform="translate(-30.391 -29.154)"/>
            <path id="Path_1254" data-name="Path 1254" d="M68.789,46.532a2.925,2.925,0,0,1-2.246,1,3.844,3.844,0,0,1-2.329-1.079l.843-1.4q1.769,1.6,2.81.562a1.053,1.053,0,0,0,0-1.685,2.154,2.154,0,0,0-.531-.4,1.76,1.76,0,0,0-.6-.182,3.766,3.766,0,0,0-.54-.03c-.147,0-.34.02-.577.047l-2.529.28A3.109,3.109,0,0,1,61.7,43.49a3.358,3.358,0,0,1-1.3-.834,2.573,2.573,0,0,1-.843-1.923,2.811,2.811,0,0,1,.918-1.944,3.268,3.268,0,0,1,1.988-1.055,2.9,2.9,0,0,1,2.02.628c.07.052.165.127.285.224l-.843,1.4c-.053-.047-.135-.114-.246-.2a2.41,2.41,0,0,0-1.194-.521,1.308,1.308,0,0,0-1.089.443,1.169,1.169,0,0,0-.4.85,1.224,1.224,0,0,0,.41.849,1.934,1.934,0,0,0,1.673.549l2.529-.281a3.842,3.842,0,0,1,3.3,1.049,2.461,2.461,0,0,1,.819,1.886A2.9,2.9,0,0,1,68.789,46.532Z" transform="translate(-31.624 -26.749)"/>
            <path id="Path_1255" data-name="Path 1255" d="M76.184,39.7a2.623,2.623,0,0,1-2.59,2.59,3.569,3.569,0,0,1-1.911-1.128L70,39.48a3.562,3.562,0,0,1-1.127-1.909,2.621,2.621,0,0,1,2.59-2.591,3.563,3.563,0,0,1,1.909,1.129l1.686,1.685A3.574,3.574,0,0,1,76.184,39.7Zm-1.935,1.073a.812.812,0,0,0,.244-.173.8.8,0,0,0,.173-.244.727.727,0,0,0,.064-.235.526.526,0,0,0-.05-.248c-.039-.092-.077-.17-.112-.235a1.445,1.445,0,0,0-.185-.246c-.088-.1-.158-.177-.21-.234s-.133-.138-.242-.246l-1.686-1.686q-.162-.161-.246-.241c-.056-.053-.134-.123-.233-.21a1.474,1.474,0,0,0-.247-.184,2.416,2.416,0,0,0-.235-.112.525.525,0,0,0-.249-.05.753.753,0,0,0-.235.064.9.9,0,0,0-.417.417.749.749,0,0,0-.064.234.525.525,0,0,0,.051.249c.039.092.077.171.111.235a1.406,1.406,0,0,0,.185.246c.087.1.158.177.211.233s.133.138.241.246l1.686,1.685c.109.109.19.189.247.242s.133.123.232.21a1.474,1.474,0,0,0,.247.184,2.449,2.449,0,0,0,.235.111.507.507,0,0,0,.248.05A.709.709,0,0,0,74.249,40.777Z" transform="translate(-33.931 -26.064)"/>
            <path id="Path_1256" data-name="Path 1256" d="M81.756,34.132a2.623,2.623,0,0,1-2.59,2.59,3.569,3.569,0,0,1-1.911-1.128L75.57,33.908A3.562,3.562,0,0,1,74.442,32a2.621,2.621,0,0,1,2.59-2.591,3.568,3.568,0,0,1,1.91,1.128l1.686,1.686A3.565,3.565,0,0,1,81.756,34.132Zm-1.934,1.073a.813.813,0,0,0,.244-.173.788.788,0,0,0,.173-.244.732.732,0,0,0,.064-.235.515.515,0,0,0-.05-.248c-.039-.092-.077-.171-.111-.235a1.52,1.52,0,0,0-.185-.245c-.088-.1-.158-.177-.21-.234s-.133-.138-.242-.246L77.818,31.66q-.162-.161-.246-.241c-.056-.053-.134-.123-.233-.21a1.565,1.565,0,0,0-.246-.185,2.449,2.449,0,0,0-.235-.111.526.526,0,0,0-.249-.05.733.733,0,0,0-.235.064.81.81,0,0,0-.244.173.776.776,0,0,0-.173.244.738.738,0,0,0-.064.235.527.527,0,0,0,.051.249c.039.092.077.171.111.235a1.445,1.445,0,0,0,.185.246c.087.1.158.177.21.233s.133.138.241.246l1.686,1.685q.163.163.247.242c.056.052.133.123.233.21a1.487,1.487,0,0,0,.246.185,2.45,2.45,0,0,0,.235.111.515.515,0,0,0,.248.05A.734.734,0,0,0,79.822,35.205Z" transform="translate(-35.315 -24.68)"/>
            <path id="Path_1257" data-name="Path 1257" d="M84.664,31.711l-5.619-5.62,1.124-1.124.606.606c.015-.319.035-.571.06-.758a2.523,2.523,0,0,1,.208-.665,2.348,2.348,0,0,1,.487-.7,1.038,1.038,0,0,1,.848-.32,1.364,1.364,0,0,1,.869.422l4.79,4.79-1.124,1.124L82.7,25.249a1.18,1.18,0,0,0-.512-.345.521.521,0,0,0-.472.2,1.074,1.074,0,0,0-.229.346,1.6,1.6,0,0,0-.1.323c-.013.08-.027.2-.041.362l4.447,4.447Z" transform="translate(-36.462 -23.123)"/>
          </g>
          <g id="Group_270" data-name="Group 270">
            <path id="Path_1268" data-name="Path 1268" d="M30.758,83.658a3.532,3.532,0,0,1-1.014.733,2.33,2.33,0,0,1-1.008.231,2.686,2.686,0,0,1-1.012-.226,4.72,4.72,0,0,1-1.006-.58,9.316,9.316,0,0,1-1.014-.891L23.46,80.682a9.337,9.337,0,0,1-.891-1.014,4.8,4.8,0,0,1-.58-1.006,2.672,2.672,0,0,1-.223-1.009A2.362,2.362,0,0,1,22,76.646a3.987,3.987,0,0,1,1.844-1.8,2.1,2.1,0,0,1,1.118-.161,3.133,3.133,0,0,1,1.093.374,5.757,5.757,0,0,1,1.118.831c.059.052.147.138.264.255l-1.124,1.124-.25-.25c-.158-.153-.3-.279-.415-.38a4.124,4.124,0,0,0-.389-.292,1.349,1.349,0,0,0-.4-.189,1.383,1.383,0,0,0-.386-.044.894.894,0,0,0-.407.116,1.868,1.868,0,0,0-.415.323,1.6,1.6,0,0,0-.38.555,1.125,1.125,0,0,0-.078.531,1.369,1.369,0,0,0,.2.54,3.86,3.86,0,0,0,.377.531q.205.24.529.564l2.81,2.81a6.87,6.87,0,0,0,.534.486,3.381,3.381,0,0,0,.548.36,1.792,1.792,0,0,0,.562.2,1.157,1.157,0,0,0,.547-.05,1.346,1.346,0,0,0,.531-.342,1.262,1.262,0,0,0,.333-.527,1.117,1.117,0,0,0,.038-.529,1.673,1.673,0,0,0-.219-.545,3.825,3.825,0,0,0-.375-.528q-.2-.237-.492-.527l-.281-.281,1.124-1.124.281.281a6.674,6.674,0,0,1,.964,1.179,3.425,3.425,0,0,1,.468,1.161,2.149,2.149,0,0,1-.112,1.188A3.414,3.414,0,0,1,30.758,83.658Z" transform="translate(-21.766 -35.702)" fill="url(#linear-gradient-4)"/>
            <path id="Path_1269" data-name="Path 1269" d="M38.147,76.82a2.623,2.623,0,0,1-2.59,2.59,3.569,3.569,0,0,1-1.911-1.128L31.961,76.6a3.562,3.562,0,0,1-1.127-1.909,2.621,2.621,0,0,1,2.59-2.591,3.563,3.563,0,0,1,1.909,1.129l1.686,1.685A3.572,3.572,0,0,1,38.147,76.82Zm-1.934,1.073a.822.822,0,0,0,.244-.173.8.8,0,0,0,.173-.244.727.727,0,0,0,.064-.235.526.526,0,0,0-.05-.248c-.039-.092-.077-.17-.112-.235a1.446,1.446,0,0,0-.185-.246c-.088-.1-.158-.177-.21-.234s-.133-.138-.242-.246l-1.686-1.686q-.162-.161-.246-.241c-.056-.053-.134-.123-.233-.21a1.475,1.475,0,0,0-.247-.184,2.413,2.413,0,0,0-.235-.112A.526.526,0,0,0,33,73.55a.753.753,0,0,0-.235.064.8.8,0,0,0-.244.173.784.784,0,0,0-.173.244.738.738,0,0,0-.064.235.525.525,0,0,0,.051.249c.039.092.077.171.111.235a1.405,1.405,0,0,0,.185.246c.087.1.158.177.211.233s.133.138.241.246l1.686,1.685c.109.109.19.189.247.242s.133.123.232.21a1.475,1.475,0,0,0,.247.184,2.449,2.449,0,0,0,.235.111.507.507,0,0,0,.248.05A.7.7,0,0,0,36.213,77.893Z" transform="translate(-24.014 -35.059)" fill="url(#linear-gradient-5)"/>
            <path id="Path_1270" data-name="Path 1270" d="M41.055,73.648l-5.62-5.62L36.559,66.9l.636.637a2.53,2.53,0,0,1,.685-2.117,1.2,1.2,0,0,1,.77-.414,1.386,1.386,0,0,1,.819.309,2.968,2.968,0,0,1,.044-1.15,2.222,2.222,0,0,1,.619-1,1.491,1.491,0,0,1,.281-.224,1.574,1.574,0,0,1,.264-.127.573.573,0,0,1,.268-.026,2.272,2.272,0,0,1,.255.044.934.934,0,0,1,.265.125c.1.066.188.123.253.169s.153.122.268.225.2.183.264.246l.276.276.062.062,4.087,4.087-1.124,1.124-4.1-4.1-.07-.07c-.1-.1-.173-.17-.228-.219a1.5,1.5,0,0,0-.21-.153.324.324,0,0,0-.447.047,1.307,1.307,0,0,0-.275.411,2.048,2.048,0,0,0-.133.4c-.02.106-.04.243-.058.412l4.4,4.4L43.3,71.4l-4.078-4.079-.079-.078-.185-.185a1.539,1.539,0,0,0-.175-.145.719.719,0,0,0-.189-.105.361.361,0,0,0-.171,0,.339.339,0,0,0-.18.1,1.887,1.887,0,0,0-.487,1.2l4.421,4.42Z" transform="translate(-25.161 -32.752)" fill="url(#linear-gradient-6)"/>
            <path id="Path_1271" data-name="Path 1271" d="M42.792,59.046l-1.124-1.124L42.792,56.8l1.124,1.124Zm6.462,6.462-5.619-5.62,1.124-1.123,5.619,5.619Z" transform="translate(-26.709 -31.264)" fill="url(#linear-gradient-7)"/>
            <path id="Path_1272" data-name="Path 1272" d="M52.831,62.623,47.212,57l1.124-1.124.606.606c.015-.319.035-.571.06-.758a2.515,2.515,0,0,1,.208-.665,2.349,2.349,0,0,1,.487-.7,1.038,1.038,0,0,1,.848-.32,1.364,1.364,0,0,1,.869.422l4.79,4.79L55.08,60.374l-4.214-4.214a1.18,1.18,0,0,0-.512-.345.521.521,0,0,0-.472.2,1.074,1.074,0,0,0-.228.347,1.545,1.545,0,0,0-.1.323c-.013.081-.027.2-.042.362L53.956,61.5Z" transform="translate(-28.086 -30.578)" fill="url(#linear-gradient-8)"/>
            <path id="Path_1273" data-name="Path 1273" d="M62.327,56.45c-.141.141-.256.254-.345.34s-.213.2-.371.35a4.763,4.763,0,0,1-.415.349c-.118.086-.256.183-.413.29a1.879,1.879,0,0,1-.425.228,2.34,2.34,0,0,1-.392.1.757.757,0,0,1-.382-.026.856.856,0,0,1-.329-.211,1.712,1.712,0,0,1-.516-.985,2.372,2.372,0,0,1,.112-1.1,1.626,1.626,0,0,1-.581.209.524.524,0,0,1-.472-.138,1.092,1.092,0,0,1-.141-.176,2.073,2.073,0,0,1-.112-.191,1.283,1.283,0,0,1-.086-.226c-.026-.091-.047-.163-.062-.216a2.135,2.135,0,0,1-.047-.235c-.016-.1-.028-.174-.033-.213s-.014-.109-.024-.213-.017-.163-.02-.177a3.58,3.58,0,0,1-2.248-1.124,3.909,3.909,0,0,1-.855-1.225,2.277,2.277,0,0,1-.159-1.3,2.226,2.226,0,0,1,.654-1.2A2.154,2.154,0,0,1,55.3,48.9a1.655,1.655,0,0,1,.6-.159,2.481,2.481,0,0,1,.642.066,1.593,1.593,0,0,1,.289-1.608l.026-.026.033-.032.029-.029.918.918-.071.071q-.188.189-.281.29a1.418,1.418,0,0,0-.178.252.608.608,0,0,0-.086.293,3.041,3.041,0,0,1,.592.316,3.606,3.606,0,0,1,.584.465,4,4,0,0,1,.862,1.218,2.208,2.208,0,0,1,.159,1.291,2.266,2.266,0,0,1-.67,1.214l-.632.5a.768.768,0,0,1,.032.121c.014.06.026.109.036.145a.715.715,0,0,0,.052.126.493.493,0,0,0,.086.122.326.326,0,0,0,.3.083,1.064,1.064,0,0,0,.419-.187c.153-.1.3-.208.425-.316s.272-.23.426-.368.263-.232.327-.279q.286-.215.528-.365a3.419,3.419,0,0,1,.533-.265,1.625,1.625,0,0,1,.546-.126,1.337,1.337,0,0,1,.534.1,1.537,1.537,0,0,1,.528.357,1.887,1.887,0,0,1,.442.658,1.62,1.62,0,0,1,.111.686,2.147,2.147,0,0,1-.173.7,3.459,3.459,0,0,1-.389.682A5.63,5.63,0,0,1,62.327,56.45Zm-4.421-3.859q.7-.7-.492-1.9a4.361,4.361,0,0,0-.476-.415,2.7,2.7,0,0,0-.505-.294.974.974,0,0,0-.527-.088.773.773,0,0,0-.458.235.788.788,0,0,0-.239.462.955.955,0,0,0,.09.525,2.784,2.784,0,0,0,.3.5,4.133,4.133,0,0,0,.414.477Q57.2,53.295,57.906,52.591Zm3.591,3.03c.079-.079.148-.151.209-.217s.126-.144.2-.235a1.52,1.52,0,0,0,.171-.255,1.336,1.336,0,0,0,.1-.244.456.456,0,0,0,.009-.241.446.446,0,0,0-.122-.208q-.47-.469-1.475.325l-1.036.818a1.392,1.392,0,0,0,.063.647,1.485,1.485,0,0,0,.367.608.239.239,0,0,0,.17.073.439.439,0,0,0,.219-.066c.08-.046.159-.095.237-.149a2.256,2.256,0,0,0,.256-.213c.094-.087.173-.164.238-.228s.138-.141.221-.231S61.464,55.653,61.5,55.621Z" transform="translate(-29.767 -28.857)" fill="url(#linear-gradient-9)"/>
            <path id="Path_1274" data-name="Path 1274" d="M68.164,46.235a2.925,2.925,0,0,1-2.246,1,3.844,3.844,0,0,1-2.329-1.079l.843-1.4q1.769,1.6,2.81.562a1.053,1.053,0,0,0,0-1.685,2.154,2.154,0,0,0-.531-.4,1.76,1.76,0,0,0-.6-.182,3.766,3.766,0,0,0-.54-.03c-.147,0-.34.02-.577.047l-2.528.28a3.109,3.109,0,0,1-1.387-.153,3.358,3.358,0,0,1-1.3-.834,2.573,2.573,0,0,1-.843-1.923,2.811,2.811,0,0,1,.918-1.944,3.268,3.268,0,0,1,1.988-1.055,2.9,2.9,0,0,1,2.02.628c.07.052.165.127.285.224l-.843,1.4c-.053-.047-.135-.114-.246-.2a2.41,2.41,0,0,0-1.194-.521,1.308,1.308,0,0,0-1.089.443,1.169,1.169,0,0,0-.4.85,1.224,1.224,0,0,0,.41.849,1.934,1.934,0,0,0,1.673.549L65,41.38a3.842,3.842,0,0,1,3.3,1.049,2.461,2.461,0,0,1,.819,1.886A2.9,2.9,0,0,1,68.164,46.235Z" transform="translate(-30.999 -26.452)" fill="url(#linear-gradient-10)"/>
            <path id="Path_1275" data-name="Path 1275" d="M75.559,39.408A2.623,2.623,0,0,1,72.969,42a3.569,3.569,0,0,1-1.911-1.128l-1.686-1.686a3.562,3.562,0,0,1-1.127-1.909,2.621,2.621,0,0,1,2.59-2.591,3.563,3.563,0,0,1,1.909,1.129L74.43,37.5A3.569,3.569,0,0,1,75.559,39.408Zm-1.935,1.073a.812.812,0,0,0,.244-.173.8.8,0,0,0,.173-.244.727.727,0,0,0,.064-.235.526.526,0,0,0-.05-.248c-.039-.092-.077-.17-.112-.235a1.445,1.445,0,0,0-.185-.246c-.088-.1-.158-.177-.21-.234s-.133-.138-.242-.246L71.62,36.935q-.162-.161-.246-.241c-.056-.053-.134-.123-.233-.21a1.474,1.474,0,0,0-.247-.184,2.417,2.417,0,0,0-.235-.112.526.526,0,0,0-.249-.05.753.753,0,0,0-.234.064.9.9,0,0,0-.417.417.749.749,0,0,0-.064.234.525.525,0,0,0,.051.249c.039.092.077.171.111.235a1.406,1.406,0,0,0,.185.246c.087.1.158.177.211.233s.133.138.241.246l1.686,1.685c.109.109.19.189.247.242s.133.123.232.21a1.474,1.474,0,0,0,.247.184,2.45,2.45,0,0,0,.235.111.507.507,0,0,0,.248.05A.709.709,0,0,0,73.624,40.481Z" transform="translate(-33.306 -25.767)" fill="url(#linear-gradient-11)"/>
            <path id="Path_1276" data-name="Path 1276" d="M81.131,33.835a2.623,2.623,0,0,1-2.59,2.59A3.569,3.569,0,0,1,76.63,35.3l-1.686-1.686A3.562,3.562,0,0,1,73.817,31.7a2.621,2.621,0,0,1,2.59-2.591,3.568,3.568,0,0,1,1.91,1.128L80,31.925A3.565,3.565,0,0,1,81.131,33.835ZM79.2,34.908a.812.812,0,0,0,.244-.173.788.788,0,0,0,.173-.244.732.732,0,0,0,.064-.235.515.515,0,0,0-.05-.248c-.039-.092-.077-.171-.111-.235a1.519,1.519,0,0,0-.185-.245c-.088-.1-.158-.177-.21-.234s-.133-.138-.242-.246l-1.686-1.686q-.162-.161-.246-.241c-.056-.053-.134-.123-.233-.21a1.566,1.566,0,0,0-.246-.185,2.448,2.448,0,0,0-.235-.111.526.526,0,0,0-.249-.05.733.733,0,0,0-.234.064.81.81,0,0,0-.244.173.776.776,0,0,0-.173.244.738.738,0,0,0-.064.235.527.527,0,0,0,.051.249c.039.092.077.171.111.235a1.445,1.445,0,0,0,.185.246c.087.1.158.177.21.233s.133.138.241.246l1.686,1.685q.163.163.247.242c.056.052.133.123.233.21a1.487,1.487,0,0,0,.246.185,2.452,2.452,0,0,0,.235.111.515.515,0,0,0,.248.05A.734.734,0,0,0,79.2,34.908Z" transform="translate(-34.69 -24.383)" fill="url(#linear-gradient-12)"/>
            <path id="Path_1277" data-name="Path 1277" d="M84.039,31.414l-5.619-5.62,1.124-1.124.606.606c.015-.319.035-.571.06-.758a2.523,2.523,0,0,1,.208-.665,2.349,2.349,0,0,1,.487-.7,1.038,1.038,0,0,1,.848-.32,1.364,1.364,0,0,1,.869.422l4.79,4.79-1.124,1.124-4.214-4.214a1.18,1.18,0,0,0-.512-.345.521.521,0,0,0-.472.2,1.074,1.074,0,0,0-.228.346,1.6,1.6,0,0,0-.1.323c-.013.08-.027.2-.041.362l4.447,4.447Z" transform="translate(-35.837 -22.826)" fill="url(#linear-gradient-13)"/>
          </g>
        </g>
      </g>
    </g>
    <g transform="matrix(1, 0, 0, 1, 182, 292)" filter="url(#Icon_material-lock)">
      <path id="Icon_material-lock-2" data-name="Icon material-lock" d="M39.1,18.05H36.736V13.321a11.821,11.821,0,1,0-23.643,0V18.05H10.729A4.742,4.742,0,0,0,6,22.779V46.421a4.742,4.742,0,0,0,4.729,4.729H39.1a4.742,4.742,0,0,0,4.729-4.729V22.779A4.742,4.742,0,0,0,39.1,18.05ZM24.914,39.328A4.729,4.729,0,1,1,29.643,34.6,4.742,4.742,0,0,1,24.914,39.328ZM32.243,18.05H17.585V13.321a7.329,7.329,0,0,1,14.659,0Z" transform="translate(68.13 69.92)" fill="#fff"/>
    </g>
  </g>
</svg>
