<svg id="Component_4_3" data-name="Component 4 – 3" xmlns="http://www.w3.org/2000/svg" width="24.962" height="34.642" viewBox="0 0 24.962 34.642">
  <path id="Subtraction_5" data-name="Subtraction 5" d="M12.482,28.812C7.124,28.812,0,27.692,0,18.008,0,9.68,5.452,0,12.482,0S24.963,9.68,24.963,18.008C24.963,27.692,17.84,28.812,12.482,28.812Zm-2.536-13.7a.246.246,0,0,0-.215.268v1.183a.305.305,0,0,0,.069.2l2.947,3.4a.194.194,0,0,0,.144.071h1.474a.217.217,0,0,0,.2-.17.311.311,0,0,0-.054-.3l-2.694-3.109c1.371-.053,2.339-1.172,2.468-2.856h.943a.245.245,0,0,0,.215-.267v-.894a.246.246,0,0,0-.215-.268H14.183a3.541,3.541,0,0,0-.255-.713h1.3a.246.246,0,0,0,.215-.268V10.5a.246.246,0,0,0-.215-.268H9.946a.246.246,0,0,0-.215.268v1a.245.245,0,0,0,.215.267h1.523a1.2,1.2,0,0,1,1.089.608H9.946a.246.246,0,0,0-.215.268v.894a.245.245,0,0,0,.215.267h2.835a1.324,1.324,0,0,1-1.335,1.309Z" transform="translate(0 5.83)" fill="#eabd5b"/>
  <g id="money-bag" transform="translate(8.785 0)">
    <g id="Group_89" data-name="Group 89" transform="translate(0)">
      <g id="Group_88" data-name="Group 88">
        <path id="Path_844" data-name="Path 844" d="M166.613.464a11.849,11.849,0,0,0-6.564,0,.575.575,0,0,0-.335.844l.87,1.558a8,8,0,0,1,5.493,0l.871-1.559A.575.575,0,0,0,166.613.464Z" transform="translate(-159.634 0)" fill="#eabd5b"/>
      </g>
    </g>
    <g id="Group_91" data-name="Group 91" transform="translate(0.29 3.54)">
      <g id="Group_90" data-name="Group 90" transform="translate(0)">
        <path id="Path_845" data-name="Path 845" d="M173.279,92.857a6.439,6.439,0,0,0-5.351,0,1.708,1.708,0,0,0-.728,1.422,7.67,7.67,0,0,1,3.407-.867,7.234,7.234,0,0,1,3.407.867A1.707,1.707,0,0,0,173.279,92.857Z" transform="translate(-167.2 -92.276)" fill="#eabd5b"/>
      </g>
    </g>
  </g>
</svg>
