<svg xmlns="http://www.w3.org/2000/svg" width="32.53" height="40.599" viewBox="0 0 32.53 40.599">
  <g id="radar" transform="translate(-50.88)">
    <g id="Group_9" data-name="Group 9" transform="translate(50.88 8.068)">
      <g id="Group_8" data-name="Group 8">
        <path id="Path_31" data-name="Path 31" d="M75.087,121.893l-7.1-7.1,1.827-5.075a4.093,4.093,0,0,0,5.278-5.075,3.949,3.949,0,0,0-3.045-2.842,4.187,4.187,0,0,0-4.872,4.06,5.927,5.927,0,0,0,.406,1.827l-4.466,2.233-8.12-8.12a14.586,14.586,0,0,0,0,20.3,14.224,14.224,0,0,0,2.03,1.624v6.5a6.62,6.62,0,0,0-6.09,4.06H69a6.62,6.62,0,0,0-6.09-4.06v-4.263A14.344,14.344,0,0,0,75.087,121.893Z" transform="translate(-50.88 -101.744)" fill="#eabd5b"/>
      </g>
    </g>
    <g id="Group_11" data-name="Group 11" transform="translate(69.2)">
      <g id="Group_10" data-name="Group 10">
        <path id="Path_32" data-name="Path 32" d="M283.95,0a2.03,2.03,0,1,0,0,4.06,8.144,8.144,0,0,1,8.12,8.12,2.034,2.034,0,0,0,2.03,2.03,2.183,2.183,0,0,0,2.03-2.03A12.215,12.215,0,0,0,283.95,0Z" transform="translate(-281.92)" fill="#eabd5b"/>
      </g>
    </g>
  </g>
</svg>
