<svg id="electric-current-symbol" xmlns="http://www.w3.org/2000/svg" width="20.511" height="34.538" viewBox="0 0 20.511 34.538">
  <path id="Path_837" data-name="Path 837" d="M101.23.781A1.641,1.641,0,0,0,99.758,0H91.845a2.707,2.707,0,0,0-2.334,1.467L81.119,18.9a1.687,1.687,0,0,0,.041,1.65,1.71,1.71,0,0,0,1.461.777l6.21.078-4.5,11.238a1.479,1.479,0,0,0,.071,1.472.993.993,0,0,0,.812.427h.073a1.5,1.5,0,0,0,1.148-.682l14.527-18.242a1.483,1.483,0,0,0-1.207-2.509H95.136l6.049-10.658A1.643,1.643,0,0,0,101.23.781Z" transform="translate(-80.924)" fill="#eabd5b"/>
</svg>
