<svg xmlns="http://www.w3.org/2000/svg" xmlns:xlink="http://www.w3.org/1999/xlink" width="41" height="41" viewBox="0 0 41 41">
  <defs>
    <filter id="Ellipse_72" x="0" y="0" width="41" height="41" filterUnits="userSpaceOnUse">
      <feOffset input="SourceAlpha"/>
      <feGaussianBlur stdDeviation="1.5" result="blur"/>
      <feFlood flood-opacity="0.161"/>
      <feComposite operator="in" in2="blur"/>
      <feComposite in="SourceGraphic"/>
    </filter>
  </defs>
  <g id="Group_269" data-name="Group 269" transform="translate(-22.5 -309.5)">
    <g transform="matrix(1, 0, 0, 1, 22.5, 309.5)" filter="url(#Ellipse_72)">
      <circle id="Ellipse_72-2" data-name="Ellipse 72" cx="16" cy="16" r="16" transform="translate(4.5 4.5)" fill="#2e2e2e"/>
    </g>
    <path id="Icon_material-mail" data-name="Icon material-mail" d="M17.767,6H4.641A1.639,1.639,0,0,0,3.008,7.641L3,17.485a1.646,1.646,0,0,0,1.641,1.641H17.767a1.646,1.646,0,0,0,1.641-1.641V7.641A1.646,1.646,0,0,0,17.767,6Zm0,3.281-6.563,4.1-6.563-4.1V7.641l6.563,4.1,6.563-4.1Z" transform="translate(31.796 317.437)" fill="#eabd5b"/>
  </g>
</svg>
