<svg xmlns="http://www.w3.org/2000/svg" width="36.299" height="32.046" viewBox="0 0 36.299 32.046">
  <g id="XMLID_4085_" transform="translate(0 -29.876)">
    <path id="XMLID_4094_" d="M28.816,44.838A14.3,14.3,0,0,0,24.6,34.112a14.452,14.452,0,0,0-6.335-3.7h-.005A14.419,14.419,0,0,0,6.226,56.171v-.3a8.2,8.2,0,0,1,4.616-7.366,5.516,5.516,0,1,1,7.139,0,8.225,8.225,0,0,1,2.261,1.626A9.62,9.62,0,0,1,28.816,44.838Z" transform="translate(0 0)" fill="#eabd5b"/>
    <path id="XMLID_4201_" d="M128.518,312.743a6.049,6.049,0,0,0-11.058,3.392v1.521a14.479,14.479,0,0,0,11.416.291,9.622,9.622,0,0,1-.358-5.2Z" transform="translate(-109.099 -260.264)" fill="#eabd5b"/>
    <circle id="XMLID_4202_" cx="3.381" cy="3.381" r="3.381" transform="translate(11.03 40.923)" fill="#eabd5b"/>
    <path id="XMLID_4206_" d="M307.434,270.085a7.474,7.474,0,1,0,7.474,7.474A7.474,7.474,0,0,0,307.434,270.085Zm-.755,10.494-3.02-3.02,1.51-1.51,1.51,1.51,3.02-3.02,1.51,1.51Z" transform="translate(-278.609 -223.111)" fill="#eabd5b"/>
  </g>
</svg>
