<svg width="512" height="512" viewBox="0 0 512 512" fill="none" xmlns="http://www.w3.org/2000/svg">
<path d="M436.891 74.8669C337.072 -24.9521 174.683 -24.9521 74.864 74.8669C-24.955 174.664 -24.955 337.096 74.864 436.894C124.763 486.814 190.32 511.753 255.877 511.753C321.434 511.753 386.992 486.814 436.89 436.894C536.709 337.096 536.709 174.664 436.891 74.8669ZM255.877 426.547C244.101 426.547 234.544 416.99 234.544 405.214C234.544 393.438 244.101 383.881 255.877 383.881C267.653 383.881 277.21 393.438 277.21 405.214C277.21 416.99 267.653 426.547 255.877 426.547ZM277.211 319.88C277.211 331.656 267.675 341.213 255.878 341.213C244.081 341.213 234.545 331.656 234.545 319.88V106.547C234.545 94.7709 244.081 85.2139 255.878 85.2139C267.675 85.2139 277.211 94.7709 277.211 106.547V319.88Z" fill="#EBBD5A"/>
</svg>
