<svg xmlns="http://www.w3.org/2000/svg" xmlns:xlink="http://www.w3.org/1999/xlink" width="324.396" height="171.992" viewBox="0 0 324.396 171.992">
  <defs>
    <linearGradient id="linear-gradient" x1="2.996" y1="-0.889" x2="-0.707" y2="1.461" gradientUnits="objectBoundingBox">
      <stop offset="0" stop-color="#53cd9f"/>
      <stop offset="1" stop-color="#0d7a5c"/>
    </linearGradient>
    <linearGradient id="linear-gradient-2" x1="1.454" y1="-0.609" x2="-1.192" y2="2.35" xlink:href="#linear-gradient"/>
    <linearGradient id="linear-gradient-3" x1="2.406" y1="-2" x2="-1.989" y2="3.468" gradientUnits="objectBoundingBox">
      <stop offset="0" stop-color="#c7a44f"/>
      <stop offset="1" stop-color="#609a3f"/>
    </linearGradient>
    <linearGradient id="linear-gradient-4" x1="12.141" y1="-5.637" x2="-3.463" y2="2.502" gradientUnits="objectBoundingBox">
      <stop offset="0" stop-color="#fb9a2b"/>
      <stop offset="1" stop-color="#e65925"/>
    </linearGradient>
    <linearGradient id="linear-gradient-5" x1="6.183" y1="-10.884" x2="-1.57" y2="4.75" xlink:href="#linear-gradient-4"/>
    <linearGradient id="linear-gradient-6" x1="5.712" y1="-9.927" x2="-2.071" y2="5.671" xlink:href="#linear-gradient-4"/>
    <linearGradient id="linear-gradient-7" x1="2.246" y1="-3.418" x2="-0.024" y2="1.676" xlink:href="#linear-gradient-3"/>
    <linearGradient id="linear-gradient-8" x1="0" y1="0.5" x2="1" y2="0.5" xlink:href="#linear-gradient"/>
    <linearGradient id="linear-gradient-9" x1="1.001" y1="-0.048" x2="-0.387" y2="2.511" xlink:href="#linear-gradient-4"/>
    <linearGradient id="linear-gradient-10" x1="1.207" y1="-0.762" x2="0.011" y2="1.721" xlink:href="#linear-gradient-4"/>
    <linearGradient id="linear-gradient-11" x1="3.415" y1="-2.434" x2="-2.057" y2="3.074" xlink:href="#linear-gradient-4"/>
    <linearGradient id="linear-gradient-12" y1="0.5" x2="1" y2="0.5" gradientUnits="objectBoundingBox">
      <stop offset="0" stop-color="#00503e"/>
      <stop offset="1" stop-color="#023222"/>
    </linearGradient>
    <linearGradient id="linear-gradient-13" x1="1.149" y1="-0.002" x2="0.407" y2="0.535" xlink:href="#linear-gradient"/>
    <linearGradient id="linear-gradient-14" x1="1.004" y1="-1.377" x2="-0.062" y2="2.535" xlink:href="#linear-gradient"/>
    <linearGradient id="linear-gradient-16" x1="9.852" y1="-1.371" x2="-4.875" y2="1.575" xlink:href="#linear-gradient-4"/>
    <linearGradient id="linear-gradient-17" x1="13.578" y1="-0.37" x2="1.795" y2="0.414" xlink:href="#linear-gradient-4"/>
    <linearGradient id="linear-gradient-18" x1="1.134" y1="-0.001" x2="0.175" y2="0.757" gradientUnits="objectBoundingBox">
      <stop offset="0" stop-color="#c9cd55"/>
      <stop offset="0.507" stop-color="#659c52"/>
      <stop offset="1" stop-color="#287f50"/>
    </linearGradient>
    <linearGradient id="linear-gradient-19" x1="0" y1="0.5" x2="1" y2="0.5" xlink:href="#linear-gradient-4"/>
    <linearGradient id="linear-gradient-21" x1="1.187" y1="-0.641" x2="-0.673" y2="2.448" xlink:href="#linear-gradient-4"/>
    <linearGradient id="linear-gradient-22" x1="3.818" y1="-3.864" x2="-1.059" y2="2.401" xlink:href="#linear-gradient-3"/>
    <linearGradient id="linear-gradient-23" x1="0" y1="0.5" x2="1" y2="0.5" xlink:href="#linear-gradient"/>
    <linearGradient id="linear-gradient-24" x1="0" y1="0.5" x2="1" y2="0.5" xlink:href="#linear-gradient-3"/>
    <linearGradient id="linear-gradient-25" x1="0" y1="0.5" x2="1" y2="0.5" xlink:href="#linear-gradient-4"/>
    <linearGradient id="linear-gradient-28" y1="0.5" x2="1" y2="0.5" gradientUnits="objectBoundingBox">
      <stop offset="0" stop-color="#dcdc00"/>
      <stop offset="1" stop-color="#ffd240"/>
    </linearGradient>
    <linearGradient id="linear-gradient-29" x1="1.231" y1="-0.806" x2="-1.465" y2="5.402" xlink:href="#linear-gradient-4"/>
    <linearGradient id="linear-gradient-31" x1="5.122" y1="-5.311" x2="-8.696" y2="12.063" xlink:href="#linear-gradient-4"/>
    <linearGradient id="linear-gradient-32" x1="1.156" y1="-0.305" x2="0.22" y2="0.777" gradientUnits="objectBoundingBox">
      <stop offset="0" stop-color="#14f93a"/>
      <stop offset="1" stop-color="#3f9a60"/>
    </linearGradient>
    <linearGradient id="linear-gradient-33" x1="0.51" y1="0.164" x2="0.377" y2="4.791" xlink:href="#linear-gradient-3"/>
    <linearGradient id="linear-gradient-34" x1="14.333" y1="-2.957" x2="-22.856" y2="6.337" xlink:href="#linear-gradient-4"/>
    <linearGradient id="linear-gradient-35" x1="17.142" y1="-0.883" x2="-12.607" y2="1.589" xlink:href="#linear-gradient-4"/>
    <linearGradient id="linear-gradient-37" x1="1.863" y1="-0.981" x2="-1.581" y2="2.761" xlink:href="#linear-gradient"/>
    <linearGradient id="linear-gradient-40" x1="0" y1="0.5" x2="1" y2="0.5" xlink:href="#linear-gradient-12"/>
    <linearGradient id="linear-gradient-41" x1="4.288" y1="-0.641" x2="-3.881" y2="1.947" xlink:href="#linear-gradient-4"/>
    <linearGradient id="linear-gradient-43" x1="1.998" y1="0.141" x2="-0.801" y2="0.869" xlink:href="#linear-gradient-4"/>
    <linearGradient id="linear-gradient-44" x1="1.521" y1="0.261" x2="0.085" y2="0.647" xlink:href="#linear-gradient-4"/>
    <linearGradient id="linear-gradient-45" x1="0" y1="0.5" x2="1" y2="0.5" xlink:href="#linear-gradient-12"/>
    <linearGradient id="linear-gradient-48" x1="1.053" y1="0.075" x2="-0.374" y2="0.763" gradientUnits="objectBoundingBox">
      <stop offset="0" stop-color="#f56d6d"/>
      <stop offset="1" stop-color="red"/>
    </linearGradient>
    <linearGradient id="linear-gradient-52" x1="0" y1="0.5" x2="1" y2="0.5" xlink:href="#linear-gradient-4"/>
    <linearGradient id="linear-gradient-53" x1="0" y1="0.5" x2="1" y2="0.5" xlink:href="#linear-gradient-4"/>
    <linearGradient id="linear-gradient-54" x1="0" y1="0.5" x2="1" y2="0.5" xlink:href="#linear-gradient-4"/>
    <linearGradient id="linear-gradient-55" x1="0" y1="0.5" x2="1" y2="0.5" xlink:href="#linear-gradient-4"/>
    <linearGradient id="linear-gradient-57" x1="0" y1="0.5" x2="1" y2="0.5" xlink:href="#linear-gradient-4"/>
    <linearGradient id="linear-gradient-59" x1="0" y1="0.5" x2="1" y2="0.5" xlink:href="#linear-gradient-4"/>
    <linearGradient id="linear-gradient-60" x1="0" y1="0.5" x2="1" y2="0.5" xlink:href="#linear-gradient"/>
    <linearGradient id="linear-gradient-62" x1="1.496" y1="0.002" x2="0.254" y2="0.591" gradientUnits="objectBoundingBox">
      <stop offset="0" stop-color="#df2525"/>
      <stop offset="1" stop-color="#823f9a"/>
    </linearGradient>
    <linearGradient id="linear-gradient-63" y1="0.5" x2="1" y2="0.5" gradientUnits="objectBoundingBox">
      <stop offset="0" stop-color="#53cd9f"/>
      <stop offset="1" stop-color="#0963ff"/>
    </linearGradient>
  </defs>
  <g id="Layer_1" transform="translate(-111.975 -81.15)">
    <g id="Group_326" data-name="Group 326" transform="translate(111.975 81.15)">
      <path id="Path_1346" data-name="Path 1346" d="M1060.594,836.037a16.53,16.53,0,0,0-6.786,6.285c-2.425,4.3-2.922,10.26-2.922,10.26l7.459.076S1053.785,847,1060.594,836.037Z" transform="translate(-905.998 -719.547)" fill="url(#linear-gradient)"/>
      <g id="Group_288" data-name="Group 288" transform="translate(0 170.368)">
        <path id="Path_1347" data-name="Path 1347" d="M436.371,1185.991a.785.785,0,0,0-.756-.812H112.892a.818.818,0,1,0,0,1.624H435.615a.785.785,0,0,0,.756-.812Z" transform="translate(-111.975 -1185.179)" fill="#c68900"/>
      </g>
      <path id="Path_1348" data-name="Path 1348" d="M1095.045,784.7l-1.584-3.745-3.983-.818a.559.559,0,0,1-.254-.969l3.072-2.664-.452-4.041a.559.559,0,0,1,.844-.541l3.482,2.1,3.7-1.679a.559.559,0,0,1,.775.635l-.92,3.961,2.741,3a.559.559,0,0,1-.365.933l-4.051.349-2.009,3.535A.559.559,0,0,1,1095.045,784.7Z" transform="translate(-938.258 -665.258)" fill="url(#linear-gradient-2)"/>
      <path id="Path_1349" data-name="Path 1349" d="M1024.452,484l1.42-2.4-1.171-2.53a.383.383,0,0,1,.431-.535l2.721.609,2.044-1.9a.383.383,0,0,1,.642.245l.261,2.776,2.435,1.359a.383.383,0,0,1-.035.686l-2.559,1.106-.54,2.735a.383.383,0,0,1-.663.179l-1.843-2.092-2.768.332A.383.383,0,0,1,1024.452,484Z" transform="translate(-883.597 -416.035)" fill="url(#linear-gradient-3)"/>
      <path id="Path_1350" data-name="Path 1350" d="M1170.958,628.284l-2.844,1.9,1.591,2.761-2.719,1.993,1.194,2.826-1.79,1.825.923.906,2.4-2.44-1.131-2.678,2.827-2.073-1.563-2.715,2.577-1.719Z" transform="translate(-1003.678 -543.853)" fill="url(#linear-gradient-4)"/>
      <path id="Path_1351" data-name="Path 1351" d="M1255.765,716.356l-3.3-.908-1.046,3.009-3.285-.751-1.356,2.752-2.551-.16-.08,1.291,3.412.214,1.284-2.608,3.418.782,1.029-2.96,2.987.823Z" transform="translate(-1069.439 -617.567)" fill="url(#linear-gradient-5)"/>
      <path id="Path_1352" data-name="Path 1352" d="M695.923,114.851l-1.8-2.9-2.811,1.5-1.9-2.782-2.863,1.1-1.765-1.849-.936.894,2.361,2.472,2.713-1.045,1.981,2.894,2.764-1.476,1.636,2.631Z" transform="translate(-595.592 -105.481)" fill="url(#linear-gradient-6)"/>
      <path id="Path_1353" data-name="Path 1353" d="M1222.67,818.864l1.3,2.43,2.805-.157,1.267,2.827,2.938-1.09,1.572,3.135,2.829-.669,2.006,2.768-1.048.759-1.5-2.07-2.984.706-1.512-3.013-2.987,1.107-1.4-3.12-2.741.153-1.207-2.252-1.779.477-.335-1.25Z" transform="translate(-1048.931 -705.024)" fill="url(#linear-gradient-7)"/>
      <path id="Path_1354" data-name="Path 1354" d="M980.071,844.427l-2.072.21-.707-3.3-3.067-.066-.932-2.38-1.205.472,1.247,3.183,2.906.063.736,3.429,3.117-.316Z" transform="translate(-839.36 -721.964)" fill="#50bfa5"/>
      <path id="Path_1355" data-name="Path 1355" d="M1482.586,193.528l-.775,1.932-3.248-.9-1.481,2.686-2.542-.279-.14,1.286,3.4.373,1.4-2.545,3.378.94,1.167-2.908Z" transform="translate(-1264.158 -176.186)" fill="url(#linear-gradient-8)"/>
      <g id="Group_291" data-name="Group 291" transform="translate(153.93 141.182)">
        <g id="Group_289" data-name="Group 289" transform="translate(19.795 0.204)">
          <path id="Path_1356" data-name="Path 1356" d="M1242.681,997.375c-.958.189-4.788,5.32-4.788,5.32l-.135.355s6.928-.77,7.179-1.066C1245.615,1001.183,1243.468,997.22,1242.681,997.375Zm-4.739,5.429a37.476,37.476,0,0,1,4.767-4.476,7.855,7.855,0,0,1,1.5,3C1243.417,1001.489,1239.964,1002.56,1237.942,1002.8Z" transform="translate(-1237.758 -997.37)" fill="url(#linear-gradient-9)"/>
        </g>
        <g id="Group_290" data-name="Group 290" transform="translate(10.587)">
          <path id="Path_1357" data-name="Path 1357" d="M1182.939,997.135c-1.885-1.23-2.4-1.22-2.951-.909s-2.574,3.217-1.669,4.123,8.085,1.552,8.085,1.552l.162-.439S1184.823,998.363,1182.939,997.135Zm-3.373,2.893c-.419-.417.624-2.157,1.1-2.527.121-.068,4.951,3.005,5.625,4.055C1183.594,1001.264,1179.956,1000.375,1179.566,1000.028Z" transform="translate(-1178.089 -996.05)" fill="url(#linear-gradient-10)"/>
        </g>
        <path id="Path_1358" data-name="Path 1358" d="M1228.367,1028.332h.4a.725.725,0,0,0,.725-.725v-1.188a.725.725,0,0,0-.725-.725h-.4a.725.725,0,0,0-.725.725v1.188A.724.724,0,0,0,1228.367,1028.332Z" transform="translate(-1209.408 -1021.119)" fill="url(#linear-gradient-11)"/>
        <path id="Path_1359" data-name="Path 1359" d="M1143.757,1033.781l-32.845-.1a1.426,1.426,0,0,0-1.413,1.64l.508,3.352,1.646,0,.992,16.866a1.707,1.707,0,0,0,1.7,1.607h26.215l1.09-18.536,1.551,0Z" transform="translate(-1109.483 -1027.876)" fill="url(#linear-gradient-12)"/>
        <path id="Path_1360" data-name="Path 1360" d="M1198.36,1059.6h-20.122l-1.077-23.014h23.908l-1,21.414A1.7,1.7,0,0,1,1198.36,1059.6Z" transform="translate(-1166.716 -1030.328)" fill="url(#linear-gradient-13)"/>
        <path id="Path_1361" data-name="Path 1361" d="M1193,1038.662l-25.954.069-.593-4.993,25.425.1a1.425,1.425,0,0,1,1.414,1.552Z" transform="translate(-1157.662 -1027.921)" fill="url(#linear-gradient-14)"/>
        <path id="Path_1362" data-name="Path 1362" d="M1170.29,1065.719l24.755-.07-23.97,1.309Z" transform="translate(-1160.906 -1054.91)" fill="url(#linear-gradient-12)"/>
        <rect id="Rectangle_154" data-name="Rectangle 154" width="0.689" height="4.932" transform="translate(19.124 5.855)" fill="url(#linear-gradient-16)"/>
        <rect id="Rectangle_155" data-name="Rectangle 155" width="0.861" height="18.54" transform="translate(21.121 10.763)" fill="url(#linear-gradient-17)"/>
      </g>
      <g id="Group_295" data-name="Group 295" transform="translate(110.62 109.006)">
        <rect id="Rectangle_156" data-name="Rectangle 156" width="26.632" height="34.48" transform="translate(21.951 26.962)" fill="url(#linear-gradient-18)"/>
        <rect id="Rectangle_157" data-name="Rectangle 157" width="0.964" height="34.48" transform="translate(25.212 26.962)" fill="#b7d972"/>
        <rect id="Rectangle_158" data-name="Rectangle 158" width="0.964" height="34.48" transform="translate(28.059 26.962)" fill="#b7d972"/>
        <rect id="Rectangle_159" data-name="Rectangle 159" width="0.964" height="34.48" transform="translate(30.906 26.962)" fill="#b7d972"/>
        <rect id="Rectangle_160" data-name="Rectangle 160" width="0.964" height="34.48" transform="translate(33.753 26.962)" fill="#b7d972"/>
        <rect id="Rectangle_161" data-name="Rectangle 161" width="0.964" height="34.48" transform="translate(36.598 26.962)" fill="#b7d972"/>
        <rect id="Rectangle_162" data-name="Rectangle 162" width="0.964" height="34.48" transform="translate(39.446 26.962)" fill="#b7d972"/>
        <rect id="Rectangle_163" data-name="Rectangle 163" width="0.964" height="34.48" transform="translate(42.293 26.962)" fill="#b7d972"/>
        <rect id="Rectangle_164" data-name="Rectangle 164" width="0.964" height="34.48" transform="translate(45.14 26.962)" fill="#b7d972"/>
        <rect id="Rectangle_165" data-name="Rectangle 165" width="26.63" height="1.422" transform="translate(21.952 26.961)" fill="#edfdfc"/>
        <g id="Group_294" data-name="Group 294" transform="translate(0 0)">
          <g id="Group_292" data-name="Group 292" transform="translate(0 10.715)">
            <path id="Path_1363" data-name="Path 1363" d="M828.937,862.475c.851.871,8.816,1.367,8.816,1.367l.463-.1s-5.529-6.7-6.009-6.762C830.91,856.816,828.238,861.759,828.937,862.475Zm8.9,1.242a46.706,46.706,0,0,1-7.922-1.92,9.788,9.788,0,0,1,2.1-3.613C832.727,858.9,836.2,861.774,837.834,863.716Z" transform="translate(-828.822 -856.974)" fill="url(#linear-gradient-19)"/>
          </g>
          <g id="Group_293" data-name="Group 293" transform="translate(7.358 18.436)">
            <path id="Path_1364" data-name="Path 1364" d="M876.506,913.873c0,2.8.366,3.338,1.065,3.7s5.112.492,5.44-1.07-3.895-9.494-3.895-9.494l-.568.131S876.5,911.068,876.506,913.873Zm5.321,1.545c-.15.722-2.676.821-3.386.577-.154-.08-.242-7.216.394-8.634C880.369,910.372,881.922,914.775,881.827,915.418Z" transform="translate(-876.506 -907.008)" fill="url(#linear-gradient-19)"/>
          </g>
          <path id="Path_1365" data-name="Path 1365" d="M884.974,896.049l-.276-.421a.9.9,0,0,0-1.251-.262l-1.24.81a.9.9,0,0,0-.262,1.251l.275.421a.9.9,0,0,0,1.251.262l1.24-.81A.9.9,0,0,0,884.974,896.049Z" transform="translate(-873.624 -878.602)" fill="url(#linear-gradient-21)"/>
          <rect id="Rectangle_166" data-name="Rectangle 166" width="30.857" height="6.153" transform="translate(16.592 29.961) rotate(-119.064)" fill="#b7d972"/>
        </g>
      </g>
      <g id="Group_296" data-name="Group 296" transform="translate(116.264 61.691)">
        <circle id="Ellipse_84" data-name="Ellipse 84" cx="5.768" cy="5.768" r="5.768" fill="#b7d972"/>
        <path id="Path_1366" data-name="Path 1366" d="M884.185,496.52l-2.454.754-.77,2.449a.25.25,0,0,1-.443.069l-1.476-2.1-2.567.025a.25.25,0,0,1-.2-.4l1.542-2.053L877,492.829a.25.25,0,0,1,.318-.316l2.429.832,2.063-1.529a.25.25,0,0,1,.4.2l-.041,2.567,2.092,1.489A.25.25,0,0,1,884.185,496.52Z" transform="translate(-874.55 -490.093)" fill="url(#linear-gradient-22)"/>
      </g>
      <g id="Group_297" data-name="Group 297" transform="translate(199.394 28.604)">
        <circle id="Ellipse_85" data-name="Ellipse 85" cx="5.768" cy="5.768" r="5.768" fill="#edfdfc"/>
        <path id="Path_1367" data-name="Path 1367" d="M1422.9,282.107l-2.454.754-.77,2.449a.25.25,0,0,1-.443.069l-1.476-2.1-2.567.025a.25.25,0,0,1-.2-.4l1.542-2.053-.817-2.434a.25.25,0,0,1,.318-.316l2.429.832,2.063-1.529a.25.25,0,0,1,.4.205l-.041,2.567,2.091,1.489A.25.25,0,0,1,1422.9,282.107Z" transform="translate(-1413.262 -275.68)" fill="url(#linear-gradient-23)"/>
      </g>
      <path id="Path_1368" data-name="Path 1368" d="M1060.728,327.356l1.352,2.245a.342.342,0,0,0,.612-.051l.96-2.439,2.553-.591a.342.342,0,0,0,.141-.6l-2.023-1.667.226-2.611a.342.342,0,0,0-.525-.318l-2.21,1.409-2.413-1.022a.343.343,0,0,0-.465.4l.657,2.537-1.718,1.979a.342.342,0,0,0,.238.566Z" transform="translate(-911.837 -284.217)" fill="url(#linear-gradient-24)"/>
      <g id="Group_301" data-name="Group 301" transform="translate(55.154 17.087)">
        <path id="Path_1369" data-name="Path 1369" d="M674.427,981.493a33.585,33.585,0,0,1-3.634,4.482c-.11.1-.848.341-.966.446-1.034,3.272.3,6.052,1.723,8.239.237-1.773.406-4.2.678-4.5a35.791,35.791,0,0,1,4.91-5.044C675.559,984.233,675.371,983.028,674.427,981.493Z" transform="translate(-638.586 -859.644)" fill="#f7a491"/>
        <path id="Path_1370" data-name="Path 1370" d="M659.064,1010.89c-1.169.071-3.384.8-3.371,1.034.016.278,1.268,9.925,2.793,10.774.917.511,1.086-.991,1.421-3.178C658.48,1017.334,658.412,1011.449,659.064,1010.89Z" transform="translate(-626.943 -884.505)" fill="url(#linear-gradient-25)"/>
        <path id="Path_1371" data-name="Path 1371" d="M498.737,952.271a44.141,44.141,0,0,1-5.171,2.668c-.144.047-.913-.052-1.064-.008-2.329,2.52-2.309,5.6-1.949,8.188.969-1.5,2.154-3.624,2.528-3.779a47.381,47.381,0,0,1,6.531-2.191C498.561,955.674,498.938,954.062,498.737,952.271Z" transform="translate(-487.136 -834.932)" fill="#f7a491"/>
        <path id="Path_1372" data-name="Path 1372" d="M718,370.44s3.7-6.958,4.245-9.45,2.443-15.041,2.283-15.849-3.157-2.753-2.787-3.439,3.225-.688,3.878-.629a5.914,5.914,0,0,1,2.53.9c.563.464-.632,15.5-.989,18.74s-5.778,13.845-5.778,13.845Z" transform="translate(-679.632 -318.03)" fill="#f7a491"/>
        <path id="Path_1373" data-name="Path 1373" d="M491.134,596.671s-7.537,12.068-8.852,14.439a99.674,99.674,0,0,1-6.468,8.7c-.248.292-5.435.028-5.286.629s2.531.008,2.576.713-4.1,5.19-3.685,5.371c.777.338,2.641-2.648,2.975-2.422s-2.232,2.939-1.814,3.517,2.191-2.793,2.523-2.753-1.247,3.392-.522,3.426c.394.018,1.333-3.015,1.707-2.747s.014,2.7.47,2.673.031-2.074.731-3.157.652-2.223,2.263-3.621,7.853-5.662,10.115-9.428,7.283-12.075,7.283-12.075Z" transform="translate(-469.388 -534.206)" fill="#f7a491"/>
        <path id="Path_1374" data-name="Path 1374" d="M655.275,713l-13.088,4.216s7.2,12.243,8.622,14.683,7.553,8.466,7.561,10.042c.006,1.116-5.77,8.514-9.252,13.028a14.221,14.221,0,0,0,4.3,4.179c5.8-5.5,14.258-14.165,14.413-17.007C668.057,737.993,655.275,713,655.275,713Z" transform="translate(-615.522 -632.584)" fill="#847d3d"/>
        <path id="Path_1375" data-name="Path 1375" d="M478.824,966.5c-1.088-.434-3.393-.715-3.481-.5-.1.258-3.078,9.52-2.06,10.938.612.852,1.4-.434,2.639-2.27C475.563,972.081,478.1,966.563,478.824,966.5Z" transform="translate(-472.503 -846.48)" fill="url(#linear-gradient-19)"/>
        <path id="Path_1376" data-name="Path 1376" d="M565.038,705.386c.167-.806,1.245-3.174,1.8-5.06a10.34,10.34,0,0,0,.248-4.814h0l-9.627-.448-.369.716a5.8,5.8,0,0,1-1.651,1.977c-1.442,1.09-3.971,3.482-3.895,6.81.107,4.646,3.412,21.672,2.313,22.309-1.983,1.149-10.26,5.176-15.2,7.653a13.875,13.875,0,0,0,1.511,5.914c3.913-1.5,17.682-7.593,20.242-9.087C561.569,730.682,564.755,706.756,565.038,705.386Z" transform="translate(-527.969 -617.415)" fill="#473b1e"/>
        <path id="Path_1377" data-name="Path 1377" d="M551.074,374.961c.764,2.017-.444,3.521-1.284,5.508-.564,1.334.679,3.451,2.085,4.427,3.56,2.471,4.4,2.535,4.138,5.89-.62,8.083,9.043,4.637,10.6,4.38s2.728-.187,3.47-.7c2.238-1.549,4.339-6.2,3.945-10.119s-5.06-2.572-6.127-4.371,2.158-4.04-.59-7.044c-7.893-8.629-16.132-2.841-16.426.458A3.5,3.5,0,0,0,551.074,374.961Z" transform="translate(-537.266 -341.168)" fill="url(#linear-gradient-19)"/>
        <path id="Path_1378" data-name="Path 1378" d="M615.128,538.134s2.686-6.381,3.116-7.442c0,0-3.751-3.341-5.99-3.08,0,0-2.9,4.558-4.612,4.722s-7.727.421-8.782,1.048-5.53,7.368-5.53,7.368,4.021,4.029,5.639,4.02c0,0,1.1-2.721,1.475-2.225s1.862,11.067,2.613,11.872c.695.745,9.12,3.588,11.553,3.065a154.023,154.023,0,0,0,1.239-16.441A12.9,12.9,0,0,0,615.128,538.134Z" transform="translate(-574.205 -475.791)" fill="url(#linear-gradient-28)"/>
        <path id="Path_1379" data-name="Path 1379" d="M658.552,527.7a24.729,24.729,0,0,1,.956,4.413c.007,1.276,1.023,5.284,3.7,5.022s-.027-5.227-.407-6.439a47.587,47.587,0,0,1-.835-5.036Z" transform="translate(-629.361 -474.149)" fill="#f7a491"/>
        <path id="Path_1380" data-name="Path 1380" d="M662.219,527.572c-.15-1.044-.254-1.916-.254-1.916l-3.412,2.04s.194.641.408,1.462A3.147,3.147,0,0,0,662.219,527.572Z" transform="translate(-629.362 -474.149)" fill="#f47458"/>
        <path id="Path_1381" data-name="Path 1381" d="M634.858,479.025a4.465,4.465,0,0,0-1.636,2.622c-.333,1.713.684,5.939,4.359,6.6s4.87-2.888,3.861-5.465S638.488,477.015,634.858,479.025Z" transform="translate(-607.89 -434.179)" fill="#f7a491"/>
        <ellipse id="Ellipse_86" data-name="Ellipse 86" cx="0.759" cy="1.303" rx="0.759" ry="1.303" transform="translate(32.368 46.24) rotate(-0.298)" fill="#f7a491"/>
        <ellipse id="Ellipse_87" data-name="Ellipse 87" cx="0.924" cy="1.367" rx="0.924" ry="1.367" transform="translate(24.638 51.258) rotate(-39.836)" fill="#f7a491"/>
        <path id="Path_1382" data-name="Path 1382" d="M755.464,345.461a1.618,1.618,0,0,0-.223.166l-.41.371h0a3.233,3.233,0,0,1,1.588.459S756.3,345.978,755.464,345.461Z" transform="translate(-710.783 -321.761)" fill="#f47257"/>
        <g id="Group_300" data-name="Group 300" transform="translate(33.543)">
          <g id="Group_298" data-name="Group 298" transform="translate(12.989 2.464)">
            <path id="Path_1383" data-name="Path 1383" d="M775.466,207.85c-.883.174-4.411,4.9-4.411,4.9l-.124.327s6.383-.71,6.614-.983C778.169,211.359,776.192,207.707,775.466,207.85Zm-4.366,5a34.535,34.535,0,0,1,4.392-4.124,7.234,7.234,0,0,1,1.385,2.761C776.144,211.639,772.962,212.626,771.1,212.851Z" transform="translate(-770.931 -207.846)" fill="url(#linear-gradient-29)"/>
          </g>
          <g id="Group_299" data-name="Group 299" transform="translate(5.523)">
            <path id="Path_1384" data-name="Path 1384" d="M727.148,193.378c-1.376-1.865-2.111-1.55-2.631-1.325s-2.458,2.639-1.854,3.9,6.568,3.732,6.568,3.732l.215-.464S728.524,195.243,727.148,193.378Zm-3.782,2.23c-.3-.628.982-2.514,1.486-2.85a.9.9,0,0,1,.323-.1c.111,0,.536.085,1.344,1.18a24.006,24.006,0,0,1,2.639,5.387C726.757,198.162,723.654,196.14,723.366,195.608Z" transform="translate(-722.547 -191.881)" fill="url(#linear-gradient-19)"/>
          </g>
          <path id="Path_1385" data-name="Path 1385" d="M764.818,237.4h.286a.514.514,0,0,0,.514-.514v-.842a.514.514,0,0,0-.514-.514h-.286a.514.514,0,0,0-.514.514v.842A.514.514,0,0,0,764.818,237.4Z" transform="translate(-752.337 -228.796)" fill="url(#linear-gradient-31)"/>
          <path id="Path_1386" data-name="Path 1386" d="M716.4,259.557H698.257a1.86,1.86,0,0,1-1.856-1.739l-.951-14.57h23.622l-.991,15.175C718.039,259.058,717.3,259.557,716.4,259.557Z" transform="translate(-694.108 -235.321)" fill="url(#linear-gradient-32)"/>
          <path id="Path_1387" data-name="Path 1387" d="M712.7,244.753l-25.644.049-.273-1.649a1.621,1.621,0,0,1,1.6-1.885l23.205.064c.825,0,1.47.51,1.4,1.1Z" transform="translate(-686.758 -233.647)" fill="url(#linear-gradient-33)"/>
          <rect id="Rectangle_167" data-name="Rectangle 167" width="0.488" height="3.495" transform="translate(12.597 7.643)" fill="url(#linear-gradient-34)"/>
          <rect id="Rectangle_168" data-name="Rectangle 168" width="0.61" height="13.138" transform="translate(13.091 11.122)" fill="url(#linear-gradient-35)"/>
        </g>
        <path id="Path_1388" data-name="Path 1388" d="M739.494,346.776l-.231-.917a5.327,5.327,0,0,1-1.659-.263l-.639-.278a.394.394,0,0,0-.523.213h0a.394.394,0,0,0,.12.458s1.727,1.423,2.335,1.855c.3.214,1.247.792,1.247.792l.552-1.032Z" transform="translate(-695.208 -321.612)" fill="#f7a491"/>
      </g>
      <ellipse id="Ellipse_88" data-name="Ellipse 88" cx="1.168" cy="1.071" rx="1.168" ry="1.071" transform="translate(122.958 101.72)" fill="#b7d972"/>
      <ellipse id="Ellipse_89" data-name="Ellipse 89" cx="1.266" cy="1.168" rx="1.266" ry="1.168" transform="translate(169.665 126.049)" fill="#b7d972"/>
      <path id="Path_1389" data-name="Path 1389" d="M875.547,390.013l-1.466-1.416a10.493,10.493,0,0,1-2.374.37,2.122,2.122,0,0,1-1.706-.813l-.04-.058c-.365-.533-.086-1.012.616-1.033a7.452,7.452,0,0,0,2.13-.346c.976-.328,1.294-.88.649-1.479-.616-.569-1.551-.744-3.2-.691-2.354.081-4.345-.241-5.907-1.693-1.435-1.318-1.6-2.717-.248-3.659l-1.62-1.429,1.561-.574,1.518,1.326a8.338,8.338,0,0,1,1.716-.332,2.417,2.417,0,0,1,1.887.82h0c.409.524.182.995-.5,1.037a6.123,6.123,0,0,0-1.658.323c-1.059.378-.933.921-.469,1.341.545.5,1.466.607,3.406.594,2.711-.056,4.456.495,5.951,1.845,1.461,1.334,1.578,2.831-.122,3.786l1.595,1.522Z" transform="translate(-746.579 -331.508)" fill="url(#linear-gradient-8)"/>
      <g id="Group_303" data-name="Group 303" transform="translate(114.068 80.29)">
        <path id="Path_1390" data-name="Path 1390" d="M867.668,601.862c8.129,1.514,13.964,6.788,13.034,11.782-.465,2.5-2.533,4.45-5.5,5.59l1.928,7.976-5.877-7.016a22.807,22.807,0,0,1-6.952-.25c-8.128-1.514-13.964-6.789-13.034-11.782S859.54,600.349,867.668,601.862Z" transform="translate(-851.169 -601.453)" fill="#eabd5b"/>
        <g id="Group_302" data-name="Group 302" transform="translate(10.3 3.903)">
          <path id="Path_1391" data-name="Path 1391" d="M927.84,634.223a5.217,5.217,0,1,1-2.444-6.963A5.216,5.216,0,0,1,927.84,634.223Z" transform="translate(-917.919 -626.744)" fill="url(#linear-gradient-37)"/>
          <path id="Path_1392" data-name="Path 1392" d="M931.611,657.567a2.789,2.789,0,1,0,5.029,2.416Z" transform="translate(-929.265 -652.811)" fill="#efefef"/>
        </g>
      </g>
      <g id="Group_304" data-name="Group 304" transform="translate(154.426 46.034)">
        <path id="Path_1393" data-name="Path 1393" d="M1135.918,379.494c-10.661-.685-21.889,9.668-22.289,15.9-.2,3.117,1.779,6.079,5.141,8.346l-6.07,13.723,10.716-11.37a30.824,30.824,0,0,0,8.79,1.83c10.661.685,19.627-3.815,20.028-10.05S1146.578,380.179,1135.918,379.494Z" transform="translate(-1112.7 -379.462)" fill="#eabd5b"/>
      </g>
      <g id="Group_305" data-name="Group 305" transform="translate(167.23 52.645)">
        <path id="Path_1394" data-name="Path 1394" d="M1203.436,427.394c-.69,2.878-2.87,3.944-4.859,3.467-2.095-.5-3.37-2.464-2.751-5.045.588-2.455,2.537-3.957,4.886-3.394C1203.082,422.991,1204,425.045,1203.436,427.394Zm-5.2-1.089c-.345,1.439-.106,2.592.825,2.816.91.218,1.577-.607,1.948-2.151.335-1.4.212-2.567-.782-2.806C1199.275,423.936,1198.567,424.93,1198.237,426.305Zm.015,9.388,10.106-11.025a.779.779,0,0,1,.756-.231h0a.779.779,0,0,1,.392,1.285l-10.119,11.014a.772.772,0,0,1-.747.228h0A.771.771,0,0,1,1198.252,435.693Zm13.719-.212c-.69,2.878-2.87,3.944-4.859,3.467-2.074-.5-3.349-2.458-2.751-5.045.588-2.455,2.537-3.957,4.886-3.394C1211.616,431.078,1212.532,433.132,1211.971,435.481Zm-5.179-1.084c-.366,1.434-.128,2.587.8,2.81.91.218,1.577-.606,1.948-2.151.335-1.4.234-2.562-.761-2.8C1207.809,432.022,1207.122,433.021,1206.792,434.4Z" transform="translate(-1195.669 -422.305)" fill="url(#linear-gradient-19)"/>
      </g>
      <g id="Group_306" data-name="Group 306" transform="translate(179.718 81.352)">
        <path id="Path_1395" data-name="Path 1395" d="M1278.024,612.036l1.883.372s2.752-1.286,2.962-1.905.113-2.048.516-2.137a1.245,1.245,0,0,1,1.517.893c.224.688-.555,2.852-.367,3.049a9.966,9.966,0,0,0,1.982.534,1.42,1.42,0,0,1,1.074,1.021v0a.782.782,0,0,1-.381.894l-.5.266.233.517a.782.782,0,0,1-.371,1.023l-.386.185.169.311a.781.781,0,0,1-.374,1.088l-.339.146.026.092a.781.781,0,0,1-.456.937l-.338.135-5.014-.991a3.459,3.459,0,0,1-1.309-.557l-1.7-.646a.4.4,0,0,1-.246-.46l.952-4.455A.4.4,0,0,1,1278.024,612.036Z" transform="translate(-1276.598 -608.333)" fill="#edfdfc"/>
      </g>
      <path id="Path_1396" data-name="Path 1396" d="M459.068,358.79a3.19,3.19,0,0,0,.513-1.025,1.085,1.085,0,0,0,0-.494,2.416,2.416,0,0,0,.446-.566,1.375,1.375,0,0,0-.238-.817c-.329-.513-1.565-1.429-2.025-1.3s.574,1.73.574,1.73-.806-.483-.994.065S459.068,358.79,459.068,358.79Z" transform="translate(-404.034 -312.384)" fill="#f7a491"/>
      <path id="Path_1397" data-name="Path 1397" d="M432.323,367.432l.8-1.326s1.506-.8,1.212-1.3c-.49-.825-2.665.83-2.665.83A3.467,3.467,0,0,0,432.323,367.432Z" transform="translate(-382.331 -320.839)" fill="#f7a491"/>
      <g id="Group_309" data-name="Group 309" transform="translate(199.533 55.457)">
        <g id="Group_307" data-name="Group 307" transform="translate(0 18.157)">
          <path id="Path_1398" data-name="Path 1398" d="M1557.906,583.46a7.731,7.731,0,0,0-7.581-6.336,8.127,8.127,0,0,0-4.4-4.325c-3.788-1.476-9.291-.762-9.736,3.449-1.91,2.57-2.532,6.584-.513,9.1-1.337,3.654,1.65,7.876,6.218,8.474a8.308,8.308,0,0,0,7.046,5.207,18.122,18.122,0,0,1,2.032.1c-.223-.079,4.278,4.653,9.4-.688C1565.608,592.985,1563.585,585.044,1557.906,583.46Z" transform="translate(-1514.459 -569.95)" fill="#002a24"/>
          <path id="Path_1399" data-name="Path 1399" d="M1423.464,574.155s-12.48-6.022-12.541-6.266c-.089-.356,4.216-5.072,6.469-5.458a10.944,10.944,0,0,0,3.846-1.98s-2.3-2.653-4.492-2.215a2.211,2.211,0,0,0-2.048,2.231,57.29,57.29,0,0,0-9.29,6.275c-3.239,2.948,13.967,11.063,13.967,11.063Z" transform="translate(-1405.003 -558.187)" fill="#f7a491"/>
          <path id="Path_1400" data-name="Path 1400" d="M1461.232,1079.11a36.369,36.369,0,0,0,1.568,5.72c.06.144.632.668.7.815-.307,3.517-2.548,5.606-4.653,7.1.457-1.774,1.473-3.809,1.342-4.2a50.344,50.344,0,0,0-2.755-7.1C1459.183,1081.243,1459.807,1080.178,1461.232,1079.11Z" transform="translate(-1449.341 -998.724)" fill="#f7a491"/>
          <path id="Path_1401" data-name="Path 1401" d="M1430.527,807.935l10.931,8.3s-5.412,5.207-7.443,7.142-13.4,9.351-13.582,9.793c-.131.329,1.008,4.491,3.621,17.817a13.363,13.363,0,0,1-5.207,2.721c-3.789-7.232-6.755-22.07-6.755-23.745C1412.093,827.236,1430.527,807.935,1430.527,807.935Z" transform="translate(-1410.999 -769.395)" fill="url(#linear-gradient-12)"/>
          <path id="Path_1402" data-name="Path 1402" d="M1690.622,891.84a49.879,49.879,0,0,0-3.633,7.445c-1.322-.832-2.121-1.824-3.6-2.384a37.045,37.045,0,0,0,3.624-6.708c.443-2.291.963-2.628.963-2.628s7.68,2.6,8.191,3.326S1692.057,890.441,1690.622,891.84Z" transform="translate(-1640.432 -836.737)" fill="#f7a491"/>
          <path id="Path_1403" data-name="Path 1403" d="M1704.931,884.632c-.6,0,.052-2.691.188-3.311a1.16,1.16,0,0,1,.658-.932c.273-.067,8.807,2.82,10.249,3.857a1.716,1.716,0,0,1,.3.342c.79,1.474-6.246,1.754-7.259,1.11C1708.167,885.125,1707.612,884.625,1704.931,884.632Z" transform="translate(-1658.438 -830.667)" fill="#002a24"/>
          <path id="Path_1404" data-name="Path 1404" d="M1516.42,803.777s10.3-4.057,10.435-3.625c1.067,3.435,4.842,2.327,6.812,8.378.825,2.534,1.018,9.224,1.575,14.184.382,3.409.916,6.141.916,6.141s2.385-2.808,6.874-7.866c.348-.392,3.972,2.336,3.972,2.336-7.149,14.176-12.411,16.3-13.5,15.8-7.388-3.39-13.434-28.777-13.423-28.775C1519.236,808.71,1516.42,803.777,1516.42,803.777Z" transform="translate(-1499.227 -762.786)" fill="url(#linear-gradient-40)"/>
          <path id="Path_1405" data-name="Path 1405" d="M1619.44,646.926s12.3-.016,14.93-.168c2.383-.138,11.834.1,12.2.06s2.813-4.18,3.218-3.736-1.359,2.052-.813,2.469,6.412-.517,6.334-.083c-.146.811-3.568.708-3.564,1.1s3.582-.22,3.824.431-3.442.265-3.589.555,3.417.821,3.052,1.426c-.2.328-3.158-.549-3.144-.1s2.174,1.466,1.91,1.823-1.695-1.095-2.948-1.112-2.151-.672-4.151-.123c-.988.271-8.528,1.193-14.9,1.737-6.532.558-11.886.736-11.886.736Z" transform="translate(-1586.349 -629.954)" fill="#f7a491"/>
          <path id="Path_1406" data-name="Path 1406" d="M1477.258,658.616a42.135,42.135,0,0,1,.314-6.388c-.6-2.051-4.239-2.261-4.7-3.121,0,0,1.605-5.189,3.8-5.16,0,0,5.145,1.955,6.876,2.857a4.318,4.318,0,0,0,.871.26c1.671-.012,7.51-.189,8.6.136l-.617,9.023c-.314.517-.826,11.445-1.471,12.3s-9.915,4.188-11.472,3.185C1479.4,671.667,1477.588,662.608,1477.258,658.616Z" transform="translate(-1462.402 -630.712)" fill="#edfdfc"/>
          <path id="Path_1407" data-name="Path 1407" d="M1583.71,663.656c1.077-.514,8.945-.5,8.945-.5s1.089,5.427.209,6.732c0,0-6.969,1.037-6.771,1.609Z" transform="translate(-1556.133 -646.96)" fill="#edfdfc"/>
          <path id="Path_1408" data-name="Path 1408" d="M1539.633,627.358a24.056,24.056,0,0,0-1.41,4.159c-.147,1.232-1.571,4.993-4.126,4.444s.6-5.047,1.1-6.176a46.285,46.285,0,0,0,1.362-4.774Z" transform="translate(-1513.341 -614.699)" fill="#f7a491"/>
          <path id="Path_1409" data-name="Path 1409" d="M1552.52,626.835c.26-.992.456-1.824.456-1.824l3.072,2.347s-.258.6-.555,1.368A3.061,3.061,0,0,1,1552.52,626.835Z" transform="translate(-1529.756 -614.699)" fill="#f47458"/>
          <path id="Path_1410" data-name="Path 1410" d="M1555.962,586.468a4.342,4.342,0,0,1,.712,2.92c-.214,1.684-2.44,5.277-6.037,4.773s-3.619-4.15-1.9-6.223S1553.221,583.506,1555.962,586.468Z" transform="translate(-1525.618 -580.923)" fill="#f7a491"/>
          <ellipse id="Ellipse_90" data-name="Ellipse 90" cx="0.738" cy="1.268" rx="0.738" ry="1.268" transform="translate(24.132 7.595) rotate(-161.464)" fill="#f7a491"/>
          <path id="Path_1411" data-name="Path 1411" d="M1467.007,1116.156c.221-.553,2.445,1.211,2.97,1.568a1.161,1.161,0,0,1,.62.958c-.038.271-5.7,7.243-7.354,8.206a.949.949,0,0,1-.582.056c-.92-.354.577-6.059,1.784-7.186A7.315,7.315,0,0,0,1467.007,1116.156Z" transform="translate(-1453.521 -1029.963)" fill="#002a24"/>
          <path id="Path_1412" data-name="Path 1412" d="M1595.991,591.784s-1.334,4.524-.3,5.912-.391,3.021-.391,3.021,3.22-3.833,2.762-5.733A6.651,6.651,0,0,0,1595.991,591.784Z" transform="translate(-1565.932 -586.6)" fill="#002a24"/>
          <ellipse id="Ellipse_91" data-name="Ellipse 91" cx="0.898" cy="1.329" rx="0.898" ry="1.329" transform="translate(28.491 13.557) rotate(-121.923)" fill="#f7a491"/>
        </g>
        <g id="Group_308" data-name="Group 308" transform="translate(3.62)">
          <path id="Path_1413" data-name="Path 1413" d="M1531.6,561.362l.239.655a.922.922,0,0,1-.317,1.056l-.581.431a.922.922,0,0,1-1.2-.087l-.51-.508Z" transform="translate(-1513.678 -542.716)" fill="url(#linear-gradient-41)"/>
          <path id="Path_1414" data-name="Path 1414" d="M1479.273,548.808l-.958-.26-.661.354s-4.289,1.909-5.138,1.912-1.5-1.544-1.3-1.835a15.558,15.558,0,0,1,2.986-.994l1.727-1.562.1-1.132Z" transform="translate(-1464.587 -529.125)" fill="url(#linear-gradient-12)"/>
          <path id="Path_1415" data-name="Path 1415" d="M1500.611,520.405l3.03,5.359a1.1,1.1,0,0,1-.332,1.442l-1.829,1.262a1.1,1.1,0,0,1-1.438-.17l-4.035-4.5Z" transform="translate(-1485.583 -508.079)" fill="url(#linear-gradient-43)"/>
          <path id="Path_1416" data-name="Path 1416" d="M1446.064,455.2l-4.8,3.621a.917.917,0,0,1-1.185-.068l-8.809-8.4,9.586-6.943,5.467,10.639A.919.919,0,0,1,1446.064,455.2Z" transform="translate(-1430.84 -442.966)" fill="url(#linear-gradient-44)"/>
          <path id="Path_1417" data-name="Path 1417" d="M1432.343,442.567c-2.722,1.855-4.4,4.141-3.737,5.107s3.4.245,6.12-1.61,4.4-4.141,3.738-5.107S1435.065,440.712,1432.343,442.567Z" transform="translate(-1428.463 -440.528)" fill="url(#linear-gradient-45)"/>
          <path id="Path_1418" data-name="Path 1418" d="M1433.694,451.62c.77.182,2.743-.412,4.883-1.87,2.679-1.826,3.686-3.635,3.527-4.007h0a.444.444,0,0,0-.133-.049c-.77-.182-2.743.412-4.883,1.87-2.679,1.826-3.686,3.635-3.527,4.007h0A.434.434,0,0,0,1433.694,451.62Z" transform="translate(-1432.761 -444.87)" fill="#edfdfc"/>
        </g>
        <path id="Path_1419" data-name="Path 1419" d="M1476.04,557.432l1.136.426a1.739,1.739,0,0,1,.912.973c.169.644.987.495.76-.18a6.685,6.685,0,0,0-.46-1.084,12.963,12.963,0,0,0,1.021,1.276c.537.056.618-.736-.3-1.636S1476.04,557.432,1476.04,557.432Z" transform="translate(-1465.078 -538.907)" fill="#f7a491"/>
        <path id="Path_1420" data-name="Path 1420" d="M1499.383,563.709s1.947.8,1.558,1.282-1.558,1.022-1.591.763.763-.617.243-1.152C1499.45,564.452,1498.735,563.709,1499.383,563.709Z" transform="translate(-1484.593 -544.7)" fill="#f7a491"/>
      </g>
      <g id="Group_312" data-name="Group 312" transform="translate(246.516 19.506)">
        <g id="Group_310" data-name="Group 310" transform="translate(12.229 37.039)">
          <path id="Path_1421" data-name="Path 1421" d="M1919.936,1050.54s4.536,3.27,5.251,4.246c1.029,1.405-7.685,4.034-6.734,2.388.219-.378.846-1.652.874-1.777.146-.67-1.7-2.474-1.7-2.474Z" transform="translate(-1897.731 -957.494)" fill="#f7a491"/>
          <path id="Path_1422" data-name="Path 1422" d="M1901.851,1072.875l3.081-4.353a8.394,8.394,0,0,0,3.9-2.668,7.217,7.217,0,0,1,2.866,2.145,50.243,50.243,0,0,1-5.24,4.724,14.552,14.552,0,0,1-4.487,2.548C1899.365,1076.152,1901.851,1072.875,1901.851,1072.875Z" transform="translate(-1883.487 -970.446)" fill="url(#linear-gradient-25)"/>
          <path id="Path_1423" data-name="Path 1423" d="M2055.745,661.725s-.558.493-.755.643c-.232.176-.963.652-.963.652s-2.648,1.506-2.737,1.307a1.311,1.311,0,0,1,.045-.92c.131-.15.512-.305.643-.456a.486.486,0,0,0,.007-.622c-.168-.168-1.073.327-1.073.327a3.378,3.378,0,0,0-1.039.9,4.372,4.372,0,0,0-.882,2.018,41.183,41.183,0,0,1-3.881,1.94s-11.1,4.616-11.7,4.868h-.008a3.223,3.223,0,0,0,.335,1.443c.266,1.586.738,1.691,1.1,3.221,1.7-.861,13.491-7.356,14.689-8.032,0,0,1.8-.307,2.917-.536a10.016,10.016,0,0,0,2.408-1.052,10.558,10.558,0,0,0,2.153-1.3c.951-.737-.277-.46-.277-.46s-2,1.06-2.051.892c-.04-.13,1.084-.646,2.145-1.451.273-.207.541-.412.787-.6.644-.5.531-1.025-.223-.605a8.415,8.415,0,0,0-.989.63,6.965,6.965,0,0,1-.96.538,9.109,9.109,0,0,1-.993.548c0-.04-.158-.053.125-.281.34-.275,1.188-.7,1.657-1.145.266-.25.854-.741.854-.741a7.368,7.368,0,0,0,.717-.961c-.2-.324-.885.153-1.2.539a5.658,5.658,0,0,0-.931.679s-1.456.813-1.569.614a19.153,19.153,0,0,1,1.52-1.4c.679-.665,1.259-1.443,1.151-1.592C2056.575,661.064,2055.745,661.725,2055.745,661.725Z" transform="translate(-1995.63 -628.285)" fill="#f8a492"/>
          <path id="Path_1424" data-name="Path 1424" d="M1817.861,828.379l-.718,3.549L1799.1,848.334l12.912,13.067-3.487,3.563s-19.07-14-19.757-15.838c-1.058-2.825,13.67-21.54,13.67-21.54Z" transform="translate(-1788.718 -768.946)" fill="#473b1e"/>
          <path id="Path_1425" data-name="Path 1425" d="M2046.818,1111.73s4.536,3.27,5.251,4.246c1.029,1.405-7.685,4.034-6.734,2.388.219-.378.846-1.652.873-1.777.146-.67-1.7-2.474-1.7-2.474Z" transform="translate(-2005.033 -1009.242)" fill="#f7a491"/>
          <path id="Path_1426" data-name="Path 1426" d="M2028.7,1134.609l3.081-4.353a7.845,7.845,0,0,0,4.021-2.589,6.631,6.631,0,0,1,2.742,2.066,50.262,50.262,0,0,1-5.239,4.724,14.551,14.551,0,0,1-4.487,2.548C2026.215,1137.885,2028.7,1134.609,2028.7,1134.609Z" transform="translate(-1990.763 -1022.72)" fill="url(#linear-gradient-19)"/>
          <path id="Path_1427" data-name="Path 1427" d="M1896.587,835.686l-.81,22.388,15.252,18.7-3.576,3.3s-17.705-15.2-19.649-19.429c-1.206-2.626-5.263-26.358-5.263-26.358Z" transform="translate(-1868.062 -774.609)" fill="#473b1e"/>
          <path id="Path_1428" data-name="Path 1428" d="M1878.786,652.766c1.467-3.311,1.3-27.048,7.007-32.608,2.009.339,3.442.529,3.777.618.3,2.445.626,11.418.827,19.642.134,5.478,0,11.224.671,14.253C1891.486,656.548,1877.446,655.791,1878.786,652.766Z" transform="translate(-1864.811 -593.527)" fill="#00808a"/>
          <path id="Path_1429" data-name="Path 1429" d="M1947.709,625.343c1.6.365,2.783.622,4.884,3.726,2.011,2.971,6.477,10.021,6.477,10.021l11.762-5.224.55,5.957s-13.307,6.917-15.184,6.294-7.156-8.339-7.546-8.86c-.092-.122.443,8.241.443,9.577s2.551,12.97,2.551,12.97-6.473,1.593-7.736-1.3c-3.873-8.873-.9-34.393-.9-34.393S1946.555,625.08,1947.709,625.343Z" transform="translate(-1918.278 -596.869)" fill="url(#linear-gradient-48)"/>
          <path id="Path_1430" data-name="Path 1430" d="M1794.586,450.629a3.525,3.525,0,0,0,.516-2.131l.107-.867c-.21-.055-4.172-.092-5.348.033a2.148,2.148,0,0,0-.017.9c.3.935,2.352,7,2.352,7l3.358-.378S1794.335,451.591,1794.586,450.629Z" transform="translate(-1789.635 -447.58)" fill="#f7a491"/>
          <path id="Path_1431" data-name="Path 1431" d="M1818.547,511.119s-2.318,6.6-4.225,5.645-12.624-11.875-12.729-12.4-.848-13.937-.848-13.937l4.239-.845,2.438,10.981s7.842,7.5,9.431,8.236A2.943,2.943,0,0,1,1818.547,511.119Z" transform="translate(-1798.889 -483.098)" fill="#fa3e3e"/>
          <path id="Path_1432" data-name="Path 1432" d="M1861.259,649.269a7.19,7.19,0,0,1-2.611-.434s2.443-13.772,3.864-27.429c.561-5.395,1.082-7.606,3.308-7.216.644.112,2.387.777,3.02.884-5.593,15.825-5.612,28.005-6.4,31.538C1862.039,648.383,1861.691,649.28,1861.259,649.269Z" transform="translate(-1847.857 -588.442)" fill="#fa3e3e"/>
          <path id="Path_1433" data-name="Path 1433" d="M1925.273,584.928l-.586,2.391s-.134,2.081.833,2.268c1.165.226,2.9-1.518,2.9-1.518l1-6.742Z" transform="translate(-1903.7 -560.688)" fill="#f7a491"/>
          <path id="Path_1434" data-name="Path 1434" d="M1925.273,584.928l-.586,2.391s-.134,2.081.833,2.268c1.165.226,2.9-1.518,2.9-1.518l1-6.742Z" transform="translate(-1903.7 -560.688)" fill="#f7a491"/>
          <path id="Path_1435" data-name="Path 1435" d="M1930.254,581.528l-4.136,3.57-.438,1.786A6.926,6.926,0,0,0,1930.254,581.528Z" transform="translate(-1904.545 -560.858)" fill="#f47458"/>
          <path id="Path_1436" data-name="Path 1436" d="M1910.7,541.327a2.443,2.443,0,0,0-2.252,1.689,21.261,21.261,0,0,0-.9,3.462c-.437,2.593,1.039,4.966,2.324,5.156a4.861,4.861,0,0,0,5.022-4.335c.29-1.575.672-3.64-.623-4.725A5.818,5.818,0,0,0,1910.7,541.327Z" transform="translate(-1889.142 -526.86)" fill="#f7a491"/>
          <path id="Path_1437" data-name="Path 1437" d="M1913.519,531.675s4.529-4.036,4.727-7.19-2.714-4.842-5.2-4.93a16.9,16.9,0,0,0-3.047.157c-2.495.315-4.112,1.42-3.543,3.465.764,2.744,5.942.429,7,1.281.874.7-.543,2.394.306,3.039.8.606.391.4.127,1.554A20.385,20.385,0,0,0,1913.519,531.675Z" transform="translate(-1888.187 -508.438)" fill="#473b1e"/>
          <path id="Path_1438" data-name="Path 1438" d="M1954.982,566.274c-.113.755-.574,1.313-1.032,1.246s-.738-.735-.625-1.49.574-1.313,1.032-1.246S1955.094,565.518,1954.982,566.274Z" transform="translate(-1927.903 -546.693)" fill="#f7a491"/>
          <path id="Path_1439" data-name="Path 1439" d="M1800.383,449.953a4.685,4.685,0,0,0-1.225,1.487s-2.054-.962-2.039-1.356c.02-.522,2.081.168,2.081.168Z" transform="translate(-1795.822 -449.533)" fill="#f47458"/>
        </g>
        <g id="Group_311" data-name="Group 311">
          <path id="Path_1440" data-name="Path 1440" d="M1756.008,229.692l-33.367,17.18a3.657,3.657,0,0,1-4.925-1.577l-7.841-15.229a3.657,3.657,0,0,1,1.577-4.925l33.367-17.181a3.657,3.657,0,0,1,4.925,1.577l7.841,15.229A3.657,3.657,0,0,1,1756.008,229.692Z" transform="translate(-1709.468 -207.554)" fill="url(#linear-gradient-19)"/>
          <rect id="Rectangle_169" data-name="Rectangle 169" width="44.844" height="5.196" transform="matrix(-0.889, 0.458, -0.458, -0.889, 47.931, 16.875)" fill="#473b1e"/>
        </g>
        <path id="Path_1441" data-name="Path 1441" d="M1817.932,439.029l.481,1.182-1.1.571s.281-.56.179-.714C1816.94,439.228,1817.407,438.4,1817.932,439.029Z" transform="translate(-1800.612 -403.123)" fill="#f7a491"/>
      </g>
      <g id="Group_313" data-name="Group 313" transform="translate(127.821 13.29)">
        <path id="Path_1442" data-name="Path 1442" d="M948.18,187.495a1.884,1.884,0,0,1-2.319-1.444,1.767,1.767,0,0,1,2.467-2.3C949.675,184.57,949.82,186.966,948.18,187.495Zm-1.455-6.778q.122.555-.516.76c-.47.152-.7.2-.932-.217a40.433,40.433,0,0,1-2.5-5.025c-2.3-7.3-2.688-7.933-2.416-8.021.406-.131,1.066-.192,1.488-.328s1.006-.477,1.413-.608c.219-.071.324.45.839,1.975A59.459,59.459,0,0,1,946.725,180.717Z" transform="translate(-940.287 -167.271)" fill="url(#linear-gradient-19)"/>
      </g>
      <g id="Group_322" data-name="Group 322" transform="translate(160.225 4.724)">
        <path id="Path_1443" data-name="Path 1443" d="M1216.055,173.9a4.706,4.706,0,0,1,4.033.105,3.643,3.643,0,0,1,1.649,4.969c-1.024,2.089-4.067,3.663-9.875,3.48-3.7-4.479-4.322-7.849-3.3-9.938a3.643,3.643,0,0,1,4.938-1.74A4.7,4.7,0,0,1,1216.055,173.9Z" transform="translate(-1199.195 -161.341)" fill="url(#linear-gradient-19)"/>
        <g id="Group_314" data-name="Group 314" transform="translate(0 4.207)">
          <path id="Path_1444" data-name="Path 1444" d="M1150.612,140.3a48.577,48.577,0,0,0,4.688,2.963c.488.271,1.255.885,1.826.654a.588.588,0,0,0,.4-.7c-.135-.605-.958-.854-1.45-1.127-1.5-.833-3.157-1.846-4.772-2.967a.689.689,0,0,0-.934.245.7.7,0,0,0,.245.934Z" transform="translate(-1150.275 -139.024)" fill="url(#linear-gradient-52)"/>
        </g>
        <g id="Group_315" data-name="Group 315" transform="translate(22.891 21.975)">
          <path id="Path_1445" data-name="Path 1445" d="M1298.946,255.43c.711.41,1.429.807,2.146,1.207a7.522,7.522,0,0,0,2.209,1.081.591.591,0,0,0,.57-.98,7.43,7.43,0,0,0-2.076-1.3c-.719-.4-1.435-.8-2.16-1.183a.683.683,0,0,0-.689,1.179Z" transform="translate(-1298.612 -254.163)" fill="url(#linear-gradient-53)"/>
        </g>
        <g id="Group_316" data-name="Group 316" transform="translate(0.699 16.264)">
          <path id="Path_1446" data-name="Path 1446" d="M1155.822,219.446a8.539,8.539,0,0,1,4.256-.971.552.552,0,0,0,.146-1.079,6.35,6.35,0,0,0-5.088.876.68.68,0,0,0,.686,1.174Z" transform="translate(-1154.807 -217.158)" fill="url(#linear-gradient-54)"/>
        </g>
        <g id="Group_317" data-name="Group 317" transform="translate(6.593 23.07)">
          <path id="Path_1447" data-name="Path 1447" d="M1194.261,265.141a6.036,6.036,0,0,1,1.561-1.953c.4-.329,1.915-1.029,1.2-1.721-.676-.651-1.831.412-2.328.856a7.129,7.129,0,0,0-1.614,2.126c-.392.786.781,1.48,1.183.692Z" transform="translate(-1192.999 -261.261)" fill="url(#linear-gradient-55)"/>
        </g>
        <g id="Group_318" data-name="Group 318" transform="translate(16.366 24.803)">
          <path id="Path_1448" data-name="Path 1448" d="M1256.414,273.53l.709,1.535c.235.511.381,1.143.965,1.33a.6.6,0,0,0,.724-.411c.209-.518-.265-1.159-.483-1.624l-.717-1.53a.7.7,0,0,0-.949-.249.71.71,0,0,0-.249.949Z" transform="translate(-1256.331 -272.491)" fill="url(#linear-gradient-53)"/>
        </g>
        <g id="Group_319" data-name="Group 319" transform="translate(12.986)">
          <path id="Path_1449" data-name="Path 1449" d="M1235.836,117.176c.529-4.509.569-4.511.43-4.984a.6.6,0,0,0-1.092-.143c-.254.45-.2.38-.743,5.126a.707.707,0,0,0,.7.7.718.718,0,0,0,.7-.7Z" transform="translate(-1234.428 -111.762)" fill="url(#linear-gradient-57)"/>
        </g>
        <g id="Group_320" data-name="Group 320" transform="translate(19.79 5.124)">
          <path id="Path_1450" data-name="Path 1450" d="M1279.677,148.877a10.413,10.413,0,0,0,1.565-1.591c.432-.545,1.167-1.322.845-2.051a.517.517,0,0,0-.462-.265c-.7.06-1.053.935-1.453,1.435a12.343,12.343,0,0,1-1.455,1.51.686.686,0,0,0,0,.961.694.694,0,0,0,.961,0Z" transform="translate(-1278.52 -144.97)" fill="url(#linear-gradient-19)"/>
        </g>
        <g id="Group_321" data-name="Group 321" transform="translate(25.568 13.594)">
          <path id="Path_1451" data-name="Path 1451" d="M1320.223,201.058a.6.6,0,0,0,0-.837c-.384-.472-1.3-.356-1.851-.344a11.911,11.911,0,0,0-1.909.21.692.692,0,0,0-.479.843.7.7,0,0,0,.843.479C1319.227,201.051,1319.574,201.6,1320.223,201.058Z" transform="translate(-1315.962 -199.856)" fill="url(#linear-gradient-59)"/>
        </g>
      </g>
      <ellipse id="Ellipse_92" data-name="Ellipse 92" cx="1.283" cy="1.1" rx="1.283" ry="1.1" transform="translate(116.532 12.099)" fill="url(#linear-gradient-60)"/>
      <ellipse id="Ellipse_93" data-name="Ellipse 93" cx="1.833" cy="1.466" rx="1.833" ry="1.466" transform="translate(144.762 0)" fill="url(#linear-gradient-8)"/>
      <g id="Group_325" data-name="Group 325" transform="translate(1.314 20.923)">
        <g id="Group_323" data-name="Group 323">
          <path id="Path_1452" data-name="Path 1452" d="M438.506,369.545a27.828,27.828,0,0,1-.955,3.614c-.222.511-1.2,2.479-1.2,2.479l-.455,5.352-4.007-.537s1.356-3.856.9-5.014a12.111,12.111,0,0,1-.563-3.3C432.3,370.508,438.506,369.545,438.506,369.545Z" transform="translate(-383.835 -345.964)" fill="#f7a491"/>
          <path id="Path_1453" data-name="Path 1453" d="M167.22,389.317a27.828,27.828,0,0,0,2.337,2.918c.41.377,2.1,1.781,2.1,1.781l2.584,4.708,3.446-2.114s-2.8-2.976-2.851-4.221a12.113,12.113,0,0,0-.823-3.246C173.283,387.684,167.22,389.317,167.22,389.317Z" transform="translate(-160.008 -362.025)" fill="#f7a491"/>
          <path id="Path_1454" data-name="Path 1454" d="M304.8,492.066a2.245,2.245,0,0,0-3.766.477,1.669,1.669,0,0,0-2.2.567s-2.337-.7-2.9,2.791c0,0-1.2-.227-1.361,1.2a3.536,3.536,0,0,0,.567,2.382s-.676.507-.369,1.821a1.626,1.626,0,0,0,1.186,1.288s.25,1.883,1.066,2.45a2.663,2.663,0,0,0,1.929.295,1.259,1.259,0,0,0,1.248.93c.953-.091,2.133-1,3.2-.59s3.834-.023,3.834-.023,3.109-1.384,2.178-4.56a2.323,2.323,0,0,0,.2-3.245s1.044-2.768-1.021-4.4A5.386,5.386,0,0,0,304.8,492.066Z" transform="translate(-267.681 -448.859)" fill="#002a24"/>
          <path id="Path_1455" data-name="Path 1455" d="M170.706,996.478a31.329,31.329,0,0,1-4.2-.7c-.6-.293-3.617,2.592-3.018,4.04.338.816,1.405.711,1.405.711l.863-.843,4.567.952Z" transform="translate(-156.79 -875.539)" fill="#f7a491"/>
          <path id="Path_1456" data-name="Path 1456" d="M329.921,1098.72a31.334,31.334,0,0,1-2.413,3.5c-.518.416.819,4.375,2.383,4.444.882.039,1.239-.972,1.239-.972l-.4-1.138,2.795-3.735Z" transform="translate(-295.466 -962.617)" fill="#f7a491"/>
          <path id="Path_1457" data-name="Path 1457" d="M308.89,1120.64a23.955,23.955,0,0,0,1.683,1.941,20.015,20.015,0,0,0,1.749,1.41s1.112,2.019,1.416,2.723c.677,1.568,1.437,3.315,1.327,4.193-.035.282-.668.58-1.2.418-2.2-.676-7.813-5.813-8.522-7.192C304.529,1122.543,308.89,1120.64,308.89,1120.64Z" transform="translate(-276.734 -981.154)" fill="#002a24"/>
          <path id="Path_1458" data-name="Path 1458" d="M346.6,807.218c-.2-.571-.4-1.1-.589-1.6-2.336.51-4.975,1.071-7.69,1.649l-.331,9.95c0-.768,2.041,15.87,2.041,15.87s-5.545,11.014-9.153,17.821a14.63,14.63,0,0,0,4.762,3.916c5.6-6.713,12.757-18.547,13.061-20.59C348.879,833.062,349.036,814.069,346.6,807.218Z" transform="translate(-298.413 -714.748)" fill="#473b1e"/>
          <path id="Path_1459" data-name="Path 1459" d="M210.209,819.132c.635,6.9,1.685,17.338,1.877,20.851-4.459.643-14.995,3.812-16.959,3.808a7.972,7.972,0,0,0-.639,5.348c.1.328,20.783.987,26.122-2.42,1.392-.889,1.822-10.415,1.843-20.462l.331-9.95C218.261,817.272,214.1,818.218,210.209,819.132Z" transform="translate(-182.874 -723.785)" fill="#473b1e"/>
          <path id="Path_1460" data-name="Path 1460" d="M309.179,605.591l-5.075.765s-3.825.06-4.847.069c-.088,0-4.07,19.422-5.038,26.73s-.218,8.6-.218,8.6,6.75,1.518,11.744,1.076a38.286,38.286,0,0,0,11.035-3.264s-4.583-14.109-5.463-18.495S309.179,605.591,309.179,605.591Z" transform="translate(-266.991 -545.585)" fill="#edfdfc"/>
          <path id="Path_1461" data-name="Path 1461" d="M376.452,426.506s-.445,17.992-.991,19.1c-.794,1.611-6.471,13.1-6.471,13.1s4.271,17.871,6.066,24.043c.181.621.981,4.636.981,5.027,0,.868-3.778,1.97-4.226,1.9-.4-.059-3.7-17.058-5.8-25.377a23.8,23.8,0,0,0-3.61-7.86l-1.463-2.079,8.674-10.5s1.878-16.612,1.878-17.65C371.486,425.941,375.907,425.485,376.452,426.506Z" transform="translate(-323.83 -393.6)" fill="#903b89"/>
          <path id="Path_1462" data-name="Path 1462" d="M217.432,459.789l-8.691-13.106s-5.64-13.769-5.779-14.277-4.57.072-5.972-.065c-.45-.044,5.9,14.454,6.575,16.871.792,2.855,5.034,14.025,5.034,14.025s2.931,6.688,2.474,11.856c-.759,8.583-2.265,20.952-1.9,21.322,2.276,1.433,9.438,1.382,9.991.492C225.272,487.073,217.432,459.789,217.432,459.789Z" transform="translate(-185.166 -398.948)" fill="url(#linear-gradient-62)"/>
          <path id="Path_1463" data-name="Path 1463" d="M334.075,569.361l.378,2.8s.846,4.039-.243,4.817-4.631-4.933-4.631-4.933l.374-7.1Z" transform="translate(-297.313 -511.212)" fill="#f7a491"/>
          <path id="Path_1464" data-name="Path 1464" d="M331.22,567.248a8.059,8.059,0,0,0,4.563,4.49l-.32-2.377-4.121-4.415Z" transform="translate(-298.701 -511.212)" fill="#f47458"/>
          <ellipse id="Ellipse_94" data-name="Ellipse 94" cx="1.374" cy="1.959" rx="1.374" ry="1.959" transform="translate(26.845 46.947)" fill="#002a24"/>
          <ellipse id="Ellipse_95" data-name="Ellipse 95" cx="1.672" cy="1.126" rx="1.672" ry="1.126" transform="translate(30.967 43.57)" fill="#002a24"/>
          <path id="Path_1465" data-name="Path 1465" d="M328.23,515.475a3.746,3.746,0,0,1,4.9,2.985,28.3,28.3,0,0,1,.3,3.6c.059,3.274-1.636,6.461-3.122,6.461s-5.6-2.12-5.745-6.768C324.478,518.88,325.911,516.273,328.23,515.475Z" transform="translate(-293.074 -469.204)" fill="#f7a491"/>
          <ellipse id="Ellipse_96" data-name="Ellipse 96" cx="1.069" cy="1.308" rx="1.069" ry="1.308" transform="translate(30.453 51.606)" fill="#f7a491"/>
          <path id="Path_1466" data-name="Path 1466" d="M363.875,500.546c1.536,1.217,2.074,3.065,1.2,4.129s-2.824.94-4.359-.277-2.074-3.065-1.2-4.129S362.339,499.329,363.875,500.546Z" transform="translate(-322.277 -455.904)" fill="#002a24"/>
          <ellipse id="Ellipse_97" data-name="Ellipse 97" cx="1.426" cy="0.957" rx="1.426" ry="0.957" transform="translate(34.731 44.682)" fill="#002a24"/>
          <ellipse id="Ellipse_98" data-name="Ellipse 98" cx="1.217" cy="1.231" rx="1.217" ry="1.231" transform="translate(39.391 48.477)" fill="#002a24"/>
          <path id="Path_1467" data-name="Path 1467" d="M141.491,984.725a23.944,23.944,0,0,0-1.047,2.346,20.032,20.032,0,0,0-.538,2.181s-1.358,1.862-1.868,2.435c-1.135,1.276-2.523,2.787-3.365,3.059-.27.087-1.038-.142-1.031-.738.028-2.3,2.234-9.789,3.184-11.016C137.922,981.578,141.491,984.725,141.491,984.725Z" transform="translate(-131.613 -864.439)" fill="#002a24"/>
          <path id="Path_1468" data-name="Path 1468" d="M172.986,400.7a4.546,4.546,0,0,0,2.322,1.375,3.128,3.128,0,0,0,2.383-1.131Z" transform="translate(-164.885 -372.309)" fill="#f47458"/>
          <path id="Path_1469" data-name="Path 1469" d="M436.355,381.925l.871,1.337s3.193.2,4.17-2.116Z" transform="translate(-387.612 -355.775)" fill="#f47458"/>
          <path id="Path_1470" data-name="Path 1470" d="M170.326,243.438a61.047,61.047,0,0,0-37.941,2.289,3.735,3.735,0,0,1-4.8-1.914l-6.858-15.859c-.82-1.842.567-4.314,3.155-5.334a83.854,83.854,0,0,1,52.115-3.145c2.692.7,4.366,2.99,3.774,4.916l-4.9,16.569A3.736,3.736,0,0,1,170.326,243.438Z" transform="translate(-120.487 -216.736)" fill="url(#linear-gradient-63)"/>
          <path id="Path_1471" data-name="Path 1471" d="M199.12,386.041a3.4,3.4,0,0,0,1.04-2.188c.008-.165-.444-1.644.125-1.744.945-.166,1.233,3.352,1.233,3.352A12.639,12.639,0,0,1,199.12,386.041Z" transform="translate(-186.986 -356.584)" fill="#f7a491"/>
          <path id="Path_1472" data-name="Path 1472" d="M164.871,388.684c.658.01,1.345-.091,1.4-.33s-.25-.38-.62-.443c.267-.039.459-.114.49-.233.069-.259-.26-.4-.645-.471.185-.036.312-.1.341-.191.176-.574-1.65-.7-1.65-.7s-1-.169-1.094.218a.757.757,0,0,0,.209.416.447.447,0,0,1,.182.553.279.279,0,0,0-.011.039.118.118,0,0,0,.054.112c.167.141.116.681.11.712a.54.54,0,0,0,.195.332,39.787,39.787,0,0,0,4.377,3.4c.672.244.115-1.787.115-1.787S165.035,389.267,164.871,388.684Z" transform="translate(-156.519 -360.115)" fill="#f7a491"/>
          <path id="Path_1473" data-name="Path 1473" d="M434.74,378.128a3.4,3.4,0,0,1-1.838-1.579c-.074-.148-.26-1.683-.821-1.544-.932.231.23,3.565.23,3.565A12.652,12.652,0,0,0,434.74,378.128Z" transform="translate(-383.692 -350.574)" fill="#f7a491"/>
          <path id="Path_1474" data-name="Path 1474" d="M457.677,364.852c-.6.275-1.267.462-1.414.266s.075-.449.387-.656c-.26.072-.465.081-.542-.014-.168-.209.077-.468.4-.691-.184.042-.325.037-.389-.037-.393-.454,1.224-1.31,1.224-1.31s.847-.56,1.089-.244a.758.758,0,0,1-.023.465c-.132.18.057.407.061.42a.567.567,0,0,1,.019.316c-.1.2.17.67.187.7a.54.54,0,0,1-.044.383,39.784,39.784,0,0,1-2.623,4.884c-.515.5-.829-1.588-.829-1.588S457.763,365.452,457.677,364.852Z" transform="translate(-403.531 -339.641)" fill="#f7a491"/>
        </g>
      </g>
    </g>
  </g>
</svg>
