<svg id="flight-ticket" xmlns="http://www.w3.org/2000/svg" width="36.824" height="36.824" viewBox="0 0 36.824 36.824">
  <g id="Group_81" data-name="Group 81">
    <path id="Path_836" data-name="Path 836" d="M36.5,13.943l-3.357-3.357a1.1,1.1,0,0,0-1.474-.077,3.808,3.808,0,0,1-5.355-5.355,1.1,1.1,0,0,0-.077-1.474L22.881.324a1.1,1.1,0,0,0-1.559,0l-21,21a1.1,1.1,0,0,0,0,1.559l3.357,3.357h0a1.1,1.1,0,0,0,1.559,0,1.125,1.125,0,0,0,.109-.127c.075-.09.154-.177.236-.258a3.808,3.808,0,1,1,5.385,5.385,3.856,3.856,0,0,1-.3.269,1.1,1.1,0,0,0-.085,1.636L13.942,36.5a1.1,1.1,0,0,0,1.56,0l21-21A1.1,1.1,0,0,0,36.5,13.943Zm-14.18,6.983a.267.267,0,0,1-.267.267.269.269,0,0,1-.088-.015l-3.428-1.195a21.051,21.051,0,0,1-.254,2.838q-.037.213-.077.4l1.785.992a.145.145,0,0,1,.074.127v.6a.145.145,0,0,1-.192.137l-2.086-.727a.475.475,0,0,1-.8,0l-2.086.727a.145.145,0,0,1-.192-.137v-.6a.145.145,0,0,1,.074-.127l1.785-.992q-.04-.188-.077-.4a21.08,21.08,0,0,1-.254-2.838l-3.428,1.195a.267.267,0,0,1-.354-.252V19.815a.267.267,0,0,1,.137-.233l.774-.43V18.8a.426.426,0,0,1,.837-.115l.652-.362V18a.426.426,0,0,1,.83-.138l.578-.321a19.347,19.347,0,0,1,.229-2.217,5.945,5.945,0,0,1,.3-1.177c.058-.143.235-.578.6-.578s.539.435.6.578a5.941,5.941,0,0,1,.3,1.177,19.345,19.345,0,0,1,.229,2.217l.578.321a.426.426,0,0,1,.83.138v.323l.651.362a.426.426,0,0,1,.837.115v.35l.774.43a.267.267,0,0,1,.137.233v1.112Zm7.231-2.939a1.15,1.15,0,0,1-1.626,0L18.836,8.9a1.15,1.15,0,0,1,1.626-1.626l9.09,9.09A1.15,1.15,0,0,1,29.552,17.988Z" transform="translate(0.001 -0.001)" fill="#eabd5b"/>
  </g>
</svg>
