<svg id="Icon_ionic-ios-briefcase" data-name="Icon ionic-ios-briefcase" xmlns="http://www.w3.org/2000/svg" width="16.499" height="15.229" viewBox="0 0 16.499 15.229">
  <path id="Path_1" data-name="Path 1" d="M4.644,24.634H18.6a1.268,1.268,0,0,0,1.269-1.269V15.75H3.375v7.615A1.268,1.268,0,0,0,4.644,24.634Z" transform="translate(-3.375 -9.404)" fill="#abaead"/>
  <path id="Path_2" data-name="Path 2" d="M18.6,7.038h-.317V6.721A.318.318,0,0,0,17.97,6.4H16.7a.318.318,0,0,0-.317.317v.317h-1.11V5.769A1.273,1.273,0,0,0,14,4.5H9.245A1.273,1.273,0,0,0,7.976,5.769V7.038H6.865V6.721A.318.318,0,0,0,6.548,6.4H5.279a.318.318,0,0,0-.317.317v.317H4.644A1.268,1.268,0,0,0,3.375,8.307V9.894h16.5V8.307A1.268,1.268,0,0,0,18.6,7.038Zm-4.442,0H9.086V5.928A.318.318,0,0,1,9.4,5.61h4.442a.318.318,0,0,1,.317.317Z" transform="translate(-3.375 -4.5)" fill="#abaead"/>
</svg>
