<svg xmlns="http://www.w3.org/2000/svg" width="89.022" height="95.117" viewBox="0 0 89.022 95.117">
  <g id="Group_230" data-name="Group 230" transform="translate(-50.806 -730.276)">
    <g id="flight-ticket" transform="translate(50.806 730.276)">
      <g id="Group_81" data-name="Group 81">
        <path id="Path_836" data-name="Path 836" d="M36.5,13.943l-3.357-3.357a1.1,1.1,0,0,0-1.474-.077,3.808,3.808,0,0,1-5.355-5.355,1.1,1.1,0,0,0-.077-1.474L22.881.324a1.1,1.1,0,0,0-1.559,0l-21,21a1.1,1.1,0,0,0,0,1.559l3.357,3.357h0a1.1,1.1,0,0,0,1.559,0,1.125,1.125,0,0,0,.109-.127c.075-.09.154-.177.236-.258a3.808,3.808,0,1,1,5.385,5.385,3.856,3.856,0,0,1-.3.269,1.1,1.1,0,0,0-.085,1.636L13.942,36.5a1.1,1.1,0,0,0,1.56,0l21-21A1.1,1.1,0,0,0,36.5,13.943Zm-14.18,6.983a.267.267,0,0,1-.267.267.269.269,0,0,1-.088-.015l-3.428-1.195a21.051,21.051,0,0,1-.254,2.838q-.037.213-.077.4l1.785.992a.145.145,0,0,1,.074.127v.6a.145.145,0,0,1-.192.137l-2.086-.727a.475.475,0,0,1-.8,0l-2.086.727a.145.145,0,0,1-.192-.137v-.6a.145.145,0,0,1,.074-.127l1.785-.992q-.04-.188-.077-.4a21.08,21.08,0,0,1-.254-2.838l-3.428,1.195a.267.267,0,0,1-.354-.252V19.815a.267.267,0,0,1,.137-.233l.774-.43V18.8a.426.426,0,0,1,.837-.115l.652-.362V18a.426.426,0,0,1,.83-.138l.578-.321a19.347,19.347,0,0,1,.229-2.217,5.945,5.945,0,0,1,.3-1.177c.058-.143.235-.578.6-.578s.539.435.6.578a5.941,5.941,0,0,1,.3,1.177,19.345,19.345,0,0,1,.229,2.217l.578.321a.426.426,0,0,1,.83.138v.323l.651.362a.426.426,0,0,1,.837.115v.35l.774.43a.267.267,0,0,1,.137.233v1.112Zm7.231-2.939a1.15,1.15,0,0,1-1.626,0L18.836,8.9a1.15,1.15,0,0,1,1.626-1.626l9.09,9.09A1.15,1.15,0,0,1,29.552,17.988Z" transform="translate(0.001 -0.001)" fill="#eabd5b"/>
      </g>
    </g>
    <g id="electric-current-symbol" transform="translate(116.734 734.962)">
      <path id="Path_837" data-name="Path 837" d="M101.23.781A1.641,1.641,0,0,0,99.758,0H91.845a2.707,2.707,0,0,0-2.334,1.467L81.119,18.9a1.687,1.687,0,0,0,.041,1.65,1.71,1.71,0,0,0,1.461.777l6.21.078-4.5,11.238a1.479,1.479,0,0,0,.071,1.472.993.993,0,0,0,.812.427h.073a1.5,1.5,0,0,0,1.148-.682l14.527-18.242a1.483,1.483,0,0,0-1.207-2.509H95.136l6.049-10.658A1.643,1.643,0,0,0,101.23.781Z" transform="translate(-80.924)" fill="#eabd5b"/>
    </g>
    <g id="smartphone" transform="translate(56.637 784.32)">
      <g id="Group_82" data-name="Group 82">
        <path id="Path_838" data-name="Path 838" d="M131.931,0H118.055a4.36,4.36,0,0,0-4.363,4.282V36.8a4.319,4.319,0,0,0,4.321,4.277l13.9-.015A4.292,4.292,0,0,0,136.2,36.78l.02-32.5A4.282,4.282,0,0,0,131.931,0Zm-8.942,2.567h4.026a.642.642,0,0,1,0,1.283h-4.026a.642.642,0,1,1,0-1.283Zm-2.419.2a.665.665,0,0,1,.908,0,.643.643,0,0,1-.452,1.1.657.657,0,0,1-.456-.189.647.647,0,0,1,0-.908Zm4.3,37.029a1.92,1.92,0,1,1,1.92-1.92A1.923,1.923,0,0,1,124.872,39.8Zm9.356-5.146H115.938V6.1h18.289Z" transform="translate(-113.692)" fill="#eabd5b"/>
      </g>
    </g>
    <g id="Icon_open-transfer" data-name="Icon open-transfer" transform="translate(110.172 791.775)">
      <path id="Icon_open-transfer-2" data-name="Icon open-transfer" d="M22.242,0V3.707H0V7.414H22.242v3.707l7.414-5.561ZM7.414,14.828,0,20.389,7.414,25.95V22.242H29.657V18.535H7.414Z" fill="#eabd5b"/>
    </g>
  </g>
</svg>
