<svg id="Icon_awesome-users" data-name="Icon awesome-users" xmlns="http://www.w3.org/2000/svg" width="21.756" height="15.229" viewBox="0 0 21.756 15.229">
  <path id="Icon_awesome-users-2" data-name="Icon awesome-users" d="M3.263,8.777A2.176,2.176,0,1,0,1.088,6.6,2.178,2.178,0,0,0,3.263,8.777Zm15.229,0A2.176,2.176,0,1,0,16.317,6.6,2.178,2.178,0,0,0,18.493,8.777Zm1.088,1.088H17.405a2.169,2.169,0,0,0-1.533.632,4.972,4.972,0,0,1,2.553,3.719h2.244a1.087,1.087,0,0,0,1.088-1.088V12.04A2.178,2.178,0,0,0,19.581,9.865Zm-8.7,0A3.807,3.807,0,1,0,7.071,6.057,3.805,3.805,0,0,0,10.878,9.865Zm2.611,1.088h-.282a5.257,5.257,0,0,1-4.657,0H8.267a3.917,3.917,0,0,0-3.916,3.916v.979a1.632,1.632,0,0,0,1.632,1.632h9.79a1.632,1.632,0,0,0,1.632-1.632v-.979A3.917,3.917,0,0,0,13.489,10.953Zm-7.6-.456a2.169,2.169,0,0,0-1.533-.632H2.176A2.178,2.178,0,0,0,0,12.04v1.088a1.087,1.087,0,0,0,1.088,1.088h2.24A4.985,4.985,0,0,1,5.884,10.5Z" transform="translate(0 -2.25)" fill="#abaead"/>
</svg>
