<svg id="Component_2_1" data-name="Component 2 – 1" xmlns="http://www.w3.org/2000/svg" width="49.652" height="66.096" viewBox="0 0 49.652 66.096">
  <g id="trophy" transform="translate(0 16.609)">
    <g id="Group_7" data-name="Group 7" transform="translate(33.156 6.186)">
      <path id="Path_26" data-name="Path 26" d="M17.625,27.97a1.547,1.547,0,0,1-.307-3.062c5.631-1.146,11.6-8.079,12.128-18.815H22.617a1.546,1.546,0,1,1,0-3.093H31.03a1.547,1.547,0,0,1,1.546,1.546c0,13.4-7.365,21.91-14.64,23.393A1.61,1.61,0,0,1,17.625,27.97Z" transform="translate(-16.08 -3)" fill="#eabd5b"/>
    </g>
    <g id="Group_8" data-name="Group 8" transform="translate(0 6.186)">
      <path id="Path_27" data-name="Path 27" d="M14.766,27.929a1.621,1.621,0,0,1-.34-.037C7.258,26.284,0,17.749,0,4.546A1.547,1.547,0,0,1,1.546,3H9.794a1.546,1.546,0,1,1,0,3.093H3.132C3.658,16.679,9.547,23.628,15.1,24.873a1.547,1.547,0,0,1-.338,3.056Z" transform="translate(0 -3)" fill="#eabd5b"/>
    </g>
    <g id="Group_9" data-name="Group 9" transform="translate(20.62 33.218)">
      <path id="Path_28" data-name="Path 28" d="M16.7,16.11a1.547,1.547,0,0,0-1.546,1.546H13.093a1.546,1.546,0,1,0-3.093,0v7.506a1.547,1.547,0,0,0,1.546,1.546H16.7a1.547,1.547,0,0,0,1.546-1.546V17.656A1.547,1.547,0,0,0,16.7,16.11Z" transform="translate(-10 -16.11)" fill="#eabd5b"/>
    </g>
    <g id="Group_10" data-name="Group 10" transform="translate(14.434 41.239)">
      <path id="Path_29" data-name="Path 29" d="M21.949,20H12.67A5.675,5.675,0,0,0,7,25.67V26.7a1.547,1.547,0,0,0,1.546,1.546H26.073A1.547,1.547,0,0,0,27.62,26.7V25.67A5.675,5.675,0,0,0,21.949,20Z" transform="translate(-7 -20)" fill="#eabd5b"/>
    </g>
    <g id="Group_11" data-name="Group 11" transform="translate(8.248 0)">
      <path id="Path_30" data-name="Path 30" d="M33.383,0H7.608A3.612,3.612,0,0,0,4,3.608v14.96C4.089,31.88,19.339,37.322,19.988,37.546a1.534,1.534,0,0,0,.507.087A1.565,1.565,0,0,0,21,37.548c.652-.227,15.991-5.67,15.991-18.991V3.608A3.612,3.612,0,0,0,33.383,0Z" transform="translate(-4 0)" fill="#eabd5b"/>
    </g>
  </g>
  <path id="Icon_material-star" data-name="Icon material-star" d="M8.635,11.6l3.482,2.1-.924-3.961,3.076-2.665-4.051-.344L8.635,3,7.051,6.736,3,7.079,6.076,9.745l-.924,3.961Z" transform="translate(15.983 -3)" fill="#eabd5b"/>
  <path id="Icon_material-star-2" data-name="Icon material-star" d="M8.635,11.6l3.482,2.1-.924-3.961,3.076-2.665-4.051-.344L8.635,3,7.051,6.736,3,7.079,6.076,9.745l-.924,3.961Z" transform="translate(29.983)" fill="#eabd5b"/>
  <path id="Icon_material-star-3" data-name="Icon material-star" d="M8.635,11.6l3.482,2.1-.924-3.961,3.076-2.665-4.051-.344L8.635,3,7.051,6.736,3,7.079,6.076,9.745l-.924,3.961Z" transform="translate(1.983)" fill="#eabd5b"/>
</svg>
