<svg id="Icon_awesome-clipboard-list" data-name="Icon awesome-clipboard-list" xmlns="http://www.w3.org/2000/svg" width="14.085" height="18.779" viewBox="0 0 14.085 18.779">
  <path id="Icon_awesome-clipboard-list-2" data-name="Icon awesome-clipboard-list" d="M12.324,2.347H9.39a2.347,2.347,0,1,0-4.695,0H1.761A1.761,1.761,0,0,0,0,4.108V17.019a1.761,1.761,0,0,0,1.761,1.761H12.324a1.761,1.761,0,0,0,1.761-1.761V4.108A1.761,1.761,0,0,0,12.324,2.347Zm-8.8,13.2a.88.88,0,1,1,.88-.88A.878.878,0,0,1,3.521,15.552Zm0-3.521a.88.88,0,1,1,.88-.88A.878.878,0,0,1,3.521,12.031Zm0-3.521a.88.88,0,1,1,.88-.88A.878.878,0,0,1,3.521,8.509ZM7.042,1.467a.88.88,0,1,1-.88.88A.878.878,0,0,1,7.042,1.467Zm4.695,13.5a.294.294,0,0,1-.293.293H6.162a.294.294,0,0,1-.293-.293v-.587a.294.294,0,0,1,.293-.293h5.282a.294.294,0,0,1,.293.293Zm0-3.521a.294.294,0,0,1-.293.293H6.162a.294.294,0,0,1-.293-.293v-.587a.294.294,0,0,1,.293-.293h5.282a.294.294,0,0,1,.293.293Zm0-3.521a.294.294,0,0,1-.293.293H6.162a.294.294,0,0,1-.293-.293V7.336a.294.294,0,0,1,.293-.293h5.282a.294.294,0,0,1,.293.293Z" fill="#abaead"/>
</svg>
