<svg id="Icon_awesome-user-cog" data-name="Icon awesome-user-cog" xmlns="http://www.w3.org/2000/svg" width="24.016" height="19.215" viewBox="0 0 24.016 19.215">
  <path id="Icon_awesome-user-cog-2" data-name="Icon awesome-user-cog" d="M22.912,14.01a4.4,4.4,0,0,0,0-1.6l.968-.559A.272.272,0,0,0,24,11.533a5.632,5.632,0,0,0-1.246-2.154.274.274,0,0,0-.338-.053l-.968.559a4.406,4.406,0,0,0-1.385-.8V7.967a.273.273,0,0,0-.214-.266,5.662,5.662,0,0,0-2.484,0,.273.273,0,0,0-.214.266V9.086a4.406,4.406,0,0,0-1.385.8L14.8,9.326a.274.274,0,0,0-.338.053,5.632,5.632,0,0,0-1.246,2.154.276.276,0,0,0,.124.319l.968.559a4.4,4.4,0,0,0,0,1.6l-.968.559a.272.272,0,0,0-.124.319,5.66,5.66,0,0,0,1.246,2.154.274.274,0,0,0,.338.053l.968-.559a4.406,4.406,0,0,0,1.385.8v1.118a.273.273,0,0,0,.214.266,5.662,5.662,0,0,0,2.484,0,.273.273,0,0,0,.214-.266V17.335a4.406,4.406,0,0,0,1.385-.8l.968.559a.274.274,0,0,0,.338-.053A5.632,5.632,0,0,0,24,14.888a.276.276,0,0,0-.124-.319l-.968-.559Zm-4.3,1.021a1.82,1.82,0,1,1,1.82-1.82A1.822,1.822,0,0,1,18.614,15.03ZM8.407,9.607A4.8,4.8,0,1,0,3.6,4.8,4.8,4.8,0,0,0,8.407,9.607Zm7.551,8.5c-.086-.045-.173-.1-.255-.146l-.3.173a1.472,1.472,0,0,1-1.82-.274,6.843,6.843,0,0,1-1.509-2.612,1.468,1.468,0,0,1,.672-1.715l.3-.173q-.006-.146,0-.293l-.3-.173a1.466,1.466,0,0,1-.672-1.715c.034-.109.083-.218.12-.327-.143-.011-.281-.045-.428-.045h-.627a6.533,6.533,0,0,1-5.472,0H5.044A5.045,5.045,0,0,0,0,15.852v1.561a1.8,1.8,0,0,0,1.8,1.8h13.21a1.8,1.8,0,0,0,1.021-.319,1.462,1.462,0,0,1-.075-.443Z" fill="#abaead"/>
</svg>
