<svg xmlns="http://www.w3.org/2000/svg" xmlns:xlink="http://www.w3.org/1999/xlink" width="41" height="41" viewBox="0 0 41 41">
  <defs>
    <filter id="Ellipse_29" x="0" y="0" width="41" height="41" filterUnits="userSpaceOnUse">
      <feOffset input="SourceAlpha"/>
      <feGaussianBlur stdDeviation="1.5" result="blur"/>
      <feFlood flood-opacity="0.161"/>
      <feComposite operator="in" in2="blur"/>
      <feComposite in="SourceGraphic"/>
    </filter>
  </defs>
  <g id="Group_231" data-name="Group 231" transform="translate(-26.5 -878.5)">
    <g transform="matrix(1, 0, 0, 1, 26.5, 878.5)" filter="url(#Ellipse_29)">
      <circle id="Ellipse_29-2" data-name="Ellipse 29" cx="16" cy="16" r="16" transform="translate(4.5 4.5)" fill="#2e2e2e"/>
    </g>
    <g id="Component_3_1" data-name="Component 3 – 1" transform="translate(38 891)">
      <g id="loan" transform="translate(0 9.179)">
        <path id="Path_840" data-name="Path 840" d="M9.336,364.694H8.166a.513.513,0,0,0-.513.513v4.022a.513.513,0,0,0,.513.513h1.17v-5.048Z" transform="translate(-7.653 -363.031)" fill="#eabd5b"/>
        <path id="Path_841" data-name="Path 841" d="M100.993,317.7a2.469,2.469,0,0,0-3.488,0l-1.537,1.537-.63.63a1.358,1.358,0,0,1-.96.4H91.315a.523.523,0,0,1-.528-.489.514.514,0,0,1,.513-.539h3.113a1.292,1.292,0,0,0,1.277-1.062,2.53,2.53,0,0,0,.038-.436.514.514,0,0,0-.514-.514H93.508a4.032,4.032,0,0,1-1.66-.521,5.308,5.308,0,0,0-1.928-.619,5.431,5.431,0,0,0-1.873.2,1.661,1.661,0,0,0-1.188,1.449h-.007v5.045l8.839,0a2.261,2.261,0,0,0,1.609-.666l3.692-3.692A.514.514,0,0,0,100.993,317.7Z" transform="translate(-84.144 -316.075)" fill="#eabd5b"/>
      </g>
      <path id="Subtraction_4" data-name="Subtraction 4" d="M4.5,9A4.5,4.5,0,1,1,9,4.5,4.505,4.505,0,0,1,4.5,9ZM3.257,4.649a.107.107,0,0,0-.107.107v.472a.107.107,0,0,0,.034.079L4.655,6.664a.107.107,0,0,0,.073.028h.735a.107.107,0,0,0,.073-.185L4.192,5.266a1.214,1.214,0,0,0,1.232-1.14h.471A.107.107,0,0,0,6,4.019V3.663a.107.107,0,0,0-.107-.107H5.372a1.252,1.252,0,0,0-.127-.286h.65A.107.107,0,0,0,6,3.163V2.807A.107.107,0,0,0,5.894,2.7H3.257a.107.107,0,0,0-.107.107v.4a.107.107,0,0,0,.107.107h.76a.64.64,0,0,1,.544.243h-1.3a.107.107,0,0,0-.107.107v.356a.107.107,0,0,0,.107.107H4.671a.612.612,0,0,1-.666.522Z" transform="translate(7)" fill="#eabd5b"/>
    </g>
  </g>
</svg>
