<svg xmlns="http://www.w3.org/2000/svg" xmlns:xlink="http://www.w3.org/1999/xlink" width="41" height="41" viewBox="0 0 41 41">
  <defs>
    <filter id="Ellipse_30" x="0" y="0" width="41" height="41" filterUnits="userSpaceOnUse">
      <feOffset input="SourceAlpha"/>
      <feGaussianBlur stdDeviation="1.5" result="blur"/>
      <feFlood flood-opacity="0.161"/>
      <feComposite operator="in" in2="blur"/>
      <feComposite in="SourceGraphic"/>
    </filter>
  </defs>
  <g id="Group_232" data-name="Group 232" transform="translate(-26.5 -957.5)">
    <g transform="matrix(1, 0, 0, 1, 26.5, 957.5)" filter="url(#Ellipse_30)">
      <circle id="Ellipse_30-2" data-name="Ellipse 30" cx="16" cy="16" r="16" transform="translate(4.5 4.5)" fill="#2e2e2e"/>
    </g>
    <g id="shield" transform="translate(40 970)">
      <g id="Group_85" data-name="Group 85">
        <path id="Path_842" data-name="Path 842" d="M47.709,4.226c-.02-.432-.02-.844-.02-1.257a.579.579,0,0,0-.589-.589A7.889,7.889,0,0,1,41.229.162a.606.606,0,0,0-.825,0,7.889,7.889,0,0,1-5.871,2.219.579.579,0,0,0-.589.589c0,.412,0,.825-.02,1.257-.079,4.123-.2,9.778,6.7,12.154l.2.039.2-.039C47.885,14,47.787,8.369,47.709,4.226ZM40.346,9.94a.634.634,0,0,1-.412.157h-.02a.553.553,0,0,1-.412-.2L37.676,7.878l.884-.785,1.433,1.59L43.173,5.66l.805.864Z" transform="translate(-33.908 0)" fill="#eabd5b"/>
      </g>
    </g>
  </g>
</svg>
