<svg xmlns="http://www.w3.org/2000/svg" width="35.177" height="30.501" viewBox="0 0 35.177 30.501">
  <g id="Component_31_1" data-name="Component 31 – 1" transform="translate(0)">
    <path id="Subtraction_9" data-name="Subtraction 9" d="M14.071,30.5H5.277V16.147H0L17.589,0,35.177,16.147H29.9V30.5H21.106V19.735H14.071V30.5Zm.791-19.145a.217.217,0,0,0-.214.219v.966a.223.223,0,0,0,.069.161l2.95,2.778a.212.212,0,0,0,.145.058h1.475a.211.211,0,0,0,.2-.139.218.218,0,0,0-.054-.241l-2.7-2.539a2.454,2.454,0,0,0,2.472-2.332h.944a.217.217,0,0,0,.214-.219V9.339a.217.217,0,0,0-.214-.22H19.1a2.576,2.576,0,0,0-.255-.583h1.3a.217.217,0,0,0,.214-.219V7.589a.217.217,0,0,0-.214-.219H14.862a.217.217,0,0,0-.214.219V8.4a.217.217,0,0,0,.214.219h1.524a1.276,1.276,0,0,1,1.09.5H14.862a.217.217,0,0,0-.214.22v.729a.217.217,0,0,0,.214.219H17.7a1.235,1.235,0,0,1-1.336,1.069Z" fill="#eabd5b"/>
  </g>
</svg>
