<svg id="Icon_awesome-rupee-sign" data-name="Icon awesome-rupee-sign" xmlns="http://www.w3.org/2000/svg" width="5.222" height="7.31" viewBox="0 0 5.222 7.31">
  <path id="Icon_awesome-rupee-sign-2" data-name="Icon awesome-rupee-sign" d="M5.026,3.294a.2.2,0,0,0,.2-.2V2.446a.2.2,0,0,0-.2-.2H.2a.2.2,0,0,0-.2.2v.73a.2.2,0,0,0,.2.2H1.587a1.177,1.177,0,0,1,.995.445H.2a.2.2,0,0,0-.2.2v.653a.2.2,0,0,0,.2.2H2.786a1.128,1.128,0,0,1-1.22.957H.2a.2.2,0,0,0-.2.2v.865a.2.2,0,0,0,.063.144L2.756,9.508a.2.2,0,0,0,.133.052H4.236a.2.2,0,0,0,.133-.34L1.907,6.948A2.235,2.235,0,0,0,4.164,4.861h.862a.2.2,0,0,0,.2-.2V4.012a.2.2,0,0,0-.2-.2H4.068a2.235,2.235,0,0,0-.233-.522Z" transform="translate(0 -2.25)" fill="#eabd5b"/>
</svg>
