<svg id="Icon_awesome-rupee-sign" data-name="Icon awesome-rupee-sign" xmlns="http://www.w3.org/2000/svg" width="13.506" height="18.909" viewBox="0 0 13.506 18.909">
  <path id="Icon_awesome-rupee-sign-2" data-name="Icon awesome-rupee-sign" d="M13,4.951a.507.507,0,0,0,.506-.506V2.756A.507.507,0,0,0,13,2.25H.506A.507.507,0,0,0,0,2.756V4.645a.507.507,0,0,0,.506.506h3.6A3.045,3.045,0,0,1,6.679,6.3H.506A.507.507,0,0,0,0,6.808V8.5A.507.507,0,0,0,.506,9h6.7a2.917,2.917,0,0,1-3.155,2.475H.506A.507.507,0,0,0,0,11.984v2.238a.507.507,0,0,0,.163.372l6.966,6.431a.507.507,0,0,0,.344.134h3.485a.506.506,0,0,0,.344-.879L4.933,14.4A5.782,5.782,0,0,0,10.771,9H13a.507.507,0,0,0,.506-.506V6.808A.507.507,0,0,0,13,6.3H10.523a5.781,5.781,0,0,0-.6-1.351Z" transform="translate(0 -2.25)" fill="#eabd5b"/>
</svg>
