<svg id="Icon_ionic-ios-gift" data-name="Icon ionic-ios-gift" xmlns="http://www.w3.org/2000/svg" width="16.86" height="18.157" viewBox="0 0 16.86 18.157">
  <path id="Path_3" data-name="Path 3" d="M18.938,6.465H15.522a2.381,2.381,0,0,0,.823-1.783A2.5,2.5,0,0,0,13.787,2.25a2.261,2.261,0,0,0-1.982,1.11A2.261,2.261,0,0,0,9.823,2.25,2.5,2.5,0,0,0,7.266,4.682a2.367,2.367,0,0,0,.823,1.783H4.672a1.3,1.3,0,0,0-1.3,1.3v.811a.163.163,0,0,0,.162.162H20.073a.163.163,0,0,0,.162-.162V7.762A1.3,1.3,0,0,0,18.938,6.465Zm-5.151-3.08a1.332,1.332,0,0,1,1.366,1.3,1.332,1.332,0,0,1-1.366,1.3H12.421C12.421,4.033,13.033,3.385,13.787,3.385Zm-3.964,0c.754,0,1.366.648,1.366,2.594H9.823a1.332,1.332,0,0,1-1.366-1.3A1.332,1.332,0,0,1,9.823,3.385Z" transform="translate(-3.375 -2.25)" fill="#abaead"/>
  <path id="Path_4" data-name="Path 4" d="M4.5,15.652v9a1.3,1.3,0,0,0,1.3,1.3h5.917V15.328H4.824A.325.325,0,0,0,4.5,15.652Z" transform="translate(-3.852 -7.79)" fill="#abaead"/>
  <path id="Path_5" data-name="Path 5" d="M25.874,15.328h-6.89V25.947H24.9a1.3,1.3,0,0,0,1.3-1.3v-9A.325.325,0,0,0,25.874,15.328Z" transform="translate(-9.987 -7.79)" fill="#abaead"/>
</svg>
