<svg id="Icon_material-account-balance-wallet" data-name="Icon material-account-balance-wallet" xmlns="http://www.w3.org/2000/svg" width="14.765" height="13.988" viewBox="0 0 14.765 13.988">
  <path id="Icon_material-account-balance-wallet-2" data-name="Icon material-account-balance-wallet" d="M18.488,16.156v.777a1.559,1.559,0,0,1-1.554,1.554H6.054A1.554,1.554,0,0,1,4.5,16.933V6.054A1.554,1.554,0,0,1,6.054,4.5H16.933a1.559,1.559,0,0,1,1.554,1.554v.777H11.494A1.554,1.554,0,0,0,9.94,8.385V14.6a1.554,1.554,0,0,0,1.554,1.554ZM11.494,14.6h7.771V8.385H11.494ZM14.6,12.659a1.166,1.166,0,1,1,1.166-1.166A1.164,1.164,0,0,1,14.6,12.659Z" transform="translate(-4.5 -4.5)" fill="#abaead"/>
</svg>
