<svg xmlns="http://www.w3.org/2000/svg" width="32.241" height="34.629" viewBox="0 0 32.241 34.629">
  <g id="_010---Labour" data-name="010---Labour" transform="translate(0 0)">
    <path id="Shape" d="M29.606,23.27A8.956,8.956,0,1,0,17.969,29.4v-4.86H14.495A1.791,1.791,0,0,1,12.7,22.452l1-5.97a1.791,1.791,0,0,1,1.791-1.5h9.272a1.791,1.791,0,0,1,1.606.991l2.985,5.97a1.791,1.791,0,0,1-1.606,2.591H23.94V29.4a8.992,8.992,0,0,0,5.666-6.126Z" transform="translate(-4.834 -4.833)" fill="#eabd5b"/>
    <path id="Shape-2" data-name="Shape" d="M.9,19l2.484.6A13.135,13.135,0,0,0,4.83,23.07L3.51,25.291a1.194,1.194,0,0,0,.179,1.463l2.06,2.06a1.194,1.194,0,0,0,1.463.179l2.2-1.319a13.135,13.135,0,0,0,3.475,1.445l.251,1v-4.3a10.15,10.15,0,1,1,5.97,0v4.3l.251-1a13.135,13.135,0,0,0,3.475-1.445l2.2,1.319a1.194,1.194,0,0,0,1.463-.179l2.06-2.06a1.194,1.194,0,0,0,.179-1.463l-1.319-2.2a13.135,13.135,0,0,0,1.445-3.475l2.484-.6a1.194,1.194,0,0,0,.9-1.182V14.663a1.194,1.194,0,0,0-.9-1.158l-2.484-.6A13.135,13.135,0,0,0,27.41,9.433l1.319-2.2a1.194,1.194,0,0,0-.179-1.463L26.491,3.69a1.194,1.194,0,0,0-1.463-.179l-2.2,1.319a13.135,13.135,0,0,0-3.475-1.445L18.759.9A1.194,1.194,0,0,0,17.577,0H14.663a1.194,1.194,0,0,0-1.158.9l-.6,2.484A13.135,13.135,0,0,0,9.433,4.83L7.212,3.51a1.194,1.194,0,0,0-1.463.179L3.69,5.749A1.194,1.194,0,0,0,3.51,7.212l1.319,2.2a13.135,13.135,0,0,0-1.445,3.475l-2.484.6A1.194,1.194,0,0,0,0,14.663V17.84A1.194,1.194,0,0,0,.9,19Z" transform="translate(0 0)" fill="#eabd5b"/>
    <path id="Shape-3" data-name="Shape" d="M25.791,47.926a1.791,1.791,0,0,0,1.791-1.791V33H24V46.135A1.791,1.791,0,0,0,25.791,47.926Z" transform="translate(-9.671 -13.298)" fill="#eabd5b"/>
    <path id="Shape-4" data-name="Shape" d="M29.564,25.3l-2.985-5.97A.6.6,0,0,0,26.041,19H16.769a.6.6,0,0,0-.6.5l-1,5.97a.6.6,0,0,0,.6.693H29.026a.6.6,0,0,0,.537-.866Z" transform="translate(-6.112 -7.656)" fill="#eabd5b"/>
  </g>
</svg>
