<svg xmlns="http://www.w3.org/2000/svg" width="33.909" height="33.91" viewBox="0 0 33.909 33.91">
  <g id="tax" transform="translate(-0.002 -0.001)">
    <path id="Path_1223" data-name="Path 1223" d="M343,15.615h5.778c-1.045-1.048-4.632-4.631-5.778-5.773Z" transform="translate(-320.283 -9.19)" fill="#eabd5b"/>
    <path id="Path_1224" data-name="Path 1224" d="M32.918,223.005H1A.993.993,0,0,0,0,224V234.86a.993.993,0,0,0,.993.993H32.918a.993.993,0,0,0,.993-.993V224A.993.993,0,0,0,32.918,223.005Zm-21.789,3.709H9.473v6.424a.993.993,0,0,1-1.987,0v-6.424H5.83a.993.993,0,1,1,0-1.987h5.3a.993.993,0,1,1,0,1.987Zm9.092,7.354a.993.993,0,0,1-1.279-.581l-.355-.945H15.33l-.358.948a.993.993,0,1,1-1.858-.7c2.893-7.649,2.767-7.317,2.775-7.336a1.164,1.164,0,0,1,2.166.027l2.746,7.312a.994.994,0,0,1-.581,1.279Zm7.864.064a.992.992,0,0,1-.809-.416l-1.841-2.577-1.841,2.577a.993.993,0,1,1-1.617-1.155l2.237-3.131L21.976,226.3a.993.993,0,1,1,1.617-1.155l1.841,2.577,1.841-2.577a.993.993,0,1,1,1.617,1.155l-2.237,3.131,2.237,3.131A1,1,0,0,1,28.084,234.132Z" transform="translate(0 -208.235)" fill="#eabd5b"/>
    <path id="Path_1225" data-name="Path 1225" d="M73,449.323a1.989,1.989,0,0,0,1.987,1.987H95.255a1.989,1.989,0,0,0,1.987-1.987v-2.318H73Z" transform="translate(-68.165 -417.4)" fill="#eabd5b"/>
    <path id="Path_1226" data-name="Path 1226" d="M97.242,8.412H89.89a.993.993,0,0,1-.993-.993V0H74.989A2.047,2.047,0,0,0,73,2.054V12.783h24.24ZM83,10.531H78.234a.993.993,0,1,1,0-1.987H83a.993.993,0,1,1,0,1.987Zm0-4.239H78.234a.993.993,0,1,1,0-1.987H83a.993.993,0,1,1,0,1.987Z" transform="translate(-68.165 0)" fill="#eabd5b"/>
    <path id="Path_1227" data-name="Path 1227" d="M242.791,304.128h1.758l-.876-2.332Z" transform="translate(-226.709 -281.808)" fill="#eabd5b"/>
  </g>
</svg>
