<svg xmlns="http://www.w3.org/2000/svg" width="33.609" height="28.007" viewBox="0 0 33.609 28.007">
  <g id="briefcase" transform="translate(0 -42.666)">
    <g id="Group_262" data-name="Group 262" transform="translate(0 42.666)">
      <g id="Group_261" data-name="Group 261" transform="translate(0 0)">
        <path id="Path_1217" data-name="Path 1217" d="M30.808,46.867h-7v-1.4a2.8,2.8,0,0,0-2.8-2.8H12.6a2.8,2.8,0,0,0-2.8,2.8v1.4h-7a2.8,2.8,0,0,0-2.8,2.8v4.2a2.8,2.8,0,0,0,2.8,2.8H14v-.7a.7.7,0,0,1,.7-.7h4.2a.7.7,0,0,1,.7.7v.7h11.2a2.8,2.8,0,0,0,2.8-2.8v-4.2A2.8,2.8,0,0,0,30.808,46.867Zm-9.8,0H12.6v-1.4h8.4Z" transform="translate(0 -42.666)" fill="#eabd5b"/>
        <path id="Path_1218" data-name="Path 1218" d="M33.22,266.457a.7.7,0,0,0-.734.069,2.765,2.765,0,0,1-1.678.576h-11.2v2.1a.7.7,0,0,1-.7.7H14.7a.7.7,0,0,1-.7-.7v-2.1H2.8a2.765,2.765,0,0,1-1.678-.576A.7.7,0,0,0,0,267.085v9.82a2.8,2.8,0,0,0,2.8,2.8H30.808a2.8,2.8,0,0,0,2.8-2.8v-9.82A.7.7,0,0,0,33.22,266.457Z" transform="translate(0 -251.698)" fill="#eabd5b"/>
      </g>
    </g>
  </g>
</svg>
