<svg xmlns="http://www.w3.org/2000/svg" xmlns:xlink="http://www.w3.org/1999/xlink" width="41" height="41" viewBox="0 0 41 41">
  <defs>
    <filter id="Ellipse_63" x="0" y="0" width="41" height="41" filterUnits="userSpaceOnUse">
      <feOffset input="SourceAlpha"/>
      <feGaussianBlur stdDeviation="1.5" result="blur"/>
      <feFlood flood-opacity="0.161"/>
      <feComposite operator="in" in2="blur"/>
      <feComposite in="SourceGraphic"/>
    </filter>
  </defs>
  <g id="Group_267" data-name="Group 267" transform="translate(-21.5 -121.5)">
    <g transform="matrix(1, 0, 0, 1, 21.5, 121.5)" filter="url(#Ellipse_63)">
      <circle id="Ellipse_63-2" data-name="Ellipse 63" cx="16" cy="16" r="16" transform="translate(4.5 4.5)" fill="#2e2e2e"/>
    </g>
    <path id="Icon_material-location-on" data-name="Icon material-location-on" d="M14,3A6.5,6.5,0,0,0,7.5,9.5c0,4.875,6.5,12.072,6.5,12.072s6.5-7.2,6.5-12.072A6.5,6.5,0,0,0,14,3Zm0,8.822A2.321,2.321,0,1,1,16.322,9.5,2.322,2.322,0,0,1,14,11.822Z" transform="translate(27.5 130)" fill="#eabd5b"/>
  </g>
</svg>
