<svg id="Icon_material-lock" data-name="Icon material-lock" xmlns="http://www.w3.org/2000/svg" width="12.412" height="16.291" viewBox="0 0 12.412 16.291">
  <path id="Icon_material-lock-2" data-name="Icon material-lock" d="M16.861,6.93h-.776V5.379a3.879,3.879,0,1,0-7.758,0V6.93H7.552A1.556,1.556,0,0,0,6,8.482v7.758a1.556,1.556,0,0,0,1.552,1.552h9.309a1.556,1.556,0,0,0,1.552-1.552V8.482A1.556,1.556,0,0,0,16.861,6.93Zm-4.655,6.982a1.552,1.552,0,1,1,1.552-1.552A1.556,1.556,0,0,1,12.206,13.912Zm2.4-6.982H9.8V5.379a2.4,2.4,0,1,1,4.81,0Z" transform="translate(-6 -1.5)" fill="#eabd5b"/>
</svg>
