<svg xmlns="http://www.w3.org/2000/svg" width="238.421" height="90.558" viewBox="0 0 238.421 90.558">
  <g id="NFBI---------final-01" transform="translate(-16.511 -8.683)">
    <g id="Group_273" data-name="Group 273" transform="translate(21.537 8.683)">
      <path id="Path_1279" data-name="Path 1279" d="M182.983,45.177,190,26.165h21.936L199.215,61.409S188.1,54.534,182.983,45.177Z" transform="translate(-124.701 -19.517)" fill="#ebbd5a"/>
      <path id="Path_1280" data-name="Path 1280" d="M94.33,40.923C84.093,29.151,86.283,18.388,86.992,15.88h1.175l-4.807-7.2-4.807,7.2h1.009c-.319,23.159,24.714,33.82,24.714,33.82C75.2,40.5,75.011,19.51,75.2,15.88h1.318l-4.806-4.8-4.807,4.8H68.04c.271,3.164,2.746,19.487,25.12,30.016,0,0-27.64-6.728-29.541-30.565H59.378L39.927,70.024H62.595l9.945-28.371,6.726,28.371h24.715l6.581-18.865C101.788,49.112,94.33,40.923,94.33,40.923Z" transform="translate(-36.048 -8.683)" fill="#ebbd5a"/>
      <path id="Path_1281" data-name="Path 1281" d="M280.815,41.52,286.1,26.165H241.946L223.114,80.858H243.8l5.992-17.4h11.494l4.783-13.892H254.571l2.771-8.044Z" transform="translate(-149.571 -19.517)" fill="#ebbd5a"/>
      <path id="Path_1282" data-name="Path 1282" d="M505.3,81.031H484.5l18.646-54.146H523.94Z" transform="translate(-311.554 -19.963)" fill="#ebbd5a"/>
      <path id="Path_1283" data-name="Path 1283" d="M219.461,190.382H29.727l2.7-7.807H222.163Z" transform="translate(-29.727 -116.445)" fill="#ebbd5a"/>
      <path id="Path_1284" data-name="Path 1284" d="M405.172,28.818a17.744,17.744,0,0,0-7.934-2.653l-14.68.023H372L353.27,80.858h27.951a32.01,32.01,0,0,0,12.755-3.912c4.751-2.84,8.6-7.141,9.523-12.985.951-6.007-1.693-10.307-6.712-11.931l.039-.244c6.2-1.705,12-6.087,13.1-12.985A9.255,9.255,0,0,0,405.172,28.818ZM388.589,63.636c-.909,5.739-6.438,8.3-12.369,8.578-1.037-.035-1.964-.107-2.884-.218L378.7,56.575h1.027C385.162,56.575,389.451,58.2,388.589,63.636Zm6.479-22.968c-.733,4.625-5.553,7.386-11.965,7.386h-1.269l4.44-12.662a15.938,15.938,0,0,1,3.019-.37C393.168,35.277,395.647,37.007,395.068,40.668Z" transform="translate(-230.229 -19.517)" fill="#ebbd5a"/>
    </g>
    <g id="Group_274" data-name="Group 274" transform="translate(16.511 86.715)">
      <path id="Path_1285" data-name="Path 1285" d="M20.936,216a17.9,17.9,0,0,1,3.12-.239c1.449,0,2.385.325,2.837.942a2.642,2.642,0,0,1,.071,2.549,5.778,5.778,0,0,1-1.952,2.619A6.485,6.485,0,0,1,21.1,223.1a4.818,4.818,0,0,1-.939-.068l-1.69,4.347H16.511Zm-.125,5.373a3.372,3.372,0,0,0,.932.086,3.289,3.289,0,0,0,3.208-2.122c.5-1.283-.072-1.968-1.44-1.968a5.727,5.727,0,0,0-1.183.1Z" transform="translate(-16.511 -215.045)" fill="#ebbd5a"/>
      <path id="Path_1286" data-name="Path 1286" d="M49.141,228.185a6.485,6.485,0,0,1-5.748,4.432c-2.222,0-3.3-1.626-2.257-4.3a6.473,6.473,0,0,1,5.774-4.414C49.243,223.907,50.126,225.653,49.141,228.185Zm-5.941.086c-.626,1.608-.358,2.824.849,2.824,1.127,0,2.375-1.18,3.027-2.858.505-1.3.538-2.789-.815-2.789C44.862,225.447,43.739,226.884,43.2,228.271Z" transform="translate(-31.524 -220.091)" fill="#ebbd5a"/>
      <path id="Path_1287" data-name="Path 1287" d="M69.273,224.4l-.65,3.781c-.169.89-.345,1.8-.553,2.7H68.1c.513-.907,1.131-1.83,1.688-2.686l2.491-3.8h1.61l-.455,3.7c-.138.975-.282,1.882-.457,2.789h.032c.481-.907,1.011-1.814,1.6-2.789l2.306-3.7h1.948l-5.7,8.333H71.328l.384-3.388a25.931,25.931,0,0,1,.443-2.67h-.032c-.561,1.026-1.089,1.848-1.634,2.67l-2.316,3.388H66.322l.923-8.333Z" transform="translate(-47.379 -220.398)" fill="#ebbd5a"/>
      <path id="Path_1288" data-name="Path 1288" d="M97.457,228.854c-.537,1.506.32,2.156,1.576,2.156a6.768,6.768,0,0,0,2.32-.376l-.276,1.454a8.6,8.6,0,0,1-2.936.514c-2.543,0-3.395-1.66-2.4-4.209.9-2.31,3.064-4.483,5.575-4.483,2.543,0,2.515,2.225,1.8,4.055a7.324,7.324,0,0,1-.41.89Zm4.017-1.472c.316-.769.486-2.036-.834-2.036a3.333,3.333,0,0,0-2.611,2.036Z" transform="translate(-65.358 -220.093)" fill="#ebbd5a"/>
      <path id="Path_1289" data-name="Path 1289" d="M117.61,226.784c.439-1.129.736-1.934.98-2.686h1.722l-.554,1.592h.065a3.868,3.868,0,0,1,2.833-1.78,1.722,1.722,0,0,1,.447.051l-.772,1.986a2.193,2.193,0,0,0-.553-.07,2.908,2.908,0,0,0-2.39,1.592,5.273,5.273,0,0,0-.317.651l-1.677,4.312h-1.98Z" transform="translate(-77.802 -220.093)" fill="#ebbd5a"/>
      <path id="Path_1290" data-name="Path 1290" d="M132.256,226.21l2.629-6.759h-1.062l.612-1.574H135.5l.14-.359a6.39,6.39,0,0,1,2.055-2.841,4.127,4.127,0,0,1,2.357-.8,3,3,0,0,1,1.192.205l-.777,1.625a1.732,1.732,0,0,0-.777-.154c-.982,0-1.66.873-2.059,1.9l-.167.428h1.722l-.612,1.574h-1.706l-2.629,6.759Z" transform="translate(-88.239 -213.873)" fill="#ebbd5a"/>
      <path id="Path_1291" data-name="Path 1291" d="M154.546,230.235c-.386.992-.673,1.814-.907,2.5H151.9l.4-1.266h-.032a4.428,4.428,0,0,1-3.077,1.455c-1.433,0-2.384-.908-1.326-3.628l1.9-4.893h1.98l-1.763,4.535c-.539,1.386-.467,2.276.58,2.276a2.742,2.742,0,0,0,1.952-1.13,2.926,2.926,0,0,0,.365-.65l1.957-5.031h1.98Z" transform="translate(-97.63 -220.396)" fill="#ebbd5a"/>
      <path id="Path_1292" data-name="Path 1292" d="M173.968,214.367h2l-4.725,12.149h-2Z" transform="translate(-111.16 -214.179)" fill="#ebbd5a"/>
      <path id="Path_1293" data-name="Path 1293" d="M195.555,215.986l-4.485,11.533h-1.98l4.485-11.533Z" transform="translate(-123.46 -215.182)" fill="#ebbd5a"/>
      <path id="Path_1294" data-name="Path 1294" d="M213.072,214.367l-3.813,9.805c-.333.856-.66,1.78-.847,2.344h-1.77l.432-1.318h-.032A4.356,4.356,0,0,1,203.9,226.7c-1.867,0-2.689-1.694-1.692-4.261,1.069-2.789,3.356-4.449,5.239-4.449,1.079,0,1.665.479,1.779,1.1h.032l1.837-4.723Zm-4.815,7.29a3.587,3.587,0,0,0,.165-.547c.142-.821-.226-1.489-1.128-1.489-1.272,0-2.446,1.2-3.051,2.755-.592,1.523-.316,2.635.939,2.635a2.9,2.9,0,0,0,2.285-1.488,3.346,3.346,0,0,0,.3-.615Z" transform="translate(-131.321 -214.179)" fill="#ebbd5a"/>
      <path id="Path_1295" data-name="Path 1295" d="M228.518,228.854c-.537,1.506.32,2.156,1.576,2.156a6.768,6.768,0,0,0,2.32-.376l-.276,1.454a8.6,8.6,0,0,1-2.936.514c-2.543,0-3.395-1.66-2.4-4.209.9-2.31,3.064-4.483,5.575-4.483,2.543,0,2.515,2.225,1.8,4.055a7.322,7.322,0,0,1-.41.89Zm4.017-1.472c.316-.769.486-2.036-.834-2.036a3.333,3.333,0,0,0-2.611,2.036Z" transform="translate(-146.578 -220.093)" fill="#ebbd5a"/>
      <path id="Path_1296" data-name="Path 1296" d="M251.128,232.428l.23-.925h-.048a4.281,4.281,0,0,1-2.75,1.113c-1.577,0-1.99-1.215-1.5-2.481.818-2.1,2.986-3.166,5.876-3.148l.053-.137c.213-.547.357-1.454-1.028-1.454a5.348,5.348,0,0,0-2.348.615l.146-1.369a7.1,7.1,0,0,1,3.12-.736c2.511,0,2.576,1.694,1.871,3.508l-1.171,3.012a16.432,16.432,0,0,0-.666,2h-1.787Zm1.326-4.073c-1.387-.034-2.849.291-3.342,1.558-.319.821.033,1.2.661,1.2a2.616,2.616,0,0,0,1.991-1.147,2.261,2.261,0,0,0,.244-.462Z" transform="translate(-159.264 -220.091)" fill="#ebbd5a"/>
      <path id="Path_1297" data-name="Path 1297" d="M281.429,215.986h6.262l-.672,1.729h-4.282L281.5,220.9h3.992l-.672,1.728h-3.992l-1.9,4.894h-1.98Z" transform="translate(-177.903 -215.182)" fill="#ebbd5a"/>
      <path id="Path_1298" data-name="Path 1298" d="M307.332,228.185a6.486,6.486,0,0,1-5.748,4.432c-2.222,0-3.3-1.626-2.258-4.3a6.472,6.472,0,0,1,5.774-4.414C307.434,223.907,308.316,225.653,307.332,228.185Zm-5.941.086c-.626,1.608-.357,2.824.849,2.824,1.127,0,2.375-1.18,3.027-2.858.505-1.3.537-2.789-.815-2.789C303.052,225.447,301.93,226.884,301.391,228.271Z" transform="translate(-191.527 -220.091)" fill="#ebbd5a"/>
      <path id="Path_1299" data-name="Path 1299" d="M323.154,226.784c.438-1.129.735-1.934.979-2.686h1.722l-.554,1.592h.065a3.869,3.869,0,0,1,2.833-1.78,1.727,1.727,0,0,1,.447.051l-.772,1.986a2.183,2.183,0,0,0-.552-.07,2.907,2.907,0,0,0-2.39,1.592,5.277,5.277,0,0,0-.317.651l-1.677,4.312h-1.98Z" transform="translate(-205.179 -220.093)" fill="#ebbd5a"/>
      <path id="Path_1300" data-name="Path 1300" d="M344.993,227.519l4.485-11.533h2.254l.877,4.946a23.938,23.938,0,0,1,.348,3.867h.033c.469-1.54,1-3.029,1.687-4.792l1.564-4.021h1.834l-4.485,11.534h-2.044l-.864-5.064a30.269,30.269,0,0,1-.4-3.987l-.056.017c-.5,1.488-1.074,3.011-1.813,4.911l-1.6,4.124h-1.818Z" transform="translate(-220.074 -215.182)" fill="#ebbd5a"/>
      <path id="Path_1301" data-name="Path 1301" d="M377.27,228.854c-.537,1.506.321,2.156,1.576,2.156a6.767,6.767,0,0,0,2.32-.376l-.276,1.454a8.6,8.6,0,0,1-2.936.514c-2.543,0-3.4-1.66-2.4-4.209.9-2.31,3.064-4.483,5.575-4.483,2.543,0,2.515,2.225,1.8,4.055a7.446,7.446,0,0,1-.41.89Zm4.017-1.472c.316-.769.486-2.036-.834-2.036a3.331,3.331,0,0,0-2.61,2.036Z" transform="translate(-238.761 -220.093)" fill="#ebbd5a"/>
      <path id="Path_1302" data-name="Path 1302" d="M403.335,218.146l-.926,2.379h1.883l-.612,1.574H401.8l-1.431,3.679c-.392,1.009-.341,1.54.416,1.54a3.227,3.227,0,0,0,.813-.1L401,228.824a4.884,4.884,0,0,1-1.513.2,1.483,1.483,0,0,1-1.44-.685,3.149,3.149,0,0,1,.293-2.327l1.525-3.919h-1.127l.612-1.575h1.127l.733-1.881Z" transform="translate(-252.877 -216.521)" fill="#ebbd5a"/>
      <path id="Path_1303" data-name="Path 1303" d="M417.223,224.4l-.65,3.781c-.169.89-.345,1.8-.553,2.7h.032c.513-.907,1.131-1.83,1.688-2.686l2.492-3.8h1.609l-.454,3.7c-.138.975-.281,1.882-.457,2.789h.032c.481-.907,1.011-1.814,1.6-2.789l2.306-3.7h1.948l-5.7,8.333h-1.835l.385-3.388a26.04,26.04,0,0,1,.443-2.67h-.033c-.561,1.026-1.088,1.848-1.634,2.67l-2.316,3.388h-1.851l.923-8.333Z" transform="translate(-263.007 -220.398)" fill="#ebbd5a"/>
      <path id="Path_1304" data-name="Path 1304" d="M451.77,228.185a6.485,6.485,0,0,1-5.748,4.432c-2.222,0-3.3-1.626-2.258-4.3a6.472,6.472,0,0,1,5.774-4.414C451.871,223.907,452.754,225.653,451.77,228.185Zm-5.941.086c-.626,1.608-.357,2.824.849,2.824,1.127,0,2.375-1.18,3.027-2.858.505-1.3.537-2.789-.816-2.789C447.49,225.447,446.368,226.884,445.829,228.271Z" transform="translate(-281.037 -220.091)" fill="#ebbd5a"/>
      <path id="Path_1305" data-name="Path 1305" d="M467.59,226.784c.439-1.129.736-1.934.98-2.686h1.722l-.555,1.592h.065a3.868,3.868,0,0,1,2.832-1.78,1.728,1.728,0,0,1,.448.051l-.772,1.986a2.193,2.193,0,0,0-.553-.07,2.907,2.907,0,0,0-2.389,1.592,5.388,5.388,0,0,0-.317.651l-1.677,4.312h-1.98Z" transform="translate(-294.688 -220.093)" fill="#ebbd5a"/>
      <path id="Path_1306" data-name="Path 1306" d="M489.541,218.146l-.926,2.379H490.5l-.612,1.574H488l-1.431,3.679c-.393,1.009-.341,1.54.415,1.54a3.229,3.229,0,0,0,.813-.1l-.594,1.608a4.885,4.885,0,0,1-1.513.2,1.483,1.483,0,0,1-1.44-.685,3.149,3.149,0,0,1,.293-2.327l1.525-3.919h-1.127l.612-1.575h1.127l.732-1.881Z" transform="translate(-306.299 -216.521)" fill="#ebbd5a"/>
      <path id="Path_1307" data-name="Path 1307" d="M501.012,214.367h2l-1.93,4.963h.033a4.789,4.789,0,0,1,1.355-.959,3.4,3.4,0,0,1,1.5-.376c1.337,0,2.37.941,1.333,3.61l-1.909,4.911h-1.98l1.816-4.671c.472-1.215.406-2.122-.688-2.122a2.655,2.655,0,0,0-1.989,1.181,2.6,2.6,0,0,0-.327.632l-1.936,4.98h-2Z" transform="translate(-313.832 -214.179)" fill="#ebbd5a"/>
    </g>
    <text id="TM" transform="translate(239.932 22.369)" fill="#ebbd5a" font-size="10" font-family="Roboto-Bold, Roboto" font-weight="700"><tspan x="0" y="0">TM</tspan></text>
  </g>
</svg>
