<svg xmlns="http://www.w3.org/2000/svg" width="41.733" height="28.641" viewBox="0 0 41.733 28.641">
  <g id="couple" transform="translate(-0.12 -16.4)">
    <g id="Group_276" data-name="Group 276" transform="translate(0.12 16.4)">
      <path id="Path_1308" data-name="Path 1308" d="M44.737,171.725h0a8.116,8.116,0,1,0-3.353-6.569A8.126,8.126,0,0,0,44.736,171.725Z" transform="translate(-37.938 -157.037)" fill="#eabd5b"/>
      <path id="Path_1309" data-name="Path 1309" d="M291.708,206.051a7.2,7.2,0,1,0,7.2-7.2A7.209,7.209,0,0,0,291.708,206.051Z" transform="translate(-267.361 -195.36)" fill="#eabd5b"/>
      <path id="Path_1310" data-name="Path 1310" d="M38.355,349.645a9.638,9.638,0,0,1-13.376,0,9.306,9.306,0,0,0-2.444,2.795,10.42,10.42,0,0,0-3.741-4.505,10.553,10.553,0,0,1-14.22,0A9.8,9.8,0,0,0,.12,355.963v4.673H41.853v-4.214A8.573,8.573,0,0,0,38.355,349.645Z" transform="translate(-0.12 -331.995)" fill="#eabd5b"/>
    </g>
  </g>
</svg>
