<svg xmlns="http://www.w3.org/2000/svg" width="28" height="28" viewBox="0 0 28 28">
  <path id="Subtraction_11" data-name="Subtraction 11" d="M27.179,28h-9.9a.821.821,0,0,1-.82-.82V25.539a.821.821,0,0,1,.82-.82h9.9a.821.821,0,0,1,.82.82v1.641A.821.821,0,0,1,27.179,28ZM14.916,28H4.1a4.107,4.107,0,0,1-1.571-.311,4.153,4.153,0,0,1-1.3-.846,4.032,4.032,0,0,1-.889-1.252A3.827,3.827,0,0,1,0,24.062a17.531,17.531,0,0,1,.118-2.071A13.977,13.977,0,0,1,.449,20.2a11.582,11.582,0,0,1,1.163-2.9,13.394,13.394,0,0,1,1.6-2.216c.578-.659,1.178-1.247,1.759-1.816,1.5-1.468,2.913-2.854,3.183-5.009H7.383a.82.82,0,0,1,0-1.641h6.562a.82.82,0,0,1,0,1.641h-.771c.269,2.155,1.685,3.542,3.183,5.009l0,0a29.043,29.043,0,0,1,2.034,2.14,12.545,12.545,0,0,1,1.771,2.746H17.226a2.464,2.464,0,0,0-2.461,2.461v6.562a2.412,2.412,0,0,0,.151.82ZM6.158,19.782a.224.224,0,0,0-.224.224V21a.225.225,0,0,0,.072.165L9.09,24.007a.224.224,0,0,0,.152.059h1.542a.224.224,0,0,0,.152-.389l-2.819-2.6A2.546,2.546,0,0,0,10.7,18.687h.987a.224.224,0,0,0,.224-.224v-.747a.224.224,0,0,0-.224-.224h-1.1a2.566,2.566,0,0,0-.266-.6h1.363a.224.224,0,0,0,.224-.224v-.747a.224.224,0,0,0-.224-.224H6.158a.224.224,0,0,0-.224.224v.836a.224.224,0,0,0,.224.224H7.751a1.343,1.343,0,0,1,1.139.509H6.158a.224.224,0,0,0-.224.224v.747a.224.224,0,0,0,.224.224H9.124a1.227,1.227,0,0,1-.865,1.019,1.766,1.766,0,0,1-.531.076Zm21.021,3.3h-9.9a.821.821,0,0,1-.82-.82V20.617a.821.821,0,0,1,.82-.82h9.9a.821.821,0,0,1,.82.82v1.641A.821.821,0,0,1,27.179,23.078ZM13.727,4.977H7.6A13.934,13.934,0,0,0,5.213,1.445c-.028-.031-.044-.048-.045-.051A.768.768,0,0,1,4.936.982.809.809,0,0,1,4.988.509.821.821,0,0,1,5.742,0,4.732,4.732,0,0,1,7.516.316,6,6,0,0,1,8.662.952a3.02,3.02,0,0,0,2,.689,3.02,3.02,0,0,0,2-.689A6,6,0,0,1,13.812.316,4.732,4.732,0,0,1,15.586,0a.806.806,0,0,1,.451.137.835.835,0,0,1,.3.371.809.809,0,0,1,.051.474.767.767,0,0,1-.232.412s-.017.02-.045.051a13.938,13.938,0,0,0-2.387,3.531Z" fill="#eabd5b"/>
</svg>
