<svg xmlns="http://www.w3.org/2000/svg" width="25.537" height="33.185" viewBox="0 0 25.537 33.185">
  <g id="google-application" transform="translate(-59)">
    <path id="Path_1219" data-name="Path 1219" d="M81.621,8.88H74.685V2.917A2.917,2.917,0,0,0,71.769,0H59V33.185H84.537V11.8A2.917,2.917,0,0,0,81.621,8.88ZM65.806,26.38H63.861V24.435h1.944Zm0-3.889H63.861V20.546h1.944Zm0-3.889H63.861V16.658h1.944Zm13.87,7.778H67.75V24.435H79.676Zm0-3.889H67.75V20.546H79.676Zm0-3.889H67.75V16.658H79.676Z" fill="#eabd5b"/>
    <path id="Path_1220" data-name="Path 1220" d="M331,52.126v3.557h3.946Z" transform="translate(-254.37 -48.747)" fill="#eabd5b"/>
  </g>
</svg>
