<svg xmlns="http://www.w3.org/2000/svg" width="23.613" height="31.484" viewBox="0 0 23.613 31.484">
  <path id="Icon_awesome-file-download" data-name="Icon awesome-file-download" d="M13.774,8.363V0H1.476A1.472,1.472,0,0,0,0,1.476V30.008a1.472,1.472,0,0,0,1.476,1.476H22.137a1.472,1.472,0,0,0,1.476-1.476V9.839H15.25A1.48,1.48,0,0,1,13.774,8.363Zm4.7,13-5.929,5.885a1.048,1.048,0,0,1-1.478,0L5.139,21.36a.984.984,0,0,1,.692-1.682H9.839V14.758a.984.984,0,0,1,.984-.984H12.79a.984.984,0,0,1,.984.984v4.919h4.008A.984.984,0,0,1,18.475,21.36Zm4.707-14.9L17.162.43A1.475,1.475,0,0,0,16.117,0h-.375V7.871h7.871V7.5A1.471,1.471,0,0,0,23.183,6.457Z" fill="#eabd5b"/>
</svg>
