<svg xmlns="http://www.w3.org/2000/svg" width="24.696" height="32.928" viewBox="0 0 24.696 32.928">
  <g id="passport" transform="translate(-64)">
    <g id="Group_264" data-name="Group 264" transform="translate(64)">
      <g id="Group_263" data-name="Group 263">
        <path id="Path_1229" data-name="Path 1229" d="M226.429,208.841c.772,0,1.9-2.445,2.033-6.174H224.4C224.526,206.4,225.657,208.841,226.429,208.841Z" transform="translate(-214.081 -189.633)" fill="#eabd5b"/>
        <path id="Path_1230" data-name="Path 1230" d="M290.159,91.452a14.45,14.45,0,0,1,1.221,5.78h3.373A6.831,6.831,0,0,0,290.159,91.452Z" transform="translate(-275.614 -85.571)" fill="#eabd5b"/>
        <path id="Path_1231" data-name="Path 1231" d="M150.411,97.232h3.373A14.451,14.451,0,0,1,155,91.452,6.831,6.831,0,0,0,150.411,97.232Z" transform="translate(-144.854 -85.571)" fill="#eabd5b"/>
        <path id="Path_1232" data-name="Path 1232" d="M226.429,85.333c-.772,0-1.9,2.445-2.033,6.174h4.065C228.331,87.778,227.2,85.333,226.429,85.333Z" transform="translate(-214.081 -79.845)" fill="#eabd5b"/>
        <path id="Path_1233" data-name="Path 1233" d="M85.952,0H66.744A2.747,2.747,0,0,0,64,2.744v27.44a2.747,2.747,0,0,0,2.744,2.744H85.952A2.747,2.747,0,0,0,88.7,30.184V2.744A2.747,2.747,0,0,0,85.952,0Zm-4.8,28.812h-9.6a.686.686,0,1,1,0-1.372h9.6a.686.686,0,0,1,0,1.372ZM83.894,24.7H68.8a.686.686,0,1,1,0-1.372H83.894a.686.686,0,1,1,0,1.372ZM76.348,20.58a8.232,8.232,0,1,1,8.232-8.232A8.241,8.241,0,0,1,76.348,20.58Z" transform="translate(-64 0)" fill="#eabd5b"/>
        <path id="Path_1234" data-name="Path 1234" d="M290.159,208.447a6.831,6.831,0,0,0,4.594-5.78H291.38A14.45,14.45,0,0,1,290.159,208.447Z" transform="translate(-275.614 -189.633)" fill="#eabd5b"/>
        <path id="Path_1235" data-name="Path 1235" d="M150.411,202.667a6.831,6.831,0,0,0,4.594,5.78,14.451,14.451,0,0,1-1.221-5.78Z" transform="translate(-144.854 -189.633)" fill="#eabd5b"/>
      </g>
    </g>
  </g>
</svg>
