<svg id="group-leader" xmlns="http://www.w3.org/2000/svg" width="48.671" height="58.649" viewBox="0 0 48.671 58.649">
  <g id="Group_6" data-name="Group 6">
    <path id="Path_16" data-name="Path 16" d="M9.615,9.992c2.514,0,4.557-2.917,4.557-5.433a4.558,4.558,0,1,0-9.116,0C5.058,7.073,7.1,9.992,9.615,9.992Z" transform="translate(0.84)" fill="#eabd5b"/>
    <path id="Path_17" data-name="Path 17" d="M22.514,9.992c2.514,0,4.557-2.917,4.557-5.433a4.558,4.558,0,1,0-9.116,0C17.955,7.073,20,9.992,22.514,9.992Z" transform="translate(15.707)" fill="#eabd5b"/>
    <path id="Path_18" data-name="Path 18" d="M9.383,17.878a3.8,3.8,0,0,1-1.507-.5l.663,8.206a2.161,2.161,0,0,0,2.15,1.989c.06,0,.118,0,.177,0a2.28,2.28,0,0,0,.542-.155l.809-10.04-.024-.256A3.9,3.9,0,0,1,9.383,17.878Z" transform="translate(4.091 19.725)" fill="#eabd5b"/>
    <path id="Path_19" data-name="Path 19" d="M8.548,11.433a3.053,3.053,0,0,1,.254-.717,3.244,3.244,0,0,1,.368-.545,3.7,3.7,0,0,1,.555-.624,3.289,3.289,0,0,1,.689-.448l.678-.329a39.963,39.963,0,0,1,4.85-1.326c-.011-.037-.024-.069-.034-.105a8.561,8.561,0,0,1-.542-.745c-.062-.041-.129-.077-.194-.116a1.865,1.865,0,0,0-.295-.181A30.628,30.628,0,0,0,8.918,4.87l-1.627.814H7.278l.967,7.54.129-1.158A2.751,2.751,0,0,1,8.548,11.433Z" transform="translate(3.401 5.613)" fill="#eabd5b"/>
    <path id="Path_20" data-name="Path 20" d="M11.33,15.134,12.542,5.68h-.011l-1.614-.807A30.125,30.125,0,0,0,5.06,6.257l-.013,0c-.05.017-.088.032-.1.037a1.947,1.947,0,0,0-.2.123,1.77,1.77,0,0,0-.349.215,1.769,1.769,0,0,0-.235.273,2.1,2.1,0,0,0-.192.263,2.1,2.1,0,0,0-.125.383,1.54,1.54,0,0,0-.075.239L2.328,20.768a1.8,1.8,0,0,0,1.593,1.989,1.563,1.563,0,0,0,.2.013,1.8,1.8,0,0,0,1.791-1.6L7.223,9.346c.153-.045.323-.1.5-.146V21.5L6.289,39.34a2.167,2.167,0,0,0,1.985,2.333c.058,0,.116,0,.174,0A2.158,2.158,0,0,0,10.6,39.689l1.3-16.123a2.147,2.147,0,0,0,.872.187l.028,0,.846-7.62-.872,1.524Z" transform="translate(-2.317 5.616)" fill="#eabd5b"/>
    <path id="Path_21" data-name="Path 21" d="M24.592,5.68,22.98,4.873a30.125,30.125,0,0,0-5.857,1.384l-.013,0c-.052.017-.088.032-.1.037a1.745,1.745,0,0,0-.2.123,2.126,2.126,0,0,0-.293.179c-.174.252-.342.508-.538.74-.013.034-.024.069-.034.1a40.524,40.524,0,0,1,5.011,1.384,2.635,2.635,0,0,1,.654.357,3.243,3.243,0,0,1,.508.331,3.4,3.4,0,0,1,.6.669,2.946,2.946,0,0,1,.355.514,3.546,3.546,0,0,1,.286.8,1.806,1.806,0,0,1,.144.562l.133,1.171L24.6,5.685h0Z" transform="translate(13.386 5.616)" fill="#eabd5b"/>
    <path id="Path_22" data-name="Path 22" d="M17.38,17.111l-.026.286.809,10.009a2.171,2.171,0,0,0,.545.153,1.574,1.574,0,0,0,.174.006,2.158,2.158,0,0,0,2.153-1.989l.663-8.206a3.855,3.855,0,0,1-1.53.508A3.812,3.812,0,0,1,17.38,17.111Z" transform="translate(15.015 19.722)" fill="#eabd5b"/>
    <path id="Path_23" data-name="Path 23" d="M29.542,7.791a1.58,1.58,0,0,0-.073-.237,1.9,1.9,0,0,0-.127-.387,1.923,1.923,0,0,0-.17-.23,1.764,1.764,0,0,0-.267-.312,1.846,1.846,0,0,0-.241-.146,1.885,1.885,0,0,0-.3-.181A30.58,30.58,0,0,0,22.409,4.87l-1.627.814H20.77l1.21,9.454-1.442,2.519-.874-1.526.85,7.622.028,0a2.131,2.131,0,0,0,.872-.187l1.3,16.123a2.163,2.163,0,0,0,2.153,1.991c.058,0,.118,0,.174-.009a2.163,2.163,0,0,0,1.985-2.329L25.59,21.505V9.2c.179.05.349.1.5.146L27.4,21.167a1.8,1.8,0,0,0,1.789,1.6c.065,0,.133-.006.2-.013a1.8,1.8,0,0,0,1.586-1.989Z" transform="translate(17.677 5.613)" fill="#eabd5b"/>
    <path id="Path_24" data-name="Path 24" d="M16.562,12.834c3.027,0,5.485-3.513,5.485-6.542a5.486,5.486,0,1,0-10.972,0C11.075,9.321,13.533,12.834,16.562,12.834Z" transform="translate(7.778 0.928)" fill="#eabd5b"/>
    <path id="Path_25" data-name="Path 25" d="M31.1,9.9a2.346,2.346,0,0,0-.151-.465,1.808,1.808,0,0,0-.2-.278,2.151,2.151,0,0,0-.321-.377,2.113,2.113,0,0,0-.293-.177,2.065,2.065,0,0,0-.355-.217,36.618,36.618,0,0,0-7.17-1.72l-1.959.977h-.013l1.459,11.379-1.735,3.031-1.735-3.031L20.081,7.643h-.017l-1.939-.971a36.933,36.933,0,0,0-7.048,1.664.018.018,0,0,1-.013,0c-.062.022-.108.039-.121.045a2.244,2.244,0,0,0-.241.146,2.035,2.035,0,0,0-.422.254A2.168,2.168,0,0,0,10,9.118a1.885,1.885,0,0,0-.228.314,2.215,2.215,0,0,0-.149.461,2.176,2.176,0,0,0-.093.291L7.794,25.8A2.166,2.166,0,0,0,9.71,28.194a1.845,1.845,0,0,0,.243.015A2.167,2.167,0,0,0,12.1,26.28l1.582-14.224c.183-.056.385-.116.6-.177V26.685L12.558,48.153a2.6,2.6,0,0,0,2.385,2.8c.071,0,.14.009.213.009a2.6,2.6,0,0,0,2.592-2.392l1.561-19.405a2.576,2.576,0,0,0,2.1,0L22.97,48.574a2.6,2.6,0,0,0,2.592,2.392c.071,0,.14,0,.215-.009a2.6,2.6,0,0,0,2.383-2.8l-1.729-21.47V11.88c.217.06.418.121.6.177l1.58,14.224a2.167,2.167,0,0,0,2.15,1.929,2.305,2.305,0,0,0,.243-.015A2.17,2.17,0,0,0,32.921,25.8L31.188,10.183A2.067,2.067,0,0,0,31.1,9.9Z" transform="translate(3.981 7.683)" fill="#eabd5b"/>
  </g>
</svg>
