<svg xmlns="http://www.w3.org/2000/svg" width="40.728" height="37.334" viewBox="0 0 40.728 37.334">
  <g id="phone" transform="translate(0 -21.333)">
    <g id="Group_354" data-name="Group 354" transform="translate(0 21.333)">
      <g id="Group_353" data-name="Group 353">
        <path id="Path_1572" data-name="Path 1572" d="M40.035,29.9a26.867,26.867,0,0,0-39.341,0,2.589,2.589,0,0,0,0,3.527l3.913,4.115a2.44,2.44,0,0,0,3.471,0,17.193,17.193,0,0,1,4.415-3.367,2.471,2.471,0,0,0,1.328-2.128l.59-4.46a17.609,17.609,0,0,1,11.909,0l.583,4.349a2.551,2.551,0,0,0,1.314,2.247,17.245,17.245,0,0,1,4.424,3.371,2.382,2.382,0,0,0,3.471,0l3.923-4.126A2.589,2.589,0,0,0,40.035,29.9Z" transform="translate(0 -21.333)" fill="#eabd5b"/>
        <path id="Path_1573" data-name="Path 1573" d="M70.677,194.245A4.236,4.236,0,0,0,66.934,192H52.34a4.236,4.236,0,0,0-3.744,2.245l-5.431,10.183a4.262,4.262,0,0,0-.5,2v5.939a3.4,3.4,0,0,0,3.394,3.394H73.213a3.4,3.4,0,0,0,3.394-3.394v-5.939a4.268,4.268,0,0,0-.5-2ZM54.544,210.667a1.7,1.7,0,1,1,1.7-1.7A1.7,1.7,0,0,1,54.544,210.667Zm0-5.091a1.7,1.7,0,1,1,1.7-1.7A1.7,1.7,0,0,1,54.544,205.576Zm0-5.091a1.7,1.7,0,1,1,1.7-1.7A1.7,1.7,0,0,1,54.544,200.485Zm5.093,10.182a1.7,1.7,0,1,1,1.7-1.7A1.7,1.7,0,0,1,59.637,210.667Zm0-5.091a1.7,1.7,0,1,1,1.7-1.7A1.7,1.7,0,0,1,59.637,205.576Zm0-5.091a1.7,1.7,0,1,1,1.7-1.7A1.7,1.7,0,0,1,59.637,200.485Zm5.089,10.182a1.7,1.7,0,1,1,1.7-1.7A1.7,1.7,0,0,1,64.726,210.667Zm0-5.091a1.7,1.7,0,1,1,1.7-1.7A1.7,1.7,0,0,1,64.726,205.576Zm0-5.091a1.7,1.7,0,1,1,1.7-1.7A1.7,1.7,0,0,1,64.726,200.485Z" transform="translate(-39.273 -178.424)" fill="#eabd5b"/>
      </g>
    </g>
  </g>
</svg>
