<svg xmlns="http://www.w3.org/2000/svg" xmlns:xlink="http://www.w3.org/1999/xlink" width="151.254" height="105.268" viewBox="0 0 151.254 105.268">
  <defs>
    <linearGradient id="linear-gradient" x1="0.517" y1="-0.075" x2="0.494" y2="0.996" gradientUnits="objectBoundingBox">
      <stop offset="0" stop-color="#8bf9fd"/>
      <stop offset="0.99" stop-color="#fafee5"/>
    </linearGradient>
  </defs>
  <g id="Layer_1" transform="translate(-32.84 -77.518)">
    <g id="Group_254" data-name="Group 254" transform="translate(32.84 77.518)">
      <path id="Path_1144" data-name="Path 1144" d="M221.214,180.843c14.6-7.424,15.553-43.418-12.681-51.842s-23-29.684-46.757-45.575c-21.652-14.486-57.472-2.207-69.4,35.465-8.507,26.862,1.419,60.559,8.194,61.953Z" transform="translate(-84.502 -77.518)" fill="url(#linear-gradient)"/>
      <g id="Group_231" data-name="Group 231" transform="translate(114.509 83.197)">
        <path id="Path_1145" data-name="Path 1145" d="M1440.96,1106.916a18.107,18.107,0,0,1-3.576-3.913l7.833-4.948s-.011-.018-.033-.052a10.153,10.153,0,0,0,1.963,2,12.229,12.229,0,0,0,5.753,2.508,13.784,13.784,0,0,0,7.455-1.32,20.247,20.247,0,0,0,3.531-2l6.946,1.342-1.305,6.009a28.871,28.871,0,0,1-11.026,4.934A20.94,20.94,0,0,1,1440.96,1106.916Z" transform="translate(-1437.384 -1098.002)" fill="#8cd334"/>
      </g>
      <path id="Path_1146" data-name="Path 1146" d="M1602.147,333.662l1.839-.953,1.827.974a.285.285,0,0,0,.415-.3l-.338-2.043,1.491-1.437a.285.285,0,0,0-.155-.486l-2.047-.31-.906-1.862a.285.285,0,0,0-.51,0l-.927,1.852-2.051.286a.285.285,0,0,0-.161.485l1.474,1.454-.362,2.039A.284.284,0,0,0,1602.147,333.662Z" transform="translate(-1472.728 -306.741)" fill="#fc008b"/>
      <rect id="Rectangle_97" data-name="Rectangle 97" width="90.46" height="9.469" transform="translate(35.104 64.329)" fill="#f47257"/>
      <g id="Group_233" data-name="Group 233" transform="translate(36.2 48.666)">
        <path id="Path_1147" data-name="Path 1147" d="M542.167,723.626a174.68,174.68,0,0,0-65.3-19.567l2.528-29.611a201.973,201.973,0,0,1,75.5,22.624Z" transform="translate(-476.865 -674.449)" fill="#2ba14c"/>
        <path id="Path_1148" data-name="Path 1148" d="M501.46,723.667l1.723-18.467a4.234,4.234,0,0,0,4.792-3.509,200.5,200.5,0,0,1,63.306,18.969,4.5,4.5,0,0,0,2.308,5.636l-7.815,16.642a3.758,3.758,0,0,0-5.217,1.843,176.071,176.071,0,0,0-55.592-16.657A3.984,3.984,0,0,0,501.46,723.667Z" transform="translate(-499.455 -699.47)" fill="#8cd334"/>
        <g id="Group_232" data-name="Group 232" transform="translate(10.008 11.515)">
          <path id="Path_1149" data-name="Path 1149" d="M848.384,829.388a10.25,10.25,0,0,1-12.768,6.376,10.937,10.937,0,0,1-7.451-12.617c1.178-5.488,7.013-8.777,12.927-6.948S850.221,824.1,848.384,829.388Z" transform="translate(-809.315 -815.691)" fill="#50bfa5"/>
          <path id="Path_1150" data-name="Path 1150" d="M896.432,867.682q.221-.886.441-1.773a9.6,9.6,0,0,1-2.144-1,1.145,1.145,0,0,1-.413-1.486l.033-.062a1.1,1.1,0,0,1,1.586-.387,7.053,7.053,0,0,0,1.965.91c1.074.3,1.914.107,2.109-.638.183-.706-.306-1.333-1.605-2.2-1.879-1.241-3.079-2.536-2.665-4.358.374-1.649,1.9-2.636,4.115-2.443q.218-.888.435-1.775.979.271,1.954.552l-.418,1.64a9.038,9.038,0,0,1,1.736.773,1.139,1.139,0,0,1,.453,1.545h0a1.155,1.155,0,0,1-1.613.342,6.452,6.452,0,0,0-1.657-.73c-1.273-.362-1.813.052-1.94.574-.151.618.438,1.193,1.926,2.261,2.095,1.449,2.722,2.761,2.261,4.426s-2.022,2.686-4.256,2.44l-.491,1.9Q897.338,867.933,896.432,867.682Z" transform="translate(-870.175 -849.473)" fill="#3c8f7c"/>
          <path id="Path_1151" data-name="Path 1151" d="M615.352,839.564q-7.8-1.8-15.735-2.928l.367-2.847q8.04,1.142,15.955,2.969Z" transform="translate(-599.617 -832.313)" fill="#50bfa5"/>
          <path id="Path_1152" data-name="Path 1152" d="M1123.642,978.081q-7.258-3.549-14.756-6.458l.948-2.695q7.6,2.948,14.963,6.549Z" transform="translate(-1067.367 -956.435)" fill="#50bfa5"/>
        </g>
      </g>
      <g id="Group_235" data-name="Group 235" transform="translate(37.391 34.759)">
        <path id="Path_1153" data-name="Path 1153" d="M565.111,533.075a157.743,157.743,0,0,0-59.068,25.971L491.468,533.9a182.388,182.388,0,0,1,68.3-30.028Q562.438,518.472,565.111,533.075Z" transform="translate(-491.468 -503.869)" fill="#2ba14c"/>
        <path id="Path_1154" data-name="Path 1154" d="M550.34,585.086l-8.982-15.777a4.639,4.639,0,0,0,1.589-5.837,181.013,181.013,0,0,1,57.262-25.177,4,4,0,0,0,4.833,3.013l3.471,18.2a3.961,3.961,0,0,0-2.827,4.783A158.953,158.953,0,0,0,555.4,586.4,3.434,3.434,0,0,0,550.34,585.086Z" transform="translate(-537.291 -535.487)" fill="#8cd334"/>
        <g id="Group_234" data-name="Group 234" transform="translate(13.005 13.044)">
          <path id="Path_1155" data-name="Path 1155" d="M868.584,679.869a11.045,11.045,0,0,1-5.885,13.188,9.495,9.495,0,0,1-12.506-5.292,10.661,10.661,0,0,1,5.684-13.744A9.217,9.217,0,0,1,868.584,679.869Z" transform="translate(-833.229 -672.441)" fill="#2ba14c"/>
          <path id="Path_1156" data-name="Path 1156" d="M921.983,725.991l-.659-1.69a8.347,8.347,0,0,1-2.14.565,1.039,1.039,0,0,1-1.13-.919l-.01-.07a1.137,1.137,0,0,1,.956-1.316,6.143,6.143,0,0,0,1.956-.526c.96-.444,1.472-1.133,1.2-1.848-.257-.678-.966-.866-2.4-.725-2.076.208-3.681-.059-4.386-1.77-.64-1.549-.064-3.3,1.681-4.558l-.664-1.688q.872-.407,1.749-.8l.6,1.57a7.872,7.872,0,0,1,1.711-.489,1.034,1.034,0,0,1,1.192.94h0a1.189,1.189,0,0,1-1,1.3,5.635,5.635,0,0,0-1.628.473c-1.141.522-1.31,1.194-1.114,1.69.231.588.985.67,2.677.573,2.351-.18,3.542.465,4.127,2.081a3.953,3.953,0,0,1-1.787,4.647l.692,1.822Q922.791,725.614,921.983,725.991Z" transform="translate(-893.581 -706.829)" fill="#8cd334"/>
          <path id="Path_1157" data-name="Path 1157" d="M665.536,844.779q-6.756,3.529-13.241,7.678l-1.31-2.5q6.57-4.2,13.426-7.785Z" transform="translate(-650.985 -827.638)" fill="#50bfa5"/>
          <path id="Path_1158" data-name="Path 1158" d="M1122.477,666.675q-7.328,1.794-14.478,4.249l-.8-2.745q7.244-2.487,14.681-4.309Q1122.181,665.273,1122.477,666.675Z" transform="translate(-1070.008 -663.87)" fill="#2ba14c"/>
        </g>
      </g>
      <g id="Group_237" data-name="Group 237" transform="translate(41.197 52.343)">
        <path id="Path_1159" data-name="Path 1159" d="M611.345,749.574a160.065,160.065,0,0,0-64.605,9.469l-8.59-28.2a185.068,185.068,0,0,1,74.7-10.948Q612.1,734.731,611.345,749.574Z" transform="translate(-538.15 -719.553)" fill="#2ba14c"/>
        <path id="Path_1160" data-name="Path 1160" d="M582,770.742l-5.229-17.651a4.465,4.465,0,0,0,2.935-5.228,183.676,183.676,0,0,1,62.63-9.179,4.223,4.223,0,0,0,4.089,4.2q-.4,9.267-.8,18.535a3.83,3.83,0,0,0-3.917,3.879,161.293,161.293,0,0,0-55,8.061A3.63,3.63,0,0,0,582,770.742Z" transform="translate(-573.623 -737.057)" fill="#8cd334"/>
        <g id="Group_236" data-name="Group 236" transform="translate(11.649 5.731)">
          <path id="Path_1161" data-name="Path 1161" d="M925.725,798.983a10.63,10.63,0,0,1-8.906,11.2,10.062,10.062,0,0,1-11.164-8.439,10.274,10.274,0,0,1,8.837-11.794A9.746,9.746,0,0,1,925.725,798.983Z" transform="translate(-887.208 -789.853)" fill="#2ba14c"/>
          <path id="Path_1162" data-name="Path 1162" d="M982.81,839.669l-.26-1.81a8.623,8.623,0,0,1-2.253-.02,1.091,1.091,0,0,1-.906-1.189l.006-.071a1.1,1.1,0,0,1,1.254-1.021,6.35,6.35,0,0,0,2.061.009c1.055-.175,1.723-.706,1.622-1.47-.1-.724-.756-1.094-2.214-1.339-2.107-.349-3.635-1.033-3.936-2.876-.273-1.669.706-3.213,2.728-3.966q-.132-.9-.266-1.809.96-.162,1.922-.314l.231,1.679a8.108,8.108,0,0,1,1.81-.02,1.085,1.085,0,0,1,.962,1.226h0a1.156,1.156,0,0,1-1.295.99,5.808,5.808,0,0,0-1.724.026c-1.252.2-1.577.809-1.5,1.341.093.63.821.909,2.521,1.265,2.373.45,3.4,1.389,3.606,3.108a3.8,3.8,0,0,1-2.854,4.023q.131.973.261,1.947Q983.7,839.519,982.81,839.669Z" transform="translate(-953.918 -821.027)" fill="#8cd334"/>
          <path id="Path_1163" data-name="Path 1163" d="M696.661,917.716q-7.52,1.623-14.914,3.919l-.717-2.764q7.492-2.327,15.123-3.974Z" transform="translate(-681.03 -904.703)" fill="#50bfa5"/>
          <path id="Path_1164" data-name="Path 1164" d="M1200.255,869.572q-7.682-.208-15.343.272-.075-1.434-.15-2.868,7.761-.486,15.557-.276Q1200.287,868.136,1200.255,869.572Z" transform="translate(-1143.694 -860.377)" fill="#50bfa5"/>
        </g>
      </g>
      <rect id="Rectangle_98" data-name="Rectangle 98" width="90.46" height="39.812" transform="translate(35.104 64.329)" fill="#fc008b"/>
      <path id="Path_1165" data-name="Path 1165" d="M1267.863,1230.22h-22.384a1.841,1.841,0,0,0-1.8,1.882h0a1.841,1.841,0,0,0,1.8,1.882h-2.9a1.841,1.841,0,0,0-1.8,1.882h0a1.841,1.841,0,0,0,1.8,1.882h.5a1.841,1.841,0,0,0-1.8,1.882,1.95,1.95,0,0,0,.151.756h26.429Z" transform="translate(-1142.3 -1136.243)" fill="#d6007e"/>
      <rect id="Rectangle_99" data-name="Rectangle 99" width="82.347" height="3.092" transform="translate(38.438 66.29)" fill="#d6007e"/>
      <g id="Group_238" data-name="Group 238" transform="translate(34.109 78.922)">
        <path id="Path_1166" data-name="Path 1166" d="M491.06,1070.281H454.6a3.389,3.389,0,0,1-3.389-3.389v-17.947a3.389,3.389,0,0,1,3.389-3.389H491.06a3.389,3.389,0,0,1,3.389,3.389v17.947A3.389,3.389,0,0,1,491.06,1070.281Z" transform="translate(-451.209 -1045.556)" fill="#7271b3"/>
        <rect id="Rectangle_100" data-name="Rectangle 100" width="10.648" height="6.191" transform="translate(2.78 4.917)" fill="#fcc13f"/>
        <rect id="Rectangle_101" data-name="Rectangle 101" width="18.882" height="1.156" transform="translate(21.62 3.349)" fill="#fcc13f"/>
        <rect id="Rectangle_102" data-name="Rectangle 102" width="34.751" height="1.428" transform="translate(4.348 16.556)" fill="#fcc13f"/>
        <rect id="Rectangle_103" data-name="Rectangle 103" width="34.751" height="1.428" transform="translate(4.348 19.917)" fill="#fcc13f"/>
      </g>
      <rect id="Rectangle_104" data-name="Rectangle 104" width="38.395" height="1.026" transform="translate(39.484 74.494)" fill="#d6007e"/>
      <g id="Group_239" data-name="Group 239" transform="translate(91.305 50.763)">
        <circle id="Ellipse_53" data-name="Ellipse 53" cx="8.551" cy="8.551" r="8.551" fill="#fee2bf"/>
        <circle id="Ellipse_54" data-name="Ellipse 54" cx="7.175" cy="7.175" r="7.175" transform="translate(1.376 1.376)" fill="#fcc13f"/>
      </g>
      <g id="Group_241" data-name="Group 241" transform="translate(99.373 78.13)">
        <circle id="Ellipse_55" data-name="Ellipse 55" cx="8.551" cy="8.551" r="8.551" fill="#fee2bf"/>
        <circle id="Ellipse_56" data-name="Ellipse 56" cx="7.175" cy="7.175" r="7.175" transform="translate(1.376 1.376)" fill="#fcc13f"/>
        <g id="Group_240" data-name="Group 240" transform="translate(5.518 3.327)">
          <path id="Path_1167" data-name="Path 1167" d="M1323.269,1086.924l-.313-1.156a5.816,5.816,0,0,1-1.528.134.729.729,0,0,1-.691-.719v-.046a.728.728,0,0,1,.772-.737,4.25,4.25,0,0,0,1.382-.13c.694-.188,1.1-.584.965-1.071-.125-.462-.594-.649-1.577-.71-1.421-.086-2.474-.454-2.793-1.635a2.33,2.33,0,0,1,1.471-2.723l-.313-1.156,1.193-.323.29,1.071a5.371,5.371,0,0,1,1.154-.14.728.728,0,0,1,.728.72h0a.728.728,0,0,1-.744.738,3.877,3.877,0,0,0-1.11.138c-.791.214-.955.624-.863.965.109.4.6.542,1.744.652,1.587.12,2.352.631,2.648,1.726a2.416,2.416,0,0,1-1.558,2.838l.336,1.242Z" transform="translate(-1319.408 -1076.652)" fill="#fff"/>
        </g>
      </g>
      <g id="Group_242" data-name="Group 242" transform="translate(82.754 67.425)">
        <circle id="Ellipse_57" data-name="Ellipse 57" cx="8.551" cy="8.551" r="8.551" fill="#fee2bf"/>
        <circle id="Ellipse_58" data-name="Ellipse 58" cx="7.175" cy="7.175" r="7.175" transform="translate(1.375 1.375)" fill="#fcc13f"/>
      </g>
      <rect id="Rectangle_105" data-name="Rectangle 105" width="38.728" height="20.756" transform="translate(82.057 80.906)" fill="#d6007e"/>
      <path id="Path_1168" data-name="Path 1168" d="M1243.681,1232.1h0a1.841,1.841,0,0,0,1.8,1.882h-2.9a1.841,1.841,0,0,0-1.8,1.882h0a1.841,1.841,0,0,0,1.8,1.881h.5a1.725,1.725,0,0,0-.722.159h20.727v-7.685h-17.6A1.841,1.841,0,0,0,1243.681,1232.1Z" transform="translate(-1142.298 -1136.244)" fill="#d6007e"/>
      <g id="Group_244" data-name="Group 244" transform="translate(3.444 95.191)">
        <g id="Group_243" data-name="Group 243" transform="translate(0 7.737)">
          <path id="Path_1169" data-name="Path 1169" d="M75.082,1340.614h0a.586.586,0,0,0,.563.607H216.056a.586.586,0,0,0,.563-.607h0a.586.586,0,0,0-.563-.607H75.645A.586.586,0,0,0,75.082,1340.614Z" transform="translate(-75.082 -1340.007)" fill="#fee2bf"/>
        </g>
        <path id="Path_1170" data-name="Path 1170" d="M1296.427,1330.869h-23.115a1.679,1.679,0,0,1-1.679-1.68h0a1.679,1.679,0,0,1,1.679-1.679h23.115a1.679,1.679,0,0,1,1.679,1.679h0A1.68,1.68,0,0,1,1296.427,1330.869Z" transform="translate(-1174.08 -1320.792)" fill="#ffa42f"/>
        <path id="Path_1171" data-name="Path 1171" d="M1290.666,1289.672h-23.115a1.679,1.679,0,0,1-1.679-1.679h0a1.679,1.679,0,0,1,1.679-1.679h23.115a1.679,1.679,0,0,1,1.679,1.679h0A1.679,1.679,0,0,1,1290.666,1289.672Z" transform="translate(-1168.789 -1282.954)" fill="#fcc13f"/>
        <path id="Path_1172" data-name="Path 1172" d="M1323.936,1248.47H1300.82a1.679,1.679,0,0,1-1.679-1.679h0a1.679,1.679,0,0,1,1.679-1.679h23.116a1.679,1.679,0,0,1,1.679,1.679h0A1.68,1.68,0,0,1,1323.936,1248.47Z" transform="translate(-1199.347 -1245.111)" fill="#ffa42f"/>
      </g>
      <path id="Path_1173" data-name="Path 1173" d="M1185.869,393.42l.294,1.99-3.149.827.072,2.962-2.256,1,.509,1.142,3.016-1.343-.068-2.807,3.276-.86-.443-2.994Z" transform="translate(-1087.237 -367.592)" fill="#8cd334"/>
      <path id="Path_1174" data-name="Path 1174" d="M688.868,272.867l-1.909.194-.651-3.038-2.827-.061-.859-2.194-1.11.435,1.149,2.934,2.679.058.678,3.16,2.873-.292Z" transform="translate(-628.627 -252.257)" fill="#fcc13f"/>
      <g id="Group_245" data-name="Group 245" transform="translate(80.046 14.989)">
        <path id="Path_1175" data-name="Path 1175" d="M1016.931,264.723l2.043.674s3.239-1.05,3.558-1.71.409-2.262.87-2.306a1.4,1.4,0,0,1,1.564,1.2c.154.8-1.011,3.1-.829,3.34a11.172,11.172,0,0,0,2.131.868,1.592,1.592,0,0,1,1.054,1.284v0a.877.877,0,0,1-.548.942l-.588.227.188.607a.876.876,0,0,1-.554,1.087l-.455.152.145.37a.876.876,0,0,1-.566,1.158l-.4.115.016.106a.875.875,0,0,1-.637.979l-.395.1-5.44-1.8a3.876,3.876,0,0,1-1.379-.8l-1.807-.954a.449.449,0,0,1-.21-.546l1.675-4.823A.447.447,0,0,1,1016.931,264.723Z" transform="translate(-1014.671 -261.375)" fill="#fcc13f"/>
      </g>
      <path id="Path_1176" data-name="Path 1176" d="M595.706,487.867l.433-2.144,2.011-.859a.3.3,0,0,0,.029-.538l-1.905-1.074-.2-2.178a.3.3,0,0,0-.5-.194l-1.61,1.48-2.132-.487a.3.3,0,0,0-.34.418l.91,1.989-1.122,1.877a.3.3,0,0,0,.292.453l2.172-.251,1.439,1.647A.3.3,0,0,0,595.706,487.867Z" transform="translate(-545.713 -447.922)" fill="#fc008b"/>
      <g id="Group_248" data-name="Group 248" transform="translate(0 0.823)">
        <g id="Group_246" data-name="Group 246" transform="translate(0 36.506)">
          <path id="Path_1177" data-name="Path 1177" d="M288.607,1213.35a28.568,28.568,0,0,0-3.1,2.509c-.608.83,4.541,2.384,3.979,1.411-.129-.224-.5-.976-.516-1.05-.086-.4,1.006-1.462,1.006-1.462Z" transform="translate(-264.859 -1158.078)" fill="#f7a491"/>
          <path id="Path_1178" data-name="Path 1178" d="M286.435,1234.625l-1.82-2.572a4.962,4.962,0,0,1-2.3-1.576,4.266,4.266,0,0,0-1.693,1.267,29.679,29.679,0,0,0,3.1,2.791,8.6,8.6,0,0,0,2.651,1.506C287.9,1236.56,286.435,1234.625,286.435,1234.625Z" transform="translate(-260.417 -1173.808)" fill="#2d2861"/>
          <path id="Path_1179" data-name="Path 1179" d="M34.186,778.222s.33.291.446.38c.137.1.569.385.569.385a8.361,8.361,0,0,0,1.618.773.774.774,0,0,0-.027-.544c-.077-.089-.3-.181-.38-.269a.287.287,0,0,1,0-.367c.1-.1.634.193.634.193a2,2,0,0,1,.614.531,2.578,2.578,0,0,1,.521,1.192,24.319,24.319,0,0,0,2.294,1.146s6.561,2.727,6.914,2.876h0a1.9,1.9,0,0,1-.2.852c-.157.937-.436,1-.649,1.9-1.006-.509-7.972-4.346-8.68-4.746,0,0-1.061-.181-1.724-.317a5.918,5.918,0,0,1-1.422-.621,6.248,6.248,0,0,1-1.272-.771c-.562-.436.164-.271.164-.271s1.181.626,1.212.527c.024-.076-.641-.381-1.267-.857-.161-.122-.32-.244-.465-.356-.38-.3-.314-.606.132-.358a4.979,4.979,0,0,1,.585.373,4.1,4.1,0,0,0,.568.318,5.348,5.348,0,0,0,.587.324c0-.023.094-.031-.074-.166-.2-.162-.7-.416-.979-.677-.157-.148-.5-.438-.5-.438a4.347,4.347,0,0,1-.424-.568c.118-.191.523.091.711.318a3.339,3.339,0,0,1,.55.4s.861.481.927.363a11.342,11.342,0,0,0-.9-.829c-.4-.393-.744-.853-.68-.941C33.7,777.832,34.186,778.222,34.186,778.222Z" transform="translate(-32.84 -758.172)" fill="#f8a492"/>
          <path id="Path_1180" data-name="Path 1180" d="M273.835,964.447l.424,2.1,10.659,9.7-7.63,7.721,2.06,2.105s11.268-8.275,11.675-9.359c.625-1.67-8.078-12.728-8.078-12.728Z" transform="translate(-254.187 -929.038)" fill="#d6007e"/>
          <path id="Path_1181" data-name="Path 1181" d="M153.564,1280.76s-2.15,2.344-2.573,2.92c-.608.831,3.933,2.056,3.371,1.084-.129-.224-.5-.976-.516-1.05-.086-.4,1.006-1.462,1.006-1.462Z" transform="translate(-141.307 -1219.992)" fill="#f7a491"/>
          <path id="Path_1182" data-name="Path 1182" d="M149.97,1316.775l-2.96-1.082a4.636,4.636,0,0,1-2.824.092,3.917,3.917,0,0,0-.639,1.925s5.61.715,7.171.269S149.97,1316.775,149.97,1316.775Z" transform="translate(-134.521 -1252.077)" fill="#2d2861"/>
          <path id="Path_1183" data-name="Path 1183" d="M177.154,972.3l.479,13.229-9.458,11.6,2.559,1.4s10.462-8.979,11.611-11.481c.713-1.552,3.11-15.575,3.11-15.575Z" transform="translate(-157.142 -935.917)" fill="#fc008b"/>
          <path id="Path_1184" data-name="Path 1184" d="M301.95,751.245c-.867-1.956-.767-15.983-4.141-19.269-1.187.2-2.034.313-2.232.365-.176,1.445-.37,6.747-.489,11.607-.079,3.237,0,6.632-.4,8.422C294.446,753.479,302.742,753.032,301.95,751.245Z" transform="translate(-273.34 -715.949)" fill="#fee2bf"/>
          <path id="Path_1185" data-name="Path 1185" d="M114.156,737.124c-.947.216-1.645.368-2.886,2.2-1.189,1.756-3.827,5.922-3.827,5.922l-6.951-3.087-.325,3.521s7.863,4.087,8.972,3.719,4.229-4.928,4.459-5.235c.054-.072-.262,4.87-.262,5.659s-1.507,7.664-1.507,7.664,3.825.942,4.571-.769c2.289-5.243.532-20.323.532-20.323S114.837,736.969,114.156,737.124Z" transform="translate(-94.678 -720.009)" fill="#7271b3"/>
          <path id="Path_1186" data-name="Path 1186" d="M440.133,537.5a2.083,2.083,0,0,1-.468-1.208l-.13-.5c.119-.049,2.436-.378,3.136-.4a1.273,1.273,0,0,1,.08.527c-.1.571-.834,4.281-.834,4.281l-2,.04A9.427,9.427,0,0,0,440.133,537.5Z" transform="translate(-406.378 -535.393)" fill="#f7a491"/>
          <path id="Path_1187" data-name="Path 1187" d="M342.577,598.655s1.37,3.9,2.5,3.336,7.459-7.017,7.522-7.329.5-8.236.5-8.236l-2.5-.5-1.44,6.489s-4.634,4.43-5.573,4.867A1.741,1.741,0,0,0,342.577,598.655Z" transform="translate(-317.325 -581.807)" fill="#7271b3"/>
          <path id="Path_1188" data-name="Path 1188" d="M337.462,746.007a4.246,4.246,0,0,0,1.543-.257s-1.444-8.138-2.283-16.208c-.332-3.188-.639-4.495-1.955-4.264-.38.066-1.411.459-1.785.522,3.3,9.351,3.317,16.549,3.784,18.636C337,745.483,337.207,746.013,337.462,746.007Z" transform="translate(-308.513 -709.773)" fill="#7271b3"/>
          <path id="Path_1189" data-name="Path 1189" d="M301.107,690.673l.346,1.413s.079,1.23-.492,1.34c-.689.133-1.712-.9-1.712-.9l-.593-3.984Z" transform="translate(-276.986 -676.059)" fill="#f7a491"/>
          <path id="Path_1190" data-name="Path 1190" d="M301.107,690.673l.346,1.413s.079,1.23-.492,1.34c-.689.133-1.712-.9-1.712-.9l-.593-3.984Z" transform="translate(-276.986 -676.059)" fill="#f7a491"/>
          <path id="Path_1191" data-name="Path 1191" d="M298.729,688.77l2.444,2.11.259,1.055A4.091,4.091,0,0,1,298.729,688.77Z" transform="translate(-277.052 -676.266)" fill="#f47458"/>
          <path id="Path_1192" data-name="Path 1192" d="M299,643.806a1.443,1.443,0,0,1,1.331,1,12.545,12.545,0,0,1,.533,2.045c.259,1.532-.614,2.935-1.373,3.047a2.873,2.873,0,0,1-2.968-2.561c-.171-.93-.4-2.151.368-2.792A3.441,3.441,0,0,1,299,643.806Z" transform="translate(-274.871 -634.967)" fill="#f7a491"/>
          <path id="Path_1193" data-name="Path 1193" d="M269.927,626.611s-2.676-2.385-2.793-4.248,1.6-2.861,3.076-2.913a10,10,0,0,1,1.8.093c1.474.186,2.43.839,2.093,2.047-.452,1.622-3.511.253-4.137.757-.516.415.321,1.414-.181,1.8-.471.358-.231.237-.075.918A12.055,12.055,0,0,1,269.927,626.611Z" transform="translate(-248.027 -612.589)" fill="#2d2861"/>
          <path id="Path_1194" data-name="Path 1194" d="M288.634,670.918c.066.446.339.776.61.736s.436-.434.369-.881-.339-.776-.61-.736S288.568,670.471,288.634,670.918Z" transform="translate(-267.767 -659.057)" fill="#f7a491"/>
          <path id="Path_1195" data-name="Path 1195" d="M448.531,537.643a3.215,3.215,0,0,1,.864.817s1.129-.723,1.089-.953c-.052-.3-1.206.26-1.206.26Z" transform="translate(-414.641 -537.253)" fill="#f47458"/>
        </g>
        <g id="Group_247" data-name="Group 247" transform="translate(3.047)">
          <path id="Path_1196" data-name="Path 1196" d="M71.951,109.528l30.474,15.691a3.494,3.494,0,0,0,4.631-1.7l7.782-15.114a3.494,3.494,0,0,0-1.308-4.756L83.056,87.96a3.494,3.494,0,0,0-4.631,1.7l-7.782,15.114A3.494,3.494,0,0,0,71.951,109.528Z" transform="translate(-70.209 -87.616)" fill="#fcc13f"/>
          <rect id="Rectangle_106" data-name="Rectangle 106" width="40.956" height="5.157" transform="matrix(0.889, 0.458, -0.458, 0.889, 2.969, 12.233)" fill="#352e73"/>
        </g>
        <rect id="Rectangle_107" data-name="Rectangle 107" width="9.03" height="5.009" transform="translate(15.294 2.503) rotate(27.29)" fill="#d1f7fa"/>
        <path id="Path_1197" data-name="Path 1197" d="M440.245,526.509c-.053-.143-.157-.343-.106-.422.325-.5-.025-1.036-.262-.614a2.653,2.653,0,0,0-.357,1.066c.015.2.221.978.221.978A.719.719,0,0,0,440.245,526.509Z" transform="translate(-406.363 -489.636)" fill="#f7a491"/>
      </g>
      <g id="Group_253" data-name="Group 253" transform="translate(105.423 9.961)">
        <g id="Group_252" data-name="Group 252">
          <g id="Group_250" data-name="Group 250" transform="translate(8.341 15.848)">
            <path id="Path_1198" data-name="Path 1198" d="M1510.259,1180.33a19.243,19.243,0,0,0-.036,3.1c.082.406.536,1.243.327,1.626a1.036,1.036,0,0,1-.446.478l-5.4.086c-.294,0-.1-.181.137-.353a10.961,10.961,0,0,1,1.94-1.055c.081-.038.375-.222.481-.286a3.715,3.715,0,0,0,.772-.671,6.714,6.714,0,0,0,.421-2.482Z" transform="translate(-1498.339 -1116.229)" fill="#f7a491"/>
            <path id="Path_1199" data-name="Path 1199" d="M1500.985,792.857s-2.319-1.143-1.873,1.343,3.844,30.451,3.844,30.451l3.183.177s.406-9.323.317-10.662a24.431,24.431,0,0,0-.617-3.41l-.27-8.271-3-10.212Z" transform="translate(-1493.282 -759.809)" fill="#352e73"/>
            <path id="Path_1200" data-name="Path 1200" d="M1502.887,1223.032a4.959,4.959,0,0,0,3.072-.119,2.4,2.4,0,0,1,.247,1.263c-.131.375-.3.542-.467.547-1.3.034-4.79,0-5.784.01a.16.16,0,0,1-.126-.263A26.378,26.378,0,0,1,1502.887,1223.032Z" transform="translate(-1493.958 -1155.341)" fill="#2d2861"/>
            <path id="Path_1201" data-name="Path 1201" d="M1436.336,410.325a36.74,36.74,0,0,1-2.265-5.158c-.3-1.385-1.358-8.36-1.269-8.81s1.755-1.53,1.549-1.912-1.792-.383-2.156-.35a3.285,3.285,0,0,0-1.406.5c-.313.258.352,8.617.55,10.417s2.635,7.342,2.635,7.342Z" transform="translate(-1430.506 -394.083)" fill="#f7a491"/>
            <g id="Group_249" data-name="Group 249" transform="translate(3.015 10.363)">
              <path id="Path_1202" data-name="Path 1202" d="M1687.16,909.4a19.222,19.222,0,0,0,1.978-2.381c.193-.367.368-1.3.77-1.469a1.037,1.037,0,0,1,.648-.09l4.244,3.333c.231.182-.037.2-.329.188a10.93,10.93,0,0,1-2.172-.4c-.087-.021-.431-.063-.554-.081a3.718,3.718,0,0,0-1.022.034c-.568.085-1.89,1.662-1.89,1.662Z" transform="translate(-1669.067 -874.118)" fill="#f7a491"/>
              <path id="Path_1203" data-name="Path 1203" d="M1715.672,907.483a4.961,4.961,0,0,0-2.46-1.843c.149-.425.312-.981.588-1.152.338-.209.572-.166.7-.065,1.033.8,3.739,2.97,4.518,3.587a.16.16,0,0,1-.067.283A26.356,26.356,0,0,1,1715.672,907.483Z" transform="translate(-1692.994 -873.101)" fill="#2d2861"/>
              <path id="Path_1204" data-name="Path 1204" d="M1525.652,525.921a4.727,4.727,0,0,0-5.4-2.711,4.969,4.969,0,0,0-3.221-1.96c-2.461-.349-5.636.845-5.312,3.414-.778,1.8-.587,4.273.966,5.486-.285,2.362,2.083,4.457,4.885,4.174a5.079,5.079,0,0,0,4.921,2.114,11.108,11.108,0,0,1,1.223-.226c-.144-.016,3.2,2.172,5.5-1.724C1531.567,530.514,1529.253,526.07,1525.652,525.921Z" transform="translate(-1507.521 -521.191)" fill="#2d2861"/>
              <path id="Path_1205" data-name="Path 1205" d="M1511.28,787.183s5.2-2.313,5.283-2.049c.652,2.1,2.681,1.423,3.886,5.122.5,1.549,1.022,11.854,1.022,11.854s2.051-1.7,4.982-4.676c.225-.228,2.428,1.867,2.428,1.867-5.818,7.861-8.328,8.27-9.3,7.831-2.026-.919-6.3-13.769-6.3-13.768C1512.774,792.364,1511.28,787.183,1511.28,787.183Z" transform="translate(-1507.526 -763.596)" fill="#7271b3"/>
              <path id="Path_1206" data-name="Path 1206" d="M1617.05,605.739s7.518-.01,9.128-.1c1.457-.084,7.235.063,7.461.037s1.719-2.556,1.968-2.284-.831,1.254-.5,1.509,3.92-.316,3.872-.051c-.089.5-2.181.433-2.179.672s2.19-.134,2.338.263-2.1.162-2.194.34,2.089.5,1.866.872c-.121.2-1.931-.335-1.922-.062s1.329.9,1.167,1.115-1.036-.669-1.8-.68a5.934,5.934,0,0,0-2.537-.075c-.6.166-5.214.729-9.109,1.062-3.993.341-7.267.449-7.267.449Z" transform="translate(-1604.673 -596.669)" fill="#f7a491"/>
              <path id="Path_1207" data-name="Path 1207" d="M1466.464,590.718a9.567,9.567,0,0,1,.192-2.537c-.365-1.254-1.142-3.929-1.421-4.455,0,0,1.309-2.515,2.649-2.5,0,0,1.368,3.085,2.426,3.637a2.622,2.622,0,0,0,.532.159c1.022-.007,4.591-.115,5.258-.127l-.375,5.065c-2.587,5.071-1.886,7.731-.9,8.715.463.463-6.455,2.342-6.773,1.686A70.979,70.979,0,0,1,1466.464,590.718Z" transform="translate(-1465.235 -576.333)" fill="#fcc13f"/>
              <path id="Path_1208" data-name="Path 1208" d="M1576.25,626.354c.658-.314,5.423-.157,5.423-.157s.666,3.318.128,4.115c0,0-4.261.634-4.14.984Z" transform="translate(-1567.199 -617.599)" fill="#fcc13f"/>
              <path id="Path_1209" data-name="Path 1209" d="M1525.565,591.512a24.645,24.645,0,0,0,0,2.563,2.637,2.637,0,0,1-2.371,2.552c-1.6.031-.235-1.7-.094-2.437s.308-3.645.308-3.645Z" transform="translate(-1517.763 -584.89)" fill="#f7a491"/>
              <path id="Path_1210" data-name="Path 1210" d="M1533.411,590.544s-.039.674-.095,1.455a1.858,1.858,0,0,0,2.22.542c.01-.56.032-1.03.032-1.03Z" transform="translate(-1527.766 -584.89)" fill="#f47458"/>
              <path id="Path_1211" data-name="Path 1211" d="M1528.537,535.568a2.655,2.655,0,0,1,1.412,1.175c.508.9.721,3.481-1.229,4.542s-3.288-.722-3.2-2.365S1526.113,535.111,1528.537,535.568Z" transform="translate(-1520.603 -534.339)" fill="#f7a491"/>
              <ellipse id="Ellipse_59" data-name="Ellipse 59" cx="0.451" cy="0.775" rx="0.451" ry="0.775" transform="translate(5.619 4.501) rotate(162.02)" fill="#f7a491"/>
              <path id="Path_1212" data-name="Path 1212" d="M1559.22,535.377s.99,2.708,2,3.014.907,1.627.907,1.627.187-3.055-.729-3.821A4.067,4.067,0,0,0,1559.22,535.377Z" transform="translate(-1551.558 -534.22)" fill="#2d2861"/>
              <ellipse id="Ellipse_60" data-name="Ellipse 60" cx="0.549" cy="0.813" rx="0.549" ry="0.813" transform="translate(9.937 5.847) rotate(-158.445)" fill="#f7a491"/>
            </g>
            <path id="Path_1213" data-name="Path 1213" d="M1428.25,400.614s2.2.1,2.461.1,1.011-.778,1.011-.778Z" transform="translate(-1428.25 -399.455)" fill="#f47458"/>
          </g>
          <g id="Group_251" data-name="Group 251">
            <circle id="Ellipse_61" data-name="Ellipse 61" cx="8.551" cy="8.551" r="8.551" fill="#fee2bf"/>
            <circle id="Ellipse_62" data-name="Ellipse 62" cx="7.175" cy="7.175" r="7.175" transform="translate(1.376 1.376)" fill="#fcc13f"/>
          </g>
        </g>
        <path id="Path_1214" data-name="Path 1214" d="M1458.44,393.085l.909-.817s-.429-.513-.251-.611c.29-.16.787.46.742.61a3.567,3.567,0,0,1-.578.636Z" transform="translate(-1447.637 -375.983)" fill="#f7a491"/>
      </g>
    </g>
  </g>
</svg>
