<svg xmlns="http://www.w3.org/2000/svg" width="27.5" height="27.5" viewBox="0 0 27.5 27.5">
  <path id="Icon_awesome-plus" data-name="Icon awesome-plus" d="M25.536,13.054H16.7V4.214A1.965,1.965,0,0,0,14.732,2.25H12.768A1.965,1.965,0,0,0,10.8,4.214v8.839H1.964A1.965,1.965,0,0,0,0,15.018v1.964a1.965,1.965,0,0,0,1.964,1.964H10.8v8.839a1.965,1.965,0,0,0,1.964,1.964h1.964A1.965,1.965,0,0,0,16.7,27.786V18.946h8.839A1.965,1.965,0,0,0,27.5,16.982V15.018A1.965,1.965,0,0,0,25.536,13.054Z" transform="translate(0 -2.25)" fill="#eabd5b"/>
</svg>
