<svg xmlns="http://www.w3.org/2000/svg" width="31.892" height="26.51" viewBox="0 0 31.892 26.51">
  <path id="Icon_awesome-store" data-name="Icon awesome-store" d="M31.172,6.141,27.811.777A1.658,1.658,0,0,0,26.408,0H5.49a1.658,1.658,0,0,0-1.4.777L.726,6.141A4.619,4.619,0,0,0,3.771,13.2a5.381,5.381,0,0,0,.709.047A5.113,5.113,0,0,0,8.3,11.536a5.117,5.117,0,0,0,7.642,0,5.117,5.117,0,0,0,7.642,0,5.13,5.13,0,0,0,3.821,1.714,5.323,5.323,0,0,0,.709-.047A4.615,4.615,0,0,0,31.172,6.141Zm-3.754,8.771a6.57,6.57,0,0,1-1.527-.2v5.167H6.007V14.715a6.859,6.859,0,0,1-1.527.2,6.986,6.986,0,0,1-.932-.062,6.512,6.512,0,0,1-.849-.186v10.19A1.655,1.655,0,0,0,4.356,26.51h23.2a1.655,1.655,0,0,0,1.657-1.657V14.664a5.287,5.287,0,0,1-.849.186A7.2,7.2,0,0,1,27.418,14.912Z" transform="translate(-0.004)" fill="#eabd5b"/>
</svg>
