<svg xmlns="http://www.w3.org/2000/svg" width="23.962" height="34.449" viewBox="0 0 23.962 34.449">
  <path id="form" d="M41.461,6.825V5.345a.485.485,0,0,1,.485-.485h9.12a.485.485,0,0,1,.485.485v1.48a.485.485,0,0,1-.485.485h-9.12A.485.485,0,0,1,41.461,6.825ZM49.3,2.582a2.807,2.807,0,0,0-5.6,0ZM58.487,8.4V31.386a3.066,3.066,0,0,1-3.063,3.063H37.588a3.066,3.066,0,0,1-3.063-3.063V8.4a3.066,3.066,0,0,1,3.063-3.063h1.6s0,0,0,0v1.48a2.766,2.766,0,0,0,2.763,2.763h9.12a2.766,2.766,0,0,0,2.763-2.763V5.345s0,0,0,0h1.6A3.066,3.066,0,0,1,58.487,8.4ZM42.674,21.785a1.139,1.139,0,0,0-1.567.372L40.03,23.9l-.556-.438a1.139,1.139,0,0,0-1.409,1.79l1.56,1.228a1.139,1.139,0,0,0,1.674-.3l1.747-2.835A1.139,1.139,0,0,0,42.674,21.785Zm0-8.2a1.139,1.139,0,0,0-1.567.372L40.03,15.7l-.556-.438a1.139,1.139,0,0,0-1.409,1.79l1.56,1.228a1.139,1.139,0,0,0,1.674-.3l1.747-2.835A1.139,1.139,0,0,0,42.674,13.584ZM54.47,25.59a1.139,1.139,0,0,0-1.139-1.139H45.89a1.139,1.139,0,1,0,0,2.278h7.442A1.139,1.139,0,0,0,54.47,25.59Zm0-8.2a1.139,1.139,0,0,0-1.139-1.139H45.89a1.139,1.139,0,1,0,0,2.278h7.442A1.139,1.139,0,0,0,54.47,17.389Z" transform="translate(-34.525)" fill="#eabd5b"/>
</svg>
