<svg xmlns="http://www.w3.org/2000/svg" width="156.512" height="121.572" viewBox="0 0 156.512 121.572">
  <g id="Layer_1" transform="translate(-51.496 -42.686)">
    <g id="Group_210" data-name="Group 210" transform="translate(51.496 42.686)">
      <g id="Group_188" data-name="Group 188" transform="translate(94.545 84.337)">
        <g id="Group_185" data-name="Group 185" transform="translate(0 0)">
          <g id="Group_184" data-name="Group 184" transform="translate(0.227)">
            <path id="Path_977" data-name="Path 977" d="M1079.861,994.03s15.352-7.569,17.992-11.517-1.241-4.171-1.241-4.171,6.851-6.663,5.887-9.468-4.513-.232-4.513-.232,4.4-9.806,2.328-10.791c-3.869-1.836-9.3,8.714-9.3,8.714s1.166-4.583-1.5-4.434c-4.018.225-3.851,10.592-3.851,10.592s-.454-3.975-2.875-2.684C1078.449,972.355,1079.861,994.03,1079.861,994.03Z" transform="translate(-1079.642 -957.635)" fill="#2ba14c"/>
          </g>
          <path id="Path_978" data-name="Path 978" d="M1079.686,968.442c1.891-1.049,3.774,2.018,3.774,2.018s-.191-8.1,3.827-8.322c2.664-.149,1.5,4.434,1.5,4.434s5.427-10.55,9.3-8.714L1077.61,993.87C1077.465,991.354,1075.941,970.521,1079.686,968.442Z" transform="translate(-1077.182 -957.642)" fill="#8cd334"/>
        </g>
        <g id="Group_187" data-name="Group 187" transform="translate(0.805 19.157)">
          <g id="Group_186" data-name="Group 186" transform="translate(0.038 1.18)">
            <path id="Path_979" data-name="Path 979" d="M1086.32,1194.423s12.556,1.559,15.807.17.921-3.106.921-3.106,6.98-1.372,7.519-3.513-2.681-1.971-2.681-1.971,6.693-4.334,5.8-5.793c-1.667-2.717-9.339,1.658-9.339,1.658s2.59-2.385.868-3.374c-2.6-1.492-6.706,5.042-6.706,5.042s.255-1.61-1.78-1.789C1093.075,1181.426,1086.32,1194.423,1086.32,1194.423Z" transform="translate(-1086.32 -1178.272)" fill="#2ba14c"/>
          </g>
          <path id="Path_980" data-name="Path 980" d="M1096.274,1168.952c2.035.179,1.862,2.959,1.862,2.959s4.183-7.745,6.781-6.253c1.722.99-.315,4.24-.315,4.24s7.046-4.029,8.713-1.312l-27.4,14.144C1086.845,1181.1,1092.864,1168.652,1096.274,1168.952Z" transform="translate(-1085.913 -1165.468)" fill="#8cd334"/>
        </g>
      </g>
      <g id="Group_193" data-name="Group 193" transform="translate(34.727 83.942)">
        <g id="Group_190" data-name="Group 190" transform="translate(5.11)">
          <g id="Group_189" data-name="Group 189" transform="translate(0 0)">
            <path id="Path_981" data-name="Path 981" d="M506.411,989.741s-15.352-7.569-17.992-11.517,1.241-4.172,1.241-4.172-6.851-6.663-5.887-9.468,4.561-.125,4.561-.125-4.453-9.913-2.376-10.9c3.869-1.836,9.3,8.714,9.3,8.714s-1.166-4.583,1.5-4.434c4.018.225,3.852,10.592,3.852,10.592s.454-3.975,2.875-2.684C507.823,968.065,506.411,989.741,506.411,989.741Z" transform="translate(-483.681 -953.346)" fill="#2ba14c"/>
          </g>
          <path id="Path_982" data-name="Path 982" d="M526.785,964.144c-1.891-1.049-3.774,2.018-3.774,2.018s.191-8.1-3.827-8.322c-2.664-.149-1.5,4.434-1.5,4.434s-5.427-10.55-9.3-8.714l20.47,36.012C529.006,987.057,530.531,966.223,526.785,964.144Z" transform="translate(-506.113 -953.345)" fill="#8cd334"/>
        </g>
        <g id="Group_192" data-name="Group 192" transform="translate(0 19.107)">
          <g id="Group_191" data-name="Group 191" transform="translate(0 1.23)">
            <path id="Path_983" data-name="Path 983" d="M455.684,1190.133s-12.555,1.559-15.806.17-.921-3.106-.921-3.106-6.98-1.372-7.519-3.513,2.794-1.931,2.794-1.931-6.806-4.374-5.911-5.832c1.667-2.717,9.339,1.658,9.339,1.658s-2.59-2.385-.868-3.374c2.6-1.492,6.706,5.042,6.706,5.042s-.255-1.611,1.78-1.789C448.93,1177.136,455.684,1190.133,455.684,1190.133Z" transform="translate(-428.24 -1173.982)" fill="#2ba14c"/>
          </g>
          <path id="Path_984" data-name="Path 984" d="M445.862,1163.157a2.127,2.127,0,0,0-2,2.156s-3.746-5.93-6.343-4.438c-1.722.99.315,4.24.315,4.24s-7.046-4.029-8.712-1.312l27.4,14.144C455.589,1176.318,449.273,1162.858,445.862,1163.157Z" transform="translate(-429.038 -1160.634)" fill="#8cd334"/>
        </g>
      </g>
      <g id="Group_195" data-name="Group 195" transform="translate(126.433 62.115)">
        <path id="Path_985" data-name="Path 985" d="M1513.367,924.607a3.8,3.8,0,0,1,1.742-2.28,2.192,2.192,0,0,1,2.326.3c2,1.5.257,3.156,2.53,6a11.485,11.485,0,0,1,1.984,2.636c.592,1.451-.113,2.148-1.244,2.843-5.41,3.325-8.246-3.5-8.144-5.064A25.289,25.289,0,0,1,1513.367,924.607Z" transform="translate(-1504.315 -903.169)" fill="#2d2861"/>
        <path id="Path_986" data-name="Path 986" d="M1470.571,1277.59a15.39,15.39,0,0,0,.743,2.386c.027.06.276.272.306.333a4.06,4.06,0,0,1-1.856,3.055,18.321,18.321,0,0,0,.5-1.789,21.211,21.211,0,0,0-1.263-2.949C1469.739,1278.518,1469.986,1278.061,1470.571,1277.59Z" transform="translate(-1464.776 -1225.875)" fill="#f7a491"/>
        <path id="Path_987" data-name="Path 987" d="M1438.706,1086.19l4.606,3.5s-2.28,2.194-3.136,3.01-6.133,4.612-6.208,4.8c-.055.139,1.2,4.5,2.011,6.834a5.63,5.63,0,0,1-2.194,1.146,47.8,47.8,0,0,1-3.559-8.953C1430.226,1095.375,1438.706,1086.19,1438.706,1086.19Z" transform="translate(-1429.571 -1052.118)" fill="#2d2861"/>
        <path id="Path_988" data-name="Path 988" d="M1632.374,1144.169a21.023,21.023,0,0,0-1.531,3.137,8.388,8.388,0,0,0-1.516-1,15.6,15.6,0,0,0,1.527-2.826c.187-.965.406-1.107.406-1.107a22.75,22.75,0,0,1,3.451,1.4C1634.926,1144.075,1632.978,1143.579,1632.374,1144.169Z" transform="translate(-1610.32 -1103.118)" fill="#f7a491"/>
        <path id="Path_989" data-name="Path 989" d="M1644.451,1139.087c-.251,0,.022-1.134.079-1.395a.487.487,0,0,1,.278-.393,26.869,26.869,0,0,1,4.318,1.625.722.722,0,0,1,.126.144c.333.621-2.632.739-3.058.468A2.445,2.445,0,0,0,1644.451,1139.087Z" transform="translate(-1623.955 -1098.516)" fill="#fc008b"/>
        <path id="Path_990" data-name="Path 990" d="M1511.55,1081.4l4.02-1.624c-.016.007.024.164.027.176.377,1.468,2.389.9,3.219,3.451.586,1.8,1.446,8.539,1.446,8.539a19.4,19.4,0,0,1,2.5-3.289c.147-.165,2.01,1.115,2.01,1.115-1.386,3.674-4.789,6.659-5.25,6.448-3.113-1.428-6.852-12.7-6.847-12.7C1512.323,1082.831,1511.55,1081.4,1511.55,1081.4Z" transform="translate(-1503.399 -1046.296)" fill="#352e73"/>
        <path id="Path_991" data-name="Path 991" d="M1467.243,850.646a34.285,34.285,0,0,1-2.213-3.978c-.328-.993,0-5.723.029-6.059s1.171-1.255.991-1.519a4.4,4.4,0,0,0-2.017-.428c-.264.052-.777,0-.987.217-.028.028.5,1.273.49,1.466-.075,1.318-.823,5.514-.579,6.649.282,1.3,3.082,5.474,3.082,5.474Z" transform="translate(-1459.24 -827.4)" fill="#f7a491"/>
        <path id="Path_992" data-name="Path 992" d="M1584.22,971.522s5.044.125,6.151.216,5.126-.244,5.281-.262,1.185-1.761,1.356-1.574-.573.864-.343,1.04,2.7-.218,2.669-.035c-.062.342-1.5.3-1.5.463s1.509-.093,1.611.182-1.45.112-1.512.234,1.44.346,1.286.6c-.083.138-1.331-.231-1.324-.042s.916.618.8.768-.714-.461-1.242-.469a4.09,4.09,0,0,0-1.749-.052c-.843.231-3.716,1.39-5.514,1.3s-5.772-.262-5.772-.262Z" transform="translate(-1569.37 -946.537)" fill="#f7a491"/>
        <path id="Path_993" data-name="Path 993" d="M1489.042,973.253c-.069-.832-.185-3.077-.147-3.353a14.276,14.276,0,0,0-1.363-2.507s1.246-1.411,2.169-1.4a7.746,7.746,0,0,0,1.712,1.621,1.8,1.8,0,0,0,.367.11,29.944,29.944,0,0,1,3.623.057l-.26,3.8c-.132.218-.293,4.589-.565,4.949s-4.232,2-4.889,1.575C1489.663,978.09,1489.18,974.934,1489.042,973.253Z" transform="translate(-1481.595 -943.001)" fill="#8cd334"/>
        <path id="Path_994" data-name="Path 994" d="M1559.02,984.282a24.673,24.673,0,0,1,3.769-.21s.459,2.287.088,2.836c0,0-2.936.437-2.853.678Z" transform="translate(-1546.494 -959.414)" fill="#8cd334"/>
        <path id="Path_995" data-name="Path 995" d="M1530.888,962.808a10.124,10.124,0,0,0-.2,1.839c.051.52-.194,2.2-1.3,2.2s-.209-2.132-.105-2.642a19.489,19.489,0,0,0,.128-2.088Z" transform="translate(-1519.099 -939.484)" fill="#f7a491"/>
        <path id="Path_996" data-name="Path 996" d="M1534.75,962.911c.017-.432.022-.792.022-.792l1.477.688s-.052.27-.1.613A1.289,1.289,0,0,1,1534.75,962.911Z" transform="translate(-1524.461 -939.484)" fill="#f47458"/>
        <path id="Path_997" data-name="Path 997" d="M1531.273,928.377a1.829,1.829,0,0,1,.777,1,2.456,2.456,0,0,1-1.5,2.876c-1.47.426-2.106-.972-1.8-2.065S1529.709,927.711,1531.273,928.377Z" transform="translate(-1518.945 -908.694)" fill="#f7a491"/>
        <ellipse id="Ellipse_38" data-name="Ellipse 38" cx="0.311" cy="0.534" rx="0.311" ry="0.534" transform="matrix(-0.995, 0.098, -0.098, -0.995, 10.29, 21.549)" fill="#f7a491"/>
        <path id="Path_998" data-name="Path 998" d="M1476.4,1303.39c.085-.236,1.047.474,1.273.617a.489.489,0,0,1,.275.395,22.824,22.824,0,0,1-2.978,3.562.4.4,0,0,1-.244.032c-.392-.136.155-2.56.647-3.052A3.081,3.081,0,0,0,1476.4,1303.39Z" transform="translate(-1469.846 -1249.254)" fill="#fc008b"/>
        <g id="Group_194" data-name="Group 194">
          <path id="Path_999" data-name="Path 999" d="M1438.05,725.593l-4.049,1.44a.665.665,0,0,0-.419.456l-1.108,4.163a.664.664,0,0,1-1.17.233l-2.622-3.419a.666.666,0,0,0-.562-.26l-4.292.224a.668.668,0,0,1-.584-1.044l2.429-3.553a.668.668,0,0,0,.072-.616l-1.544-4.025a.665.665,0,0,1,.809-.879l4.123,1.224a.663.663,0,0,0,.607-.121l3.338-2.711a.666.666,0,0,1,1.084.5l.12,4.309a.669.669,0,0,0,.3.542l3.607,2.349A.668.668,0,0,1,1438.05,725.593Z" transform="translate(-1423.124 -716.554)" fill="#fcc13f"/>
        </g>
        <path id="Path_1000" data-name="Path 1000" d="M1482.822,843.356c.151.222-.667.924-.894,1.313l-.514-.7C1481.667,843.919,1482.65,843.1,1482.822,843.356Z" transform="translate(-1476.041 -831.623)" fill="#f7a491"/>
        <path id="Path_1001" data-name="Path 1001" d="M1555,929.126s.266,1.969.9,2.325.37,1.229.37,1.229.578-2.029.074-2.68A2.8,2.8,0,0,0,1555,929.126Z" transform="translate(-1542.844 -909.532)" fill="#2d2861"/>
        <ellipse id="Ellipse_39" data-name="Ellipse 39" cx="0.378" cy="0.56" rx="0.378" ry="0.56" transform="matrix(-0.83, -0.558, 0.558, -0.83, 13.005, 23.092)" fill="#f7a491"/>
        <path id="Path_1002" data-name="Path 1002" d="M1478.8,845.626l.012.014.186.243a.742.742,0,0,0-.652.063A.8.8,0,0,1,1478.8,845.626Z" transform="translate(-1473.252 -833.728)" fill="#f47257"/>
      </g>
      <g id="Group_199" data-name="Group 199" transform="translate(8.205 60.222)">
        <g id="Group_196" data-name="Group 196" transform="translate(4.74 35.673)">
          <path id="Path_1003" data-name="Path 1003" d="M211.21,1083.02a8.079,8.079,0,0,1-1.343,1.573,5.873,5.873,0,0,0-1.253,2.416c-.272,1.365-.046,8.107-.282,8.586-2.034,1.988-3.506,6.977-3.919,8.5a1.628,1.628,0,0,1-.47.772h0l.09,1.72,1.01.931a5.156,5.156,0,0,1,.224-2.441s5.12-7.754,5.424-8.346c.581-1.688,2.7-10.335,2.7-10.335l.491-1.988Z" transform="translate(-202.835 -1083.02)" fill="#f7a491"/>
          <path id="Path_1004" data-name="Path 1004" d="M191.935,1320.312a6.113,6.113,0,0,1,.694,1.369c.055.384.4,1.255.772,1.311.086.012,1.551.12,1.54-.063-.008-.14-.538-.34-.785-.51-.426-.294-1.086-2.688-1.086-2.688S191.963,1320.005,191.935,1320.312Z" transform="translate(-191.935 -1297.912)" fill="#352e73"/>
        </g>
        <path id="Path_1005" data-name="Path 1005" d="M299.709,1100.711s3.3,7.051,3.319,8.29c.018,1.063-.576,7.025-.41,11.99.006.179.233.417.563.569.186.085,1.084.486,1.084.486l.123.321-3.093-.22-.044-.844s-1.231-7.427-1.105-9.528c.02-.33.18-2.306.18-2.306l-3.719-7.18,2.339-3.074Z" transform="translate(-282.218 -1062.05)" fill="#f7a491"/>
        <path id="Path_1006" data-name="Path 1006" d="M245.948,911.178a2.855,2.855,0,0,0-3.164-1.888,2.982,2.982,0,0,0-1.869-1.335c-1.493-.32-3.511.27-3.457,1.85a2.876,2.876,0,0,0,.285,3.387,2.5,2.5,0,0,0,2.767,2.758,3.073,3.073,0,0,0,2.905,1.5,6.956,6.956,0,0,1,.764-.084c-.087-.016,1.842,1.463,3.477-.812C249.325,914.236,248.152,911.426,245.948,911.178Z" transform="translate(-228.148 -888.343)" fill="#2d2861"/>
        <path id="Path_1007" data-name="Path 1007" d="M297.742,842.212a3.079,3.079,0,0,1,.3-.544l.129-.188a.844.844,0,0,0,.035-.08,3.007,3.007,0,0,0,.013-.7l-1.128.273-.247.651c-.251-.116-.68-.989-.837-.779-.185.248.512,1.321.567,1.611s-.6,4.8-.788,5.7a24.361,24.361,0,0,1-1.466,3.4l1.168,1.482a29.379,29.379,0,0,0,1.995-4.977c.013-.122.028-.306.043-.533Z" transform="translate(-280.139 -827.362)" fill="#f7a491"/>
        <path id="Path_1008" data-name="Path 1008" d="M150.335,996.845l-1.386-1.176s-1.123,1.872-2.022,3.4a28.422,28.422,0,0,1-3.311-1.894c-.114-.069-.367-1.767-.562-1.677s.15.9-.087.957-2.011-1.126-2.048-.967c-.068.3,1.059.769,1,.9s-1.133-.605-1.305-.421,1.082.6,1.088.72-1.228-.229-1.2.03c.018.141,1.105.282,1.037.432s-.916.174-.88.334.707-.119,1.117.06.8.091,1.367.574,3.384,3.234,4.26,3C148.175,1000.908,150.335,996.845,150.335,996.845Z" transform="translate(-140.508 -967.868)" fill="#f7a491"/>
        <g id="Group_197" data-name="Group 197" transform="translate(7.235 23.85)">
          <path id="Path_1009" data-name="Path 1009" d="M248.257,1207.318s0,0,0,0Z" transform="translate(-245.56 -1184.037)" fill="#f47458"/>
          <path id="Path_1010" data-name="Path 1010" d="M226.417,958.133a15.7,15.7,0,0,1,1.06-2.231s-.973-1.236-1.762-1.142c0,0-1.061,1.759-1.664,1.818a16.8,16.8,0,0,0-3.1.377A21.613,21.613,0,0,0,219,959.6s1.418,1.448,1.989,1.445a5.99,5.99,0,0,1,.424-.728,42.152,42.152,0,0,1,1.405,5.528l.01.008a2.775,2.775,0,0,0,3.99-.513h0a22.051,22.051,0,0,1-.048-2.565C226.873,960.851,227.263,959.826,226.417,958.133Z" transform="translate(-219.003 -954.754)" fill="#fc008b"/>
          <path id="Path_1011" data-name="Path 1011" d="M256.339,1079l-6.473-9.351a6.336,6.336,0,0,1-1.2.385,12.465,12.465,0,0,1-2.8.12.68.68,0,0,1-.006.092c-.108.771-1.131,1.965-1.341,4.3a57.213,57.213,0,0,0-.014,7.571C248.809,1081.594,255.118,1080.278,256.339,1079Z" transform="translate(-242.048 -1059.056)" fill="#2d2861"/>
        </g>
        <g id="Group_198" data-name="Group 198" transform="translate(8.802)">
          <path id="Path_1012" data-name="Path 1012" d="M320.721,849.189a1.119,1.119,0,0,1-.752.184,1.413,1.413,0,0,1-.5-.216,1.417,1.417,0,0,0,.473.5C320.424,849.918,320.721,849.189,320.721,849.189Z" transform="translate(-311.771 -835.041)" fill="#f47458"/>
          <path id="Path_1013" data-name="Path 1013" d="M236.922,708.235l3.763-.776a.578.578,0,0,1,.53.164l2.752,2.8a.588.588,0,0,0,1-.37l.449-3.978a.619.619,0,0,1,.313-.475l3.394-1.863a.632.632,0,0,0-.029-1.112l-3.486-1.682a.618.618,0,0,1-.337-.458l-.654-3.949a.588.588,0,0,0-1.022-.317l-2.6,2.939a.579.579,0,0,1-.521.192l-3.8-.578a.615.615,0,0,0-.6.916l1.877,3.5a.645.645,0,0,1,.015.577l-1.694,3.592A.615.615,0,0,0,236.922,708.235Z" transform="translate(-235.998 -696.017)" fill="#fcc13f"/>
        </g>
        <path id="Path_1014" data-name="Path 1014" d="M261.916,951.323a9.785,9.785,0,0,1,.182,1.71c-.046.484.174,2.042,1.157,2.047s.187-1.982.094-2.455a18.875,18.875,0,0,1-.115-1.941Z" transform="translate(-250.725 -927.21)" fill="#f7a491"/>
        <path id="Path_1015" data-name="Path 1015" d="M263.255,951.42c-.015-.4-.02-.736-.02-.736l-1.318.639s.047.251.093.57A1.13,1.13,0,0,0,263.255,951.42Z" transform="translate(-250.725 -927.21)" fill="#f47458"/>
        <path id="Path_1016" data-name="Path 1016" d="M249.285,919.32a1.684,1.684,0,0,0-.694.929,2.309,2.309,0,0,0,1.338,2.673c1.312.4,1.881-.9,1.61-1.919S250.681,918.7,249.285,919.32Z" transform="translate(-238.576 -898.589)" fill="#f7a491"/>
        <path id="Path_1017" data-name="Path 1017" d="M277.445,929.749c-.026.273-.17.481-.323.466s-.256-.25-.23-.522.17-.481.323-.466S277.471,929.476,277.445,929.749Z" transform="translate(-264.317 -907.73)" fill="#f7a491"/>
        <path id="Path_1018" data-name="Path 1018" d="M246.606,943.571c.154.239.154.52,0,.628s-.405,0-.559-.236-.154-.52,0-.628S246.452,943.333,246.606,943.571Z" transform="translate(-236.212 -920.5)" fill="#f7a491"/>
        <path id="Path_1019" data-name="Path 1019" d="M321.9,833.234c-.254-.049-1.331.8-1.322.922s1.061-.41,1.091-.323c.023.068-1.177.382-1.114.5.043.082,1.119-.145,1.148-.092.045.082-.9.118-.837.209s.969.063.969.063a2.031,2.031,0,0,0,.2-.4.884.884,0,0,0,0-.186c0-.06.023-.112.015-.179C322.014,833.478,322.036,833.261,321.9,833.234Z" transform="translate(-303.953 -820.584)" fill="#f7a491"/>
        <path id="Path_1020" data-name="Path 1020" d="M312.966,839.7l-.4.5-.264-.2a.131.131,0,0,1,.009-.11C312.341,839.819,312.958,839.516,312.966,839.7Z" transform="translate(-296.459 -826.402)" fill="#f7a491"/>
        <path id="Path_1021" data-name="Path 1021" d="M346.577,1340.389h3.907c.144-.013.18-.129.13-.2a4.758,4.758,0,0,0-1.071-.492,6.67,6.67,0,0,1-3-.727A3.8,3.8,0,0,0,346.577,1340.389Z" transform="translate(-327.51 -1279.703)" fill="#352e73"/>
        <path id="Path_1022" data-name="Path 1022" d="M315.158,845.273a2.562,2.562,0,0,1,.75.7.912.912,0,0,1,.118.692l-.909-1.118Z" transform="translate(-299.022 -831.515)" fill="#f7a491"/>
      </g>
      <g id="Group_202" data-name="Group 202" transform="translate(42.295 27.016)">
        <path id="Path_1023" data-name="Path 1023" d="M1069.7,365.769a3.969,3.969,0,0,1-.411,1.273q-.6.719-1.127,1.481c.245-.018.491-.029.74-.029a9.365,9.365,0,0,1,6.411,2.426,6.615,6.615,0,0,1,0,10.094,9.684,9.684,0,0,1-12.809.012c-.123.363-.245.724-.367,1.087a2.823,2.823,0,0,0-1.4,2.552,2.562,2.562,0,0,0,2.29,2.766,2.362,2.362,0,0,0,2.155-1.838,11.761,11.761,0,0,0,3.725.6c6.092,0,11.031-4.579,11.031-10.228C1079.932,370.568,1075.419,366.149,1069.7,365.769Z" transform="translate(-1009.998 -363.004)" fill="#ffa42f"/>
        <path id="Path_1024" data-name="Path 1024" d="M520.572,365.769a3.964,3.964,0,0,0,.411,1.273q.6.719,1.127,1.481c-.245-.018-.491-.029-.74-.029a9.365,9.365,0,0,0-6.411,2.426,6.615,6.615,0,0,0,0,10.094,9.684,9.684,0,0,0,12.809.012c.123.363.245.724.367,1.087a2.823,2.823,0,0,1,1.4,2.552,2.562,2.562,0,0,1-2.29,2.766,2.362,2.362,0,0,1-2.155-1.838,11.76,11.76,0,0,1-3.725.6c-6.092,0-11.031-4.579-11.031-10.228C510.339,370.568,514.853,366.149,520.572,365.769Z" transform="translate(-510.339 -363.004)" fill="#ffa42f"/>
        <path id="Path_1025" data-name="Path 1025" d="M658.86,353.133v2.824a23.111,23.111,0,0,1-23.109,23.109c-5.878-.078-9.911.53-15.491-1.941a23.116,23.116,0,0,1-13.83-21.168v-2.824Z" transform="translate(-597.573 -351.533)" fill="#fcc13f"/>
        <path id="Path_1026" data-name="Path 1026" d="M687.708,377.126l.018.008,8.307-24h-8.647l-6.658,19.24A23.145,23.145,0,0,0,687.708,377.126Z" transform="translate(-665.021 -351.533)" fill="#fee2bf"/>
        <path id="Path_1027" data-name="Path 1027" d="M775.845,378.744l8.766-25.611h-4.344L771.86,377.7A20.961,20.961,0,0,0,775.845,378.744Z" transform="translate(-747.754 -351.533)" fill="#fee2bf"/>
        <path id="Path_1028" data-name="Path 1028" d="M657.4,371.494l6.556-18.361h-2.065l-5.931,16.612Q656.635,370.656,657.4,371.494Z" transform="translate(-642.533 -351.533)" fill="#fee2bf"/>
        <path id="Path_1029" data-name="Path 1029" d="M648.29,335.77H600.569c-1.742,0-3.161.969-3.261,2.191h54.244C651.451,336.739,650.032,335.77,648.29,335.77Z" transform="translate(-589.291 -335.77)" fill="#fcc13f"/>
        <path id="Path_1030" data-name="Path 1030" d="M794.708,627.137l2.7,13.861h11.807l3.345-13.861Z" transform="translate(-768.496 -600.28)" fill="#fcc13f"/>
        <path id="Path_1031" data-name="Path 1031" d="M812.565,627.148l-.755,3.128H795.323l-.61-3.128Z" transform="translate(-768.5 -600.29)" fill="#ffa42f"/>
        <path id="Path_1032" data-name="Path 1032" d="M812.565,827.017H794.713l1.338-6.88,1.36-6.981h11.809l1.686,6.981Z" transform="translate(-768.5 -769.152)" fill="#fcc13f"/>
        <path id="Path_1033" data-name="Path 1033" d="M812.565,895.773H794.713l1.338-6.88h14.855Z" transform="translate(-768.5 -837.908)" fill="#ff7a03"/>
        <path id="Path_1034" data-name="Path 1034" d="M804.932,777.508H788.983a1.274,1.274,0,0,0-1.274,1.274v.738a1.274,1.274,0,0,0,1.274,1.274h15.949a1.274,1.274,0,0,0,1.274-1.274v-.738A1.274,1.274,0,0,0,804.932,777.508Z" transform="translate(-762.142 -736.79)" fill="#fee2bf"/>
        <g id="Group_200" data-name="Group 200" transform="translate(17.326 52.401)">
          <path id="Path_1035" data-name="Path 1035" d="M794.986,908.778H773.9v-3.7a.825.825,0,0,1,.825-.826h19.435a.825.825,0,0,1,.825.826v3.7Z" transform="translate(-766.931 -904.252)" fill="#fcc13f"/>
          <path id="Path_1036" data-name="Path 1036" d="M733.324,954.4v1.377H698.3V954.4c0-1.587.968-2.875,2.162-2.875h30.7C732.355,951.523,733.324,952.811,733.324,954.4Z" transform="translate(-698.3 -947.166)" fill="#fcc13f"/>
          <path id="Path_1037" data-name="Path 1037" d="M762.448,951.523l-1.108,4.251h-1.462l1.108-4.251Z" transform="translate(-754.202 -947.166)" fill="#fee2bf"/>
          <path id="Path_1038" data-name="Path 1038" d="M739.727,951.523l-1.108,4.251h-1.463l1.11-4.251Z" transform="translate(-733.574 -947.166)" fill="#fee2bf"/>
          <path id="Path_1039" data-name="Path 1039" d="M782.615,951.523l-1.108,4.251h-1.464l1.11-4.251Z" transform="translate(-772.509 -947.166)" fill="#fee2bf"/>
        </g>
        <g id="Group_201" data-name="Group 201" transform="translate(6.701 89.591)">
          <path id="Path_1040" data-name="Path 1040" d="M641.723,1310.59v1.377H583.034v-1.377c0-1.587,1.623-2.875,3.622-2.875H638.1C640.1,1307.715,641.723,1309,641.723,1310.59Z" transform="translate(-583.034 -1307.714)" fill="#fcc13f"/>
          <path id="Path_1041" data-name="Path 1041" d="M690.527,1307.71l-1.857,4.252h-2.449l1.857-4.252Z" transform="translate(-676.709 -1307.71)" fill="#fee2bf"/>
          <path id="Path_1042" data-name="Path 1042" d="M652.453,1307.71l-1.857,4.252h-2.452l1.86-4.252Z" transform="translate(-642.142 -1307.71)" fill="#fee2bf"/>
          <path id="Path_1043" data-name="Path 1043" d="M724.322,1307.71l-1.857,4.252h-2.452l1.86-4.252Z" transform="translate(-707.387 -1307.71)" fill="#fee2bf"/>
        </g>
        <path id="Path_1044" data-name="Path 1044" d="M758.069,598.727v1.039a3.255,3.255,0,0,1-3.254,3.257h-23.51a3.255,3.255,0,0,1-3.257-3.257v-1.039h30.02Z" transform="translate(-707.981 -574.488)" fill="#fcc13f"/>
        <path id="Path_1045" data-name="Path 1045" d="M696.421,1026.233H652.256l.539-28.58h43.034Z" transform="translate(-639.174 -936.642)" fill="#adeff7"/>
        <path id="Path_1046" data-name="Path 1046" d="M789.356,1026.233H766.2l.282-28.58h22.567Z" transform="translate(-742.612 -936.642)" fill="#d1f7fa"/>
      </g>
      <path id="Path_1047" data-name="Path 1047" d="M198.754,1353.84H51.829a.332.332,0,0,0-.333.332h0a.332.332,0,0,0,.333.332H198.754a.332.332,0,0,0,.333-.332h0A.333.333,0,0,0,198.754,1353.84Z" transform="translate(-51.496 -1232.982)" fill="#fee2bf"/>
      <g id="Group_205" data-name="Group 205" transform="translate(84.351)">
        <g id="Group_203" data-name="Group 203" transform="translate(8.26 6.896)">
          <path id="Path_1048" data-name="Path 1048" d="M1139.972,120.717c-.123.506-.345,1.305-.345,1.305.018.22.083,1.134.16,2.255l-1.648-.659a17.782,17.782,0,0,0-.054-1.938c-.062-.094-.167.023-.672-.7a1.412,1.412,0,0,1-.173-.581s-.03-.459.073-.5a.214.214,0,0,1,.258.1c.037.079.028.264.065.343a.571.571,0,0,0,.376.17,6.147,6.147,0,0,0-.013-1.357s-.056-.383-.084-.509c-.024-.107-.122-.421-.122-.421s-.114-.455.027-.49c.083-.02.3.349.441.741a8.02,8.02,0,0,0,.29.865c.105-.014.05-.755.05-.755a2.362,2.362,0,0,1-.1-.5c-.1-.2-.165-.561.01-.591a3.017,3.017,0,0,1,.262.457s.09.326.143.478c.093.269.107.693.155.88.04.156.077.092.093.1a3.875,3.875,0,0,0-.035-.5,2.967,2.967,0,0,0-.037-.489,3.611,3.611,0,0,1-.071-.516c-.028-.383.213-.344.3.006.032.134.065.279.1.427.13.575.126,1.128.188,1.133a4.178,4.178,0,0,0,.028-1s.123-.558.246-.04a4.491,4.491,0,0,1,.125,1.113A4.31,4.31,0,0,1,1139.972,120.717Z" transform="translate(-1129.768 -117.501)" fill="#f8a492"/>
          <path id="Path_1049" data-name="Path 1049" d="M1088.726,173.151a8.024,8.024,0,0,0-1.874-.3,37.242,37.242,0,0,1-.631,4.48c-.225.116-3.207-2.611-3.739-2.8a2.219,2.219,0,0,0-.8-.066c-.633.019-.758.021-.758.021l-.023,0,0,.595c.712.641,2.344,10.353,2.481,10.346.154-.007,3.378.8,3.321.533a9.58,9.58,0,0,1-2.8-4.4c-.207-.863-.31-1.792-.422-2.605.716.359,3.515,1.736,3.958,1.554C1088.823,179.957,1088.726,173.151,1088.726,173.151Z" transform="translate(-1078.629 -167.726)" fill="#fc008b"/>
          <path id="Path_1050" data-name="Path 1050" d="M1225.99,353.092s3,2.35,3.1,2.767c.144.6,2.891-.189,2.229-.311-.152-.028-.64-.152-.68-.173-.214-.115-2.884-3.331-2.884-3.331Z" transform="translate(-1210.34 -330.424)" fill="#f7a491"/>
          <path id="Path_1051" data-name="Path 1051" d="M1262.082,388.527l-1.915-.156a2.714,2.714,0,0,1-1.6.474,2.454,2.454,0,0,0-.088,1.043c.014.1.03.39.128.383.354-.024,1.3-.259,2.371-.474a9.256,9.256,0,0,0,2.278-.8C1264.088,388.494,1262.082,388.527,1262.082,388.527Z" transform="translate(-1239.814 -363.403)" fill="#352e73"/>
          <path id="Path_1052" data-name="Path 1052" d="M1072.693,288.277a13.115,13.115,0,0,0,4.627-.2c2.812-.658,5.92-1.266,6.831-.736.733.426,5.311,7.344,5.311,7.344l-1.768,1.29-5.041-5.645s-6.432,2.373-7.876,2.11C1071.487,291.842,1071.439,289.215,1072.693,288.277Z" transform="translate(-1070.485 -271.503)" fill="#2ba14c"/>
          <path id="Path_1053" data-name="Path 1053" d="M1082.571,284.33l2.2,2.612-4.078,1.242-.522-2.459Z" transform="translate(-1077.962 -268.952)" fill="#2ba14c"/>
          <path id="Path_1054" data-name="Path 1054" d="M1152.518,413.775s-.134,3.628-.216,4.243,1.54,2.454,1.333,1.813c-.048-.147-.171-.635-.171-.681,0-.243.6-4.382.6-4.382Z" transform="translate(-1143.441 -386.465)" fill="#f7a491"/>
          <path id="Path_1055" data-name="Path 1055" d="M1139.488,462.991l-1.2-1.948a2.715,2.715,0,0,1-1.177-1.182,2.452,2.452,0,0,0-.959.418c-.078.058-.615.451-.578.541a10.3,10.3,0,0,0,1.667,1.826,21.542,21.542,0,0,0,1.967,1.41C1140.046,464.553,1139.488,462.991,1139.488,462.991Z" transform="translate(-1128.258 -428.303)" fill="#352e73"/>
          <path id="Path_1056" data-name="Path 1056" d="M1070.009,283.775c-.768-1.024-6.968-2-6.968-2l-1.729-3.323-3.823,2.357a34.629,34.629,0,0,0,.669,3.855c.382,1.083,2.951,1.138,4.52,1.122,1.444-.015,4.081.28,4.081.28l-.892,7.868a12.319,12.319,0,0,0,2.246.335C1068.17,294.264,1070.965,285.049,1070.009,283.775Z" transform="translate(-1057.372 -263.619)" fill="#8cd334"/>
          <path id="Path_1057" data-name="Path 1057" d="M1058.508,191.019l-2.157.12s-.05.015-.065.018a81.612,81.612,0,0,0,.141,8.665,15.689,15.689,0,0,0,.474,3.334,35.132,35.132,0,0,0,3.823-.868,6.6,6.6,0,0,0,1.274-1.272,9.452,9.452,0,0,1-1.385-3.25c-.358-1.551-.8-4.3-1.052-4.876A8.188,8.188,0,0,0,1058.508,191.019Z" transform="translate(-1056.21 -184.242)" fill="#fee2bf"/>
        </g>
        <path id="Path_1058" data-name="Path 1058" d="M1057.807,168.763l-.062,1.9s1.4,2.406,2.113,2.07c.6-.281.067-2.111.067-2.111s-.1-.42-.249-.9a3.488,3.488,0,0,1-.178-.969C1059.514,168.1,1057.807,168.763,1057.807,168.763Z" transform="translate(-1049.343 -156.874)" fill="#f7a491"/>
        <path id="Path_1059" data-name="Path 1059" d="M1060.038,168.756c.015-.651-1.692.008-1.692.008l-.006.186a.973.973,0,0,0,.191.217,2.35,2.35,0,0,0,1.662.479A3.292,3.292,0,0,1,1060.038,168.756Z" transform="translate(-1049.883 -156.874)" fill="#f47458"/>
        <g id="Group_204" data-name="Group 204" transform="translate(6.156 6.521)">
          <path id="Path_1060" data-name="Path 1060" d="M1060.186,124.55a4.967,4.967,0,0,1,.764,1.975,4.679,4.679,0,0,1-.138,1.518l-2.283-2.729Z" transform="translate(-1056.211 -123.525)" fill="#2d2861"/>
          <ellipse id="Ellipse_40" data-name="Ellipse 40" cx="0.334" cy="0.575" rx="0.334" ry="0.575" transform="matrix(0.995, -0.101, 0.101, 0.995, 4.247, 2.313)" fill="#f48c7f"/>
          <path id="Path_1061" data-name="Path 1061" d="M1050.334,128.631c-.052-.011-.047,2.616.714,3.234s2.087.673,2.474.05c.428-.689.021-3.457-1.112-4.045S1050.334,128.631,1050.334,128.631Z" transform="translate(-1048.753 -126.404)" fill="#f7a491"/>
          <path id="Path_1062" data-name="Path 1062" d="M1034.765,114.027a4.218,4.218,0,0,0-1.256,1.788c-.484,1.114.476,2.269,1.281,2.727a1.55,1.55,0,0,1,.872,1.013l.033-.342a.855.855,0,0,0-.01-.315,1.468,1.468,0,0,0-.114-.277c-.068-.146-.289-.648-.374-.78-.226-.349-.271-.425-.159-.757.086-.255-.013-.819.12-1.24l1.083-.234a2.267,2.267,0,0,0,1.02-.558C1038.241,113.92,1036.3,112.656,1034.765,114.027Z" transform="translate(-1033.378 -113.429)" fill="#2d2861"/>
          <ellipse id="Ellipse_41" data-name="Ellipse 41" cx="0.334" cy="0.575" rx="0.334" ry="0.575" transform="translate(1.07 3.707) rotate(-24.84)" fill="#f7a491"/>
        </g>
        <path id="Path_1063" data-name="Path 1063" d="M973.494,45.9c.123.506.345,1.305.345,1.305-.018.22-.083,1.134-.16,2.255l1.648-.659a17.782,17.782,0,0,1,.054-1.938c.062-.094.167.023.671-.7a1.409,1.409,0,0,0,.173-.581s.03-.459-.073-.5a.214.214,0,0,0-.258.1c-.037.079-.028.264-.065.343a.571.571,0,0,1-.376.17,6.133,6.133,0,0,1,.013-1.357s.056-.383.084-.509c.024-.107.121-.421.121-.421s.114-.455-.027-.49c-.083-.021-.3.349-.441.741a8.02,8.02,0,0,1-.29.865c-.105-.014-.05-.755-.05-.755a2.38,2.38,0,0,0,.1-.5c.1-.2.165-.561-.01-.591a3.012,3.012,0,0,0-.262.457s-.09.326-.143.478c-.093.269-.107.693-.155.88-.04.156-.077.092-.093.1a3.876,3.876,0,0,1,.035-.5,2.979,2.979,0,0,1,.037-.489,3.543,3.543,0,0,0,.071-.516c.028-.383-.213-.344-.3.006-.032.134-.065.279-.1.427-.13.575-.126,1.128-.188,1.133a4.179,4.179,0,0,1-.027-1s-.123-.558-.246-.04a4.517,4.517,0,0,0-.126,1.113A4.372,4.372,0,0,0,973.494,45.9Z" transform="translate(-972.804 -42.686)" fill="#f8a492"/>
        <path id="Path_1064" data-name="Path 1064" d="M975,105.767a13.582,13.582,0,0,1-2.69-.349c-.334-.151-3.082-2.365-3.082-2.365l.031-5.928-1.932-.147s-1,6.552-.655,7.269c.358.741,4.38,3.79,5.184,5.113.464.762,1.43,11.129,1.576,11.222,1.041.542,4.254,1.082,4.178.754A119.226,119.226,0,0,1,975,105.767Z" transform="translate(-966.596 -91.974)" fill="#fc008b"/>
      </g>
      <g id="Group_206" data-name="Group 206" transform="translate(54.325 35.891)">
        <path id="Path_1065" data-name="Path 1065" d="M640.912,449.733c.123.506.345,1.305.345,1.305-.018.22-.083,1.134-.16,2.255l1.647-.659a17.757,17.757,0,0,1,.054-1.938c.062-.094.167.023.672-.7a1.411,1.411,0,0,0,.173-.581s.03-.459-.073-.5a.214.214,0,0,0-.258.1c-.037.079-.028.264-.065.343a.57.57,0,0,1-.376.17,6.132,6.132,0,0,1,.012-1.357s.056-.383.084-.509c.024-.107.122-.421.122-.421s.114-.455-.027-.49c-.083-.021-.3.349-.441.742a7.915,7.915,0,0,1-.29.865c-.105-.014-.049-.755-.049-.755a2.366,2.366,0,0,0,.1-.5c.1-.2.165-.561-.01-.591a3.01,3.01,0,0,0-.262.457s-.09.326-.143.478c-.093.268-.107.693-.155.88-.04.156-.077.091-.093.1a3.912,3.912,0,0,1,.035-.5,2.994,2.994,0,0,1,.037-.489,3.612,3.612,0,0,0,.071-.516c.028-.383-.213-.344-.3.006-.032.133-.065.279-.1.427-.13.575-.126,1.128-.188,1.133a4.179,4.179,0,0,1-.027-1s-.123-.558-.246-.04a4.513,4.513,0,0,0-.125,1.113A4.355,4.355,0,0,0,640.912,449.733Z" transform="translate(-640.852 -445.184)" fill="#f8a492"/>
        <path id="Path_1066" data-name="Path 1066" d="M804.255,435.277c-.123.506-.345,1.305-.345,1.305.018.22.083,1.134.16,2.255l-1.647-.659a17.783,17.783,0,0,0-.054-1.938c-.062-.095-.167.023-.671-.7a1.411,1.411,0,0,1-.173-.581s-.03-.459.073-.5a.214.214,0,0,1,.258.105c.037.079.028.264.065.343a.571.571,0,0,0,.376.17,6.129,6.129,0,0,0-.012-1.357s-.056-.383-.084-.509c-.024-.107-.122-.421-.122-.421s-.114-.455.027-.49c.083-.02.3.349.441.741a7.918,7.918,0,0,0,.29.864c.105-.014.049-.755.049-.755a2.373,2.373,0,0,1-.1-.5c-.1-.2-.165-.561.01-.591a3.02,3.02,0,0,1,.262.457s.09.326.143.478c.093.269.107.693.155.879.04.156.077.092.093.1a3.931,3.931,0,0,0-.035-.5,2.987,2.987,0,0,0-.037-.489,3.577,3.577,0,0,1-.071-.516c-.028-.383.213-.344.3.006.032.134.065.279.1.427.13.575.126,1.128.188,1.133a4.17,4.17,0,0,0,.028-1s.123-.558.246-.04a4.511,4.511,0,0,1,.126,1.113A4.359,4.359,0,0,1,804.255,435.277Z" transform="translate(-786.71 -432.061)" fill="#f8a492"/>
        <path id="Path_1067" data-name="Path 1067" d="M698.326,527.984a.9.9,0,0,1,1.513.191.671.671,0,0,1,.884.228s.939-.282,1.167,1.121c0,0,.483-.091.547.483a1.422,1.422,0,0,1-.228.957s.271.2.148.731a.653.653,0,0,1-.476.517s-.1.757-.428.984a1.07,1.07,0,0,1-.775.119.506.506,0,0,1-.5.374c-.383-.036-.857-.4-1.285-.237a4.575,4.575,0,0,1-1.54-.009,1.552,1.552,0,0,1-.875-1.832.933.933,0,0,1-.082-1.3,1.624,1.624,0,0,1,.41-1.768A2.162,2.162,0,0,1,698.326,527.984Z" transform="translate(-691.061 -518.832)" fill="#2d2861"/>
        <path id="Path_1068" data-name="Path 1068" d="M769.226,933.118a12.556,12.556,0,0,0,1.141,1.272c.228.139-.1,1.785-.721,1.893-.349.061-.543-.324-.543-.324l.1-.474-1.3-1.344Z" transform="translate(-756.186 -886.932)" fill="#f7a491"/>
        <path id="Path_1069" data-name="Path 1069" d="M717,936.152a12.594,12.594,0,0,0,.969,1.407c.208.167-.329,1.757-.957,1.785-.354.016-.5-.391-.5-.391l.16-.457-1.123-1.5Z" transform="translate(-708.663 -889.686)" fill="#f7a491"/>
        <path id="Path_1070" data-name="Path 1070" d="M716.809,950.89a9.587,9.587,0,0,1-.676.779,8.057,8.057,0,0,1-.7.567s-.447.811-.569,1.094a4.719,4.719,0,0,0-.533,1.684c.014.113.269.233.48.168a11.211,11.211,0,0,0,3.423-2.889C718.561,951.654,716.809,950.89,716.809,950.89Z" transform="translate(-707.552 -903.066)" fill="#352e73"/>
        <path id="Path_1071" data-name="Path 1071" d="M662.754,739.7c.082-.229.16-.441.236-.641.938.2,2,.43,3.089.663l.133,4c0-.309-.82,6.374-.82,6.374s2.119,4.691,3.568,7.425a5,5,0,0,1-1.735,1.487c-2.249-2.7-5.193-7.631-5.315-8.452C661.839,750.082,661.776,742.453,662.754,739.7Z" transform="translate(-659.937 -710.762)" fill="#d6007e"/>
        <path id="Path_1072" data-name="Path 1072" d="M712.544,747.38c-.287,3.114-.924,9.068-.871,9.547.16.6,3,6.106,3.506,6.908a3.44,3.44,0,0,1-1.707,1.452c-.133.036-4.813-6.624-5.068-7.152a30.679,30.679,0,0,1-.778-7.892l-.133-4C709.311,746.633,710.981,747.013,712.544,747.38Z" transform="translate(-701.351 -717.285)" fill="#fc008b"/>
        <path id="Path_1073" data-name="Path 1073" d="M667.491,604.551l2.138.294s1.714.042,1.926.042,1.555,7.8,1.944,10.737.088,3.455.088,3.455a18.824,18.824,0,0,1-4.717.432,15.387,15.387,0,0,1-4.433-1.311s1.783-5.641,2.136-7.4S667.491,604.551,667.491,604.551Z" transform="translate(-662.264 -588.651)" fill="#fee2bf"/>
        <path id="Path_1074" data-name="Path 1074" d="M640.9,499a61.073,61.073,0,0,0,.082,6.261c.319.647,3.91,5.236,3.91,5.236s-1.715,7.178-2.436,9.657c-.073.25-.394,1.862-.394,2.019,0,.349,1.517.791,1.7.765.161-.024,1.485-6.852,2.33-10.193a9.558,9.558,0,0,1,1.45-3.157l.588-.835-4.511-4.521s-.556-5.033-.556-5.45C643.055,498.677,641.114,498.594,640.9,499Z" transform="translate(-640.853 -492.555)" fill="#352e73"/>
        <path id="Path_1075" data-name="Path 1075" d="M724.739,492.651l5.625-5.732s.784-5.42.839-5.624,1.452-.309,2.015-.364a38,38,0,0,1-.364,6.744c-.318,1.147-4.57,6.371-4.57,6.371a17.376,17.376,0,0,0-.578,4.906c.305,3.448,1.127,8.19.979,8.339-.914.576-4.423.638-4.645.28C721.588,503.62,724.739,492.651,724.739,492.651Z" transform="translate(-715.524 -476.426)" fill="#352e73"/>
        <path id="Path_1076" data-name="Path 1076" d="M718.475,578.994l-.152,1.126s-.34,1.622.1,1.935,1.86-1.981,1.86-1.981l-.15-2.853Z" transform="translate(-711.068 -563.84)" fill="#f7a491"/>
        <path id="Path_1077" data-name="Path 1077" d="M721.646,578.145a3.236,3.236,0,0,1-1.833,1.8l.129-.954,1.656-1.774Z" transform="translate(-712.535 -563.84)" fill="#f47458"/>
        <ellipse id="Ellipse_42" data-name="Ellipse 42" cx="0.552" cy="0.787" rx="0.552" ry="0.787" transform="translate(10.287 10.654)" fill="#2d2861"/>
        <ellipse id="Ellipse_43" data-name="Ellipse 43" cx="0.672" cy="0.452" rx="0.672" ry="0.452" transform="translate(8.391 9.298)" fill="#2d2861"/>
        <path id="Path_1078" data-name="Path 1078" d="M707.6,543.9a1.5,1.5,0,0,0-1.969,1.2,11.358,11.358,0,0,0-.122,1.445c-.024,1.315.657,2.6,1.254,2.6a2.818,2.818,0,0,0,2.307-2.718A2.489,2.489,0,0,0,707.6,543.9Z" transform="translate(-699.549 -533.517)" fill="#f7a491"/>
        <ellipse id="Ellipse_44" data-name="Ellipse 44" cx="0.43" cy="0.525" rx="0.43" ry="0.525" transform="translate(9.082 12.526)" fill="#f7a491"/>
        <path id="Path_1079" data-name="Path 1079" d="M693.729,533.645c-.617.489-.833,1.231-.483,1.658a1.3,1.3,0,0,0,1.751-.111c.617-.489.833-1.231.483-1.659A1.3,1.3,0,0,0,693.729,533.645Z" transform="translate(-688.264 -523.917)" fill="#2d2861"/>
        <ellipse id="Ellipse_45" data-name="Ellipse 45" cx="0.573" cy="0.385" rx="0.573" ry="0.385" transform="translate(7.077 9.745)" fill="#2d2861"/>
        <ellipse id="Ellipse_46" data-name="Ellipse 46" cx="0.489" cy="0.494" rx="0.489" ry="0.494" transform="translate(5.373 11.269)" fill="#2d2861"/>
        <path id="Path_1080" data-name="Path 1080" d="M774.883,946.455a9.641,9.641,0,0,1-.571.859,8.021,8.021,0,0,1-.624.652s-.34.861-.424,1.157a5,5,0,0,0-.314,1.8c.028.11.271.322.472.191a14.937,14.937,0,0,0,3.052-3.449C776.718,946.989,774.883,946.455,774.883,946.455Z" transform="translate(-760.754 -899.04)" fill="#352e73"/>
      </g>
      <path id="Path_1081" data-name="Path 1081" d="M1160.063,685.765a8.611,8.611,0,0,0-4.289,2.2,15.324,15.324,0,0,0-2.911,4.736l3.731,1.088S1155.1,690.307,1160.063,685.765Z" transform="translate(-1051.342 -626.488)" fill="#fcc13f"/>
      <path id="Path_1082" data-name="Path 1082" d="M1215.65,637.875l-.267-2.1-1.883-.971a.291.291,0,0,1,.009-.522l1.916-.9.342-2.091a.291.291,0,0,1,.5-.152l1.452,1.543,2.094-.321a.291.291,0,0,1,.3.428l-1.019,1.857.952,1.893a.291.291,0,0,1-.314.417l-2.082-.4-1.506,1.491A.291.291,0,0,1,1215.65,637.875Z" transform="translate(-1106.247 -576.808)" fill="#fcc13f"/>
      <path id="Path_1083" data-name="Path 1083" d="M526.757,807.149a8.611,8.611,0,0,1,4.289,2.2,15.325,15.325,0,0,1,2.91,4.736l-3.731,1.088S531.717,811.691,526.757,807.149Z" transform="translate(-482.949 -736.683)" fill="#fcc13f"/>
      <path id="Path_1084" data-name="Path 1084" d="M475.039,759.259l.267-2.1,1.883-.971a.291.291,0,0,0-.009-.522l-1.916-.9-.342-2.091a.291.291,0,0,0-.5-.153l-1.452,1.543-2.094-.321a.291.291,0,0,0-.3.428l1.019,1.857-.952,1.892a.291.291,0,0,0,.314.417l2.082-.4,1.506,1.491A.291.291,0,0,0,475.039,759.259Z" transform="translate(-431.914 -687.003)" fill="#fcc13f"/>
      <path id="Path_1085" data-name="Path 1085" d="M1411.813,678.268l.577-.975-.476-1.028a.155.155,0,0,1,.175-.217l1.105.248.831-.77a.156.156,0,0,1,.261.1l.106,1.128.989.552a.155.155,0,0,1-.014.279l-1.04.449-.219,1.112a.156.156,0,0,1-.27.073l-.748-.85-1.125.135A.156.156,0,0,1,1411.813,678.268Z" transform="translate(-1286.403 -617.154)" fill="#8cd334"/>
      <path id="Path_1086" data-name="Path 1086" d="M807.677,192.735l.728-1.23-.6-1.3a.2.2,0,0,1,.221-.274l1.395.312,1.048-.972a.2.2,0,0,1,.329.126l.134,1.423,1.248.7a.2.2,0,0,1-.018.352l-1.312.567-.277,1.4a.2.2,0,0,1-.34.092l-.945-1.072-1.419.17A.2.2,0,0,1,807.677,192.735Z" transform="translate(-737.949 -175.715)" fill="#fc008b"/>
      <path id="Path_1087" data-name="Path 1087" d="M1357.259,260.47l-1.923,1.283,1.074,1.866-1.838,1.347.807,1.91-1.21,1.233.624.613,1.62-1.649-.765-1.81,1.912-1.4-1.057-1.836,1.742-1.163Z" transform="translate(-1234.093 -240.395)" fill="#fc008b"/>
      <path id="Path_1088" data-name="Path 1088" d="M1337.507,568.594l-1.359-1.869-1.822,1.15-1.422-1.782-1.876.884-1.281-1.16-.587.649,1.713,1.551,1.778-.838,1.479,1.854,1.791-1.131,1.232,1.694Z" transform="translate(-1211.389 -517.597)" fill="#fc008b"/>
      <path id="Path_1089" data-name="Path 1089" d="M688.249,101.174l.461-2.265-2.078-.568.356-2.251-1.919-.788-.009-1.728-.875,0,.012,2.311,1.818.747-.37,2.342,2.043.559-.418,2.052Z" transform="translate(-625.867 -88.883)" fill="#fc008b"/>
      <path id="Path_1090" data-name="Path 1090" d="M514.837,208.7l.88,1.643,1.9-.106.856,1.911,1.986-.736,1.063,2.119,1.913-.453,1.356,1.872-.708.513-1.014-1.4-2.018.478-1.022-2.037-2.02.749-.944-2.109-1.853.1-.815-1.523-1.2.323-.227-.845Z" transform="translate(-470.427 -193.396)" fill="#fcc13f"/>
      <path id="Path_1091" data-name="Path 1091" d="M391.334,312.6l-1.4.142-.478-2.228-2.073-.045-.63-1.609-.815.319.843,2.152,1.965.042.5,2.318,2.108-.214Z" transform="translate(-355.109 -284.325)" fill="#8cd334"/>
      <path id="Path_1092" data-name="Path 1092" d="M362.637,611.536l-.524,1.307-2.2-.611-1,1.816-1.718-.189-.1.87,2.3.252.95-1.721,2.284.636.789-1.966Z" transform="translate(-328.932 -559.101)" fill="#8cd334"/>
      <g id="Group_207" data-name="Group 207" transform="translate(30.828 36.735)">
        <circle id="Ellipse_47" data-name="Ellipse 47" cx="3.899" cy="3.899" r="3.899" fill="#fff3d9"/>
        <path id="Path_1093" data-name="Path 1093" d="M403.573,456.7l-1.659.51-.52,1.656a.169.169,0,0,1-.3.047l-1-1.42-1.736.017a.169.169,0,0,1-.137-.271l1.043-1.388-.552-1.646a.169.169,0,0,1,.215-.214l1.642.563,1.394-1.034a.169.169,0,0,1,.27.139l-.028,1.736,1.414,1.007A.169.169,0,0,1,403.573,456.7Z" transform="translate(-397.06 -452.355)" fill="#fcc13f"/>
      </g>
      <g id="Group_208" data-name="Group 208" transform="translate(132.692 43.225)">
        <circle id="Ellipse_48" data-name="Ellipse 48" cx="3.899" cy="3.899" r="3.899" fill="#fff3d9"/>
        <path id="Path_1094" data-name="Path 1094" d="M1508.664,527.106l-1.659.51-.521,1.656a.169.169,0,0,1-.3.047l-1-1.42-1.736.017a.169.169,0,0,1-.137-.271l1.043-1.388-.552-1.646a.169.169,0,0,1,.215-.214l1.642.563,1.394-1.034a.169.169,0,0,1,.27.139l-.028,1.736,1.414,1.007A.169.169,0,0,1,1508.664,527.106Z" transform="translate(-1502.15 -522.76)" fill="#fcc13f"/>
      </g>
      <path id="Path_1095" data-name="Path 1095" d="M1357.119,440.105l.682,1.132a.173.173,0,0,0,.309-.026l.484-1.23,1.287-.3a.173.173,0,0,0,.071-.3l-1.02-.841.114-1.317a.173.173,0,0,0-.265-.161l-1.115.71-1.217-.515a.173.173,0,0,0-.234.2l.331,1.279-.866,1a.173.173,0,0,0,.12.286Z" transform="translate(-1235.426 -400.687)" fill="#fc008b"/>
      <circle id="Ellipse_49" data-name="Ellipse 49" cx="0.79" cy="0.79" r="0.79" transform="translate(117.722 64.566)" fill="#8cd334"/>
      <ellipse id="Ellipse_50" data-name="Ellipse 50" cx="0.856" cy="0.79" rx="0.856" ry="0.79" transform="translate(25.138 40.62)" fill="#8cd334"/>
      <g id="Group_209" data-name="Group 209" transform="translate(70.812 1.583)">
        <path id="Path_1096" data-name="Path 1096" d="M820.5,61.9l1.037.2s1.516-.708,1.631-1.049.062-1.128.284-1.177a.686.686,0,0,1,.835.492c.123.379-.306,1.571-.2,1.679a5.5,5.5,0,0,0,1.092.294.782.782,0,0,1,.592.562h0a.431.431,0,0,1-.21.493l-.273.146.128.285a.43.43,0,0,1-.2.564l-.213.1.093.171a.43.43,0,0,1-.205.6l-.187.08.014.051a.43.43,0,0,1-.251.516l-.186.074-2.762-.546a1.9,1.9,0,0,1-.721-.307l-.939-.356a.221.221,0,0,1-.136-.253l.525-2.454A.22.22,0,0,1,820.5,61.9Z" transform="translate(-819.714 -59.862)" fill="#8cd334"/>
      </g>
    </g>
  </g>
</svg>
