<svg xmlns="http://www.w3.org/2000/svg" xmlns:xlink="http://www.w3.org/1999/xlink" width="31" height="31" viewBox="0 0 31 31">
  <defs>
    <filter id="Ellipse_70" x="0" y="0" width="31" height="31" filterUnits="userSpaceOnUse">
      <feOffset input="SourceAlpha"/>
      <feGaussianBlur stdDeviation="1.5" result="blur"/>
      <feFlood flood-opacity="0.161"/>
      <feComposite operator="in" in2="blur"/>
      <feComposite in="SourceGraphic"/>
    </filter>
  </defs>
  <g id="Group_270" data-name="Group 270" transform="translate(-13.5 -697.5)">
    <g transform="matrix(1, 0, 0, 1, 13.5, 697.5)" filter="url(#Ellipse_70)">
      <circle id="Ellipse_70-2" data-name="Ellipse 70" cx="11" cy="11" r="11" transform="translate(4.5 4.5)" fill="#2e2e2e"/>
    </g>
    <g id="share" transform="translate(23 707)">
      <path id="Path_1239" data-name="Path 1239" d="M317.917,17.625A1.625,1.625,0,1,1,316.293,16,1.625,1.625,0,0,1,317.917,17.625Zm0,0" transform="translate(-307.295 -15.625)" fill="#eabd5b"/>
      <path id="Path_1240" data-name="Path 1240" d="M300.667,4a2,2,0,1,1,2-2A2,2,0,0,1,300.667,4Zm0-3.249A1.25,1.25,0,1,0,301.917,2,1.251,1.251,0,0,0,300.667.75Zm0,0" transform="translate(-291.669)" fill="#eabd5b"/>
      <path id="Path_1241" data-name="Path 1241" d="M317.917,358.957a1.625,1.625,0,1,1-1.625-1.625A1.625,1.625,0,0,1,317.917,358.957Zm0,0" transform="translate(-307.295 -348.959)" fill="#eabd5b"/>
      <path id="Path_1242" data-name="Path 1242" d="M300.667,345.331a2,2,0,1,1,2-2A2,2,0,0,1,300.667,345.331Zm0-3.249a1.25,1.25,0,1,0,1.25,1.25A1.251,1.251,0,0,0,300.667,342.082Zm0,0" transform="translate(-291.669 -333.334)" fill="#eabd5b"/>
      <path id="Path_1243" data-name="Path 1243" d="M19.249,188.293a1.625,1.625,0,1,1-1.625-1.625A1.625,1.625,0,0,1,19.249,188.293Zm0,0" transform="translate(-15.625 -182.294)" fill="#eabd5b"/>
      <path id="Path_1244" data-name="Path 1244" d="M2,174.667a2,2,0,1,1,2-2A2,2,0,0,1,2,174.667Zm0-3.249a1.25,1.25,0,1,0,1.25,1.25A1.251,1.251,0,0,0,2,171.418Zm0,0" transform="translate(0 -166.669)" fill="#eabd5b"/>
      <path id="Path_1245" data-name="Path 1245" d="M114.849,93.859a.5.5,0,0,1-.248-.934l4.638-2.644a.5.5,0,1,1,.495.869L115.1,93.794A.5.5,0,0,1,114.849,93.859Zm0,0" transform="translate(-111.669 -88.101)" fill="#eabd5b"/>
      <path id="Path_1246" data-name="Path 1246" d="M119.509,269.864a.5.5,0,0,1-.247-.066l-4.639-2.644a.5.5,0,0,1,.495-.869l4.639,2.644a.5.5,0,0,1-.248.934Zm0,0" transform="translate(-111.691 -259.981)" fill="#eabd5b"/>
    </g>
  </g>
</svg>
