<svg id="shield" xmlns="http://www.w3.org/2000/svg" width="13.819" height="16.419" viewBox="0 0 13.819 16.419">
  <g id="Group_85" data-name="Group 85">
    <path id="Path_842" data-name="Path 842" d="M47.709,4.226c-.02-.432-.02-.844-.02-1.257a.579.579,0,0,0-.589-.589A7.889,7.889,0,0,1,41.229.162a.606.606,0,0,0-.825,0,7.889,7.889,0,0,1-5.871,2.219.579.579,0,0,0-.589.589c0,.412,0,.825-.02,1.257-.079,4.123-.2,9.778,6.7,12.154l.2.039.2-.039C47.885,14,47.787,8.369,47.709,4.226ZM40.346,9.94a.634.634,0,0,1-.412.157h-.02a.553.553,0,0,1-.412-.2L37.676,7.878l.884-.785,1.433,1.59L43.173,5.66l.805.864Z" transform="translate(-33.908 0)" fill="#eabd5b"/>
  </g>
</svg>
