<svg xmlns="http://www.w3.org/2000/svg" xmlns:xlink="http://www.w3.org/1999/xlink" width="31" height="31" viewBox="0 0 31 31">
  <defs>
    <filter id="Ellipse_66" x="0" y="0" width="31" height="31" filterUnits="userSpaceOnUse">
      <feOffset input="SourceAlpha"/>
      <feGaussianBlur stdDeviation="1.5" result="blur"/>
      <feFlood flood-opacity="0.161"/>
      <feComposite operator="in" in2="blur"/>
      <feComposite in="SourceGraphic"/>
    </filter>
  </defs>
  <g id="Group_267" data-name="Group 267" transform="translate(-13.5 -242.5)">
    <g transform="matrix(1, 0, 0, 1, 13.5, 242.5)" filter="url(#Ellipse_66)">
      <circle id="Ellipse_66-2" data-name="Ellipse 66" cx="11" cy="11" r="11" transform="translate(4.5 4.5)" fill="#2e2e2e"/>
    </g>
    <path id="Icon_awesome-user-tie" data-name="Icon awesome-user-tie" d="M4.84,5.531A2.765,2.765,0,1,0,2.074,2.765,2.765,2.765,0,0,0,4.84,5.531Zm2.07.7L5.877,10.37,5.185,7.432l.691-1.21H3.8l.691,1.21L3.8,10.37,2.77,6.235A2.9,2.9,0,0,0,0,9.126v.9a1.037,1.037,0,0,0,1.037,1.037h7.6a1.037,1.037,0,0,0,1.037-1.037v-.9a2.9,2.9,0,0,0-2.77-2.891Z" transform="translate(24 252)" fill="#eabd5b"/>
  </g>
</svg>
