<svg xmlns="http://www.w3.org/2000/svg" xmlns:xlink="http://www.w3.org/1999/xlink" width="31" height="31" viewBox="0 0 31 31">
  <defs>
    <filter id="Ellipse_68" x="0" y="0" width="31" height="31" filterUnits="userSpaceOnUse">
      <feOffset input="SourceAlpha"/>
      <feGaussianBlur stdDeviation="1.5" result="blur"/>
      <feFlood flood-opacity="0.161"/>
      <feComposite operator="in" in2="blur"/>
      <feComposite in="SourceGraphic"/>
    </filter>
  </defs>
  <g id="Group_269" data-name="Group 269" transform="translate(-13.5 -548.5)">
    <g transform="matrix(1, 0, 0, 1, 13.5, 548.5)" filter="url(#Ellipse_68)">
      <circle id="Ellipse_68-2" data-name="Ellipse 68" cx="11" cy="11" r="11" transform="translate(4.5 4.5)" fill="#2e2e2e"/>
    </g>
    <path id="Icon_material-lock" data-name="Icon material-lock" d="M13.237,5.119H12.72V4.085a2.585,2.585,0,1,0-5.17,0V5.119H7.034A1.037,1.037,0,0,0,6,6.153v5.17a1.037,1.037,0,0,0,1.034,1.034h6.2a1.037,1.037,0,0,0,1.034-1.034V6.153A1.037,1.037,0,0,0,13.237,5.119Zm-3.1,4.653A1.034,1.034,0,1,1,11.17,8.737,1.037,1.037,0,0,1,10.136,9.771Zm1.6-4.653H8.533V4.085a1.6,1.6,0,0,1,3.205,0Z" transform="translate(19 556.5)" fill="#eabd5b"/>
  </g>
</svg>
