<svg id="smartphone" xmlns="http://www.w3.org/2000/svg" width="22.528" height="41.072" viewBox="0 0 22.528 41.072">
  <g id="Group_82" data-name="Group 82">
    <path id="Path_838" data-name="Path 838" d="M131.931,0H118.055a4.36,4.36,0,0,0-4.363,4.282V36.8a4.319,4.319,0,0,0,4.321,4.277l13.9-.015A4.292,4.292,0,0,0,136.2,36.78l.02-32.5A4.282,4.282,0,0,0,131.931,0Zm-8.942,2.567h4.026a.642.642,0,0,1,0,1.283h-4.026a.642.642,0,1,1,0-1.283Zm-2.419.2a.665.665,0,0,1,.908,0,.643.643,0,0,1-.452,1.1.657.657,0,0,1-.456-.189.647.647,0,0,1,0-.908Zm4.3,37.029a1.92,1.92,0,1,1,1.92-1.92A1.923,1.923,0,0,1,124.872,39.8Zm9.356-5.146H115.938V6.1h18.289Z" transform="translate(-113.692)" fill="#eabd5b"/>
  </g>
</svg>
