<svg xmlns="http://www.w3.org/2000/svg" width="39.5" height="39.5" viewBox="0 0 39.5 39.5">
  <path id="Icon_awesome-plus" data-name="Icon awesome-plus" d="M36.679,17.768h-12.7V5.071A2.822,2.822,0,0,0,21.161,2.25H18.339a2.822,2.822,0,0,0-2.821,2.821v12.7H2.821A2.822,2.822,0,0,0,0,20.589v2.821a2.822,2.822,0,0,0,2.821,2.821h12.7v12.7a2.822,2.822,0,0,0,2.821,2.821h2.821a2.822,2.822,0,0,0,2.821-2.821v-12.7h12.7A2.822,2.822,0,0,0,39.5,23.411V20.589A2.822,2.822,0,0,0,36.679,17.768Z" transform="translate(0 -2.25)" fill="#eabd5b"/>
</svg>
