<svg xmlns="http://www.w3.org/2000/svg" width="39.575" height="36.093" viewBox="0 0 39.575 36.093">
  <g id="ticket" transform="matrix(0.839, 0.545, -0.545, 0.839, -14.57, -20.622)">
    <path id="Path_864" data-name="Path 864" d="M341.041,4.735l-.312.87a2.771,2.771,0,0,1-2.864,1.816v22.6l8.4-23.41Z" transform="translate(-281.513 -4.443)" fill="#eabd5b"/>
    <path id="Path_865" data-name="Path 865" d="M156.881,207.861l-.638-.67-.132.929-.87.44.87.44.132.929.638-.671.933.164-.442-.862.442-.862Z" transform="translate(-110.144 -194.422)" fill="#eabd5b"/>
    <path id="Path_866" data-name="Path 866" d="M54.5,22.247V0H48.956V.924a2.774,2.774,0,1,1-5.546,0V0H37.863V22.247h3.7V24.1h-3.7v7.457h5.546v-.924a2.773,2.773,0,0,1,5.546,0v.924H54.5V24.1H50.8V22.247ZM45.258,24.1H43.409V22.247h1.849Zm3.7,0H47.107V22.247h1.849Zm-1.564-7.268L44.8,19.548l-.533-3.756L41,14.137l3.273-1.655L44.8,8.726l2.588,2.721,3.623-.636-1.709,3.327,1.708,3.328Z" fill="#eabd5b"/>
  </g>
</svg>
