<svg xmlns="http://www.w3.org/2000/svg" width="38.636" height="38.597" viewBox="0 0 38.636 38.597">
  <g id="Group_126" data-name="Group 126" transform="translate(-2752 -1693.846)">
    <path id="Subtraction_7" data-name="Subtraction 7" d="M9.908,19.815A9.91,9.91,0,0,1,6.051.779a9.91,9.91,0,0,1,7.713,18.258A9.845,9.845,0,0,1,9.908,19.815ZM7.462,9.844a.194.194,0,0,0-.194.194v.856a.194.194,0,0,0,.062.142L10,13.5a.194.194,0,0,0,.131.052h1.334a.194.194,0,0,0,.131-.336l-2.437-2.25A2.2,2.2,0,0,0,11.391,8.9h.853a.194.194,0,0,0,.194-.194V8.057a.194.194,0,0,0-.194-.194H11.3a2.209,2.209,0,0,0-.23-.517h1.178a.194.194,0,0,0,.194-.194V6.506a.194.194,0,0,0-.194-.194H7.462a.194.194,0,0,0-.194.194v.723a.194.194,0,0,0,.194.194H8.84a1.162,1.162,0,0,1,.985.44H7.462a.194.194,0,0,0-.194.194V8.7a.194.194,0,0,0,.194.194h2.565a1.111,1.111,0,0,1-1.208.947Z" transform="translate(2761.372 1703.247)" fill="#eabd5b"/>
    <g id="money" transform="translate(2752 1693.846)">
      <path id="Path_867" data-name="Path 867" d="M10.71,11.191A12.182,12.182,0,0,1,29.238,12.74V11.435a7.6,7.6,0,0,0-7.592-7.592H12.228V.5L0,8.205l8.764,5.522a12.149,12.149,0,0,1,1.946-2.536Zm0,0" transform="translate(0 -0.5)" fill="#eabd5b"/>
      <path id="Path_868" data-name="Path 868" d="M153.777,342.229l-8.764-5.522a12.182,12.182,0,0,1-20.474.987V339a7.6,7.6,0,0,0,7.592,7.592h9.418v3.342Zm0,0" transform="translate(-115.141 -311.337)" fill="#eabd5b"/>
    </g>
  </g>
</svg>
