<svg xmlns="http://www.w3.org/2000/svg" width="27.459" height="32.967" viewBox="0 0 27.459 32.967">
  <g id="receipt_1_" data-name="receipt (1)" transform="translate(-42.773)">
    <g id="Group_99" data-name="Group 99" transform="translate(48.77)">
      <g id="Group_98" data-name="Group 98" transform="translate(0)">
        <path id="Path_849" data-name="Path 849" d="M154.442,2.249,150.54,0l-3.9,2.249L142.735,0l-3.9,2.249L135.906.563v26.5h17.418v3.887a2.022,2.022,0,1,0,4.044,0V.563Zm-16.159,15.4V15.695h8.354v1.952Zm16.709-4.263H138.283V11.432h16.709Zm0-4.263H138.283V7.169h16.709Z" transform="translate(-135.906)" fill="#eabd5b"/>
      </g>
    </g>
    <g id="Group_101" data-name="Group 101" transform="translate(42.773 29.01)">
      <g id="Group_100" data-name="Group 100">
        <path id="Path_850" data-name="Path 850" d="M64.235,452.479v-1.935H42.773v1.935A2.024,2.024,0,0,0,44.8,454.5H64.789A3.95,3.95,0,0,1,64.235,452.479Z" transform="translate(-42.773 -450.544)" fill="#eabd5b"/>
      </g>
    </g>
  </g>
</svg>
