<svg xmlns="http://www.w3.org/2000/svg" width="22.76" height="32.796" viewBox="0 0 22.76 32.796">
  <g id="Group_102" data-name="Group 102" transform="translate(-133 -142.703)">
    <g id="Group_100" data-name="Group 100" transform="translate(133 142.703)">
      <path id="Path_81" data-name="Path 81" d="M91.863,24.933H83.447a1.164,1.164,0,0,1-1.185-1.185V21.376a11.363,11.363,0,1,1,10.787.04v2.331A1.164,1.164,0,0,1,91.863,24.933Zm-7.231-2.371h6.045v-1.9a1.161,1.161,0,0,1,.711-1.067,9.009,9.009,0,1,0-7.428,0,1.165,1.165,0,0,1,.672,1.067Z" transform="translate(-76.295)" fill="#eabd5b"/>
      <path id="Path_82" data-name="Path 82" d="M116.914,128.413h-6.559a1.185,1.185,0,0,1,0-2.371h6.559a1.185,1.185,0,0,1,0,2.371Z" transform="translate(-102.254 -99.529)" fill="#eabd5b"/>
      <path id="Path_83" data-name="Path 83" d="M122.137,147.01h-2.766a1.185,1.185,0,0,1,0-2.371h2.766a1.185,1.185,0,0,1,0,2.371Z" transform="translate(-109.374 -114.214)" fill="#eabd5b"/>
    </g>
    <path id="Subtraction_6" data-name="Subtraction 6" d="M-2334.617-1143.437h-8.416v-3.083a10.264,10.264,0,0,1-5.967-9.286A10.206,10.206,0,0,1-2338.806-1166a10.133,10.133,0,0,1,7.2,2.979,10.124,10.124,0,0,1,2.993,7.217,10.109,10.109,0,0,1-1.669,5.576,10.292,10.292,0,0,1-4.336,3.709v3.082Zm-3.785-17.184a.2.2,0,0,0-.169.091l-3.2,5.6a.2.2,0,0,0,.067.276.2.2,0,0,0,.1.03h2.587l-.348,3.37a.2.2,0,0,0,.048.146.2.2,0,0,0,.138.07h.015a.2.2,0,0,0,.17-.095l3.143-5.6a.2.2,0,0,0,0-.2.2.2,0,0,0-.174-.1h-2.627l.44-3.365a.2.2,0,0,0-.044-.149.2.2,0,0,0-.135-.072Z" transform="translate(2483.186 1309.89)" fill="#eabd5b"/>
  </g>
</svg>
