<svg xmlns="http://www.w3.org/2000/svg" width="32.744" height="33.769" viewBox="0 0 32.744 33.769">
  <g id="Group_116" data-name="Group 116" transform="translate(-104.307 -544.31)">
    <g id="pen-drive" transform="translate(121.295 549.505) rotate(43)">
      <path id="Path_857" data-name="Path 857" d="M15.185,20.685V.943A.944.944,0,0,0,14.243,0H.943A.944.944,0,0,0,0,.943V20.685a4.228,4.228,0,0,0,4.223,4.223h6.739A4.228,4.228,0,0,0,15.185,20.685ZM3.345,8.983A3.892,3.892,0,0,1,7.232,5.1h.721A3.892,3.892,0,0,1,11.84,8.983v6.943a3.892,3.892,0,0,1-3.887,3.887H7.232a3.892,3.892,0,0,1-3.887-3.887Z" transform="translate(0 0)" fill="#eabd5b"/>
      <path id="Path_858" data-name="Path 858" d="M1.907,10.756h.721A1.909,1.909,0,0,0,4.535,8.849V1.907A1.909,1.909,0,0,0,2.628,0H1.907A1.909,1.909,0,0,0,0,1.907V8.849A1.909,1.909,0,0,0,1.907,10.756Z" transform="translate(5.325 7.076)" fill="#eabd5b"/>
    </g>
    <rect id="Rectangle_55" data-name="Rectangle 55" width="11.254" height="7.033" transform="translate(128.821 544.31) rotate(43)" fill="#eabd5b"/>
  </g>
</svg>
