<svg xmlns="http://www.w3.org/2000/svg" width="29.999" height="33.332" viewBox="0 0 29.999 33.332">
  <g id="event" transform="translate(-21.333)">
    <g id="Group_125" data-name="Group 125" transform="translate(21.333)">
      <g id="Group_124" data-name="Group 124">
        <path id="Path_862" data-name="Path 862" d="M48,3.333H46.332V0H43V3.333H29.666V0H26.333V3.333H24.666A3.318,3.318,0,0,0,21.35,6.666L21.333,30a3.332,3.332,0,0,0,3.333,3.333H48A3.332,3.332,0,0,0,51.332,30V6.666A3.332,3.332,0,0,0,48,3.333ZM48,30H24.666V11.666H48Z" transform="translate(-21.333)" fill="#eabd5b"/>
        <path id="Path_863" data-name="Path 863" d="M130.612,193.767,128.846,192l-8.133,8.133L117.18,196.6l-1.767,1.767,5.3,5.3Z" transform="translate(-108.063 -177.001)" fill="#eabd5b"/>
      </g>
    </g>
  </g>
</svg>
