<svg xmlns="http://www.w3.org/2000/svg" xmlns:xlink="http://www.w3.org/1999/xlink" width="40" height="40" viewBox="0 0 40 40">
  <defs>
    <filter id="Ellipse_33" x="0" y="0" width="40" height="40" filterUnits="userSpaceOnUse">
      <feOffset dy="3" input="SourceAlpha"/>
      <feGaussianBlur stdDeviation="3" result="blur"/>
      <feFlood flood-opacity="0.161"/>
      <feComposite operator="in" in2="blur"/>
      <feComposite in="SourceGraphic"/>
    </filter>
  </defs>
  <g id="Group_234" data-name="Group 234" transform="translate(-197 -175)">
    <g transform="matrix(1, 0, 0, 1, 197, 175)" filter="url(#Ellipse_33)">
      <circle id="Ellipse_33-2" data-name="Ellipse 33" cx="11" cy="11" r="11" transform="translate(9 6)" fill="#eabd5b"/>
    </g>
    <g id="Icon_material-camera-alt" data-name="Icon material-camera-alt" transform="translate(209 184)">
      <path id="Path_847" data-name="Path 847" d="M16.435,14.817A1.617,1.617,0,1,1,14.817,13.2,1.617,1.617,0,0,1,16.435,14.817Z" transform="translate(-6.763 -6.763)" fill="#0e0e10"/>
      <path id="Path_848" data-name="Path 848" d="M6.538,3,5.613,4.011h-1.6A1.014,1.014,0,0,0,3,5.022v6.065A1.014,1.014,0,0,0,4.011,12.1H12.1a1.014,1.014,0,0,0,1.011-1.011V5.022A1.014,1.014,0,0,0,12.1,4.011H10.5L9.571,3Zm1.516,7.581a2.527,2.527,0,1,1,2.527-2.527A2.528,2.528,0,0,1,8.054,10.581Z" fill="#0e0e10"/>
    </g>
  </g>
</svg>
