<svg id="Icon_awesome-user" data-name="Icon awesome-user" xmlns="http://www.w3.org/2000/svg" width="14.254" height="16.291" viewBox="0 0 14.254 16.291">
  <path id="Icon_awesome-user-2" data-name="Icon awesome-user" d="M7.127,8.145A4.073,4.073,0,1,0,3.055,4.073,4.072,4.072,0,0,0,7.127,8.145ZM9.978,9.164H9.447a5.539,5.539,0,0,1-4.639,0H4.276A4.277,4.277,0,0,0,0,13.44v1.324a1.528,1.528,0,0,0,1.527,1.527h11.2a1.528,1.528,0,0,0,1.527-1.527V13.44A4.277,4.277,0,0,0,9.978,9.164Z" fill="#eabd5b"/>
</svg>
