<svg xmlns="http://www.w3.org/2000/svg" width="38.411" height="26.032" viewBox="0 0 38.411 26.032">
  <g id="user" transform="translate(0 -165)">
    <path id="Path_1236" data-name="Path 1236" d="M98.158,365c-1.081,0-4.39.239-4.975,3.076h9.95C102.549,365.239,99.24,365,98.158,365Z" transform="translate(-86.192 -184.996)" fill="#eabd5b"/>
    <path id="Path_1237" data-name="Path 1237" d="M138.686,278.376a1.688,1.688,0,1,0-1.686-1.69A1.692,1.692,0,0,0,138.686,278.376Z" transform="translate(-126.722 -101.748)" fill="#eabd5b"/>
    <path id="Path_1238" data-name="Path 1238" d="M0,165v26.032H38.411V165Zm19.28,20.331H4.651V184a5.945,5.945,0,0,1,4.885-5.959,3.939,3.939,0,1,1,4.857,0A5.941,5.941,0,0,1,19.28,184Zm13.879,0H22.281V183.08H33.159Zm0-6.039H22.281v-2.251H33.159Zm0-6.039H22.281V171H33.159Z" fill="#eabd5b"/>
  </g>
</svg>
